<svg width="206" height="104" viewBox="0 0 206 104" fill="none" xmlns="http://www.w3.org/2000/svg"><path fill-rule="evenodd" clip-rule="evenodd" d="M84.917 21.157a6.651 6.651 0 0 1 6.005-3.79h12.459a6.653 6.653 0 0 1 6.239 4.344c1.961-1.513 4.385-2.572 7.288-2.572h24.781c3.175 0 5.683 1.264 7.551 3.088 2.067-1.788 4.703-3.088 7.929-3.088h24.759c4.998 0 8.36 3.115 10.172 6.667l.035.069c1.268 2.558 1.817 5.318 1.817 8.13 0 .948-.06 1.905-.171 2.867l-.009.075-4.334 34.072c-.498 3.853-1.836 7.424-4.172 10.49l-.022.029c-2.26 2.935-5.669 5.598-10.281 5.598h-24.759c-1.927 0-3.613-.461-5.061-1.233a6.631 6.631 0 0 1-3.858 1.233h-37.904a6.65 6.65 0 0 1-6.598-7.491l2.782-21.876c.387-3.02 1.416-6.242 3.567-8.713a6.649 6.649 0 0 1-1.777-3.855L82.583 88a6.651 6.651 0 0 1-6.092 3.98h-14.79a6.652 6.652 0 0 1-6.454-5.044 6.712 6.712 0 0 1-.415.013H38.44a6.652 6.652 0 0 1-6.632-6.144h-10.44a6.651 6.651 0 0 1-6.598-7.495l.785-6.144a6.65 6.65 0 0 1 .819-2.45l24.165-42.406a6.651 6.651 0 0 1 5.78-3.358h15.48a6.652 6.652 0 0 1 6.597 7.494l-3.908 30.616a6.633 6.633 0 0 1 1.833 3.116l18.597-39.022Zm-29.3 52.997h2.719l1.55-12.287h-2.718l4.63-36.263h-15.48L22.151 68.01l-.786 6.144h17.859l-.786 6.144h16.393l.786-6.144Zm-13.334-23.94-1.487 11.653h-5.16l6.646-11.654ZM61.701 85.33l29.22-61.311h12.459L76.491 85.33h-14.79Zm47.328-49.222-1.062 8.381h16.393l.297-2.404a7.275 7.275 0 0 1 .118-.66l.017-.071.026-.104a5.677 5.677 0 0 1 .591-1.446c.107-.181.225-.356.353-.524.594-.801 1.245-1.202 1.953-1.202s1.267.39 1.678 1.169a4.46 4.46 0 0 1 .446 2.003c0 .267-.021.545-.064.835l-.234 1.77a3.984 3.984 0 0 1-.102.555c-.066.256-.155.48-.267.674a1.71 1.71 0 0 1-.905.774l-17.858 6.077c-2.364.801-3.78 3.028-4.247 6.678l-2.782 21.871h37.904l1.572-12.288h-21.511l.722-5.743c.045-.345.118-.648.219-.908.22-.563.571-.928 1.055-1.095l17.88-6.11c2.364-.78 3.779-3.006 4.246-6.679l1.466-11.553.032-.291.001-.005c.063-.608.094-1.2.094-1.774 0-1.96-.382-3.695-1.147-5.21a7.657 7.657 0 0 0-.822-1.3c-.92-1.158-2.054-1.738-3.403-1.738h-24.781c-1.798 0-3.476 1.013-5.033 3.039-1.543 2.026-2.491 4.452-2.845 7.279Zm35.929 34.058c-.099.757-.149 1.48-.149 2.17 0 1.938.382 3.64 1.147 5.11.576 1.144 1.278 1.966 2.107 2.463a4.08 4.08 0 0 0 2.14.575h24.759c1.798 0 3.469-1.002 5.012-3.005 1.543-2.026 2.498-4.463 2.866-7.313l4.332-34.058a18.33 18.33 0 0 0 .128-2.104c0-1.936-.376-3.661-1.126-5.175-1.033-2.026-2.449-3.039-4.247-3.039h-24.759c-1.564 0-3.027.755-4.391 2.263-.216.24-.43.498-.642.776-1.152 1.513-1.973 3.249-2.462 5.209a17.382 17.382 0 0 0-.383 2.07l-1.507 11.847-2.825 22.211Zm21.128-3.138a5.38 5.38 0 0 0 1.016-2.206l.032-.153.005-.025c.029-.149.053-.3.073-.455l2.803-22.104c.042-.29.063-.568.063-.835 0-.734-.148-1.402-.446-2.003-.41-.78-.962-1.169-1.656-1.169-.708 0-1.359.4-1.953 1.202a5.47 5.47 0 0 0-.993 2.173l-.018.079-.033.167a7.71 7.71 0 0 0-.061.386l-2.722 21.467v.002l-.081.635c-.042.29-.063.568-.063.835 0 .757.148 1.425.446 2.004.396.779.948 1.168 1.656 1.168.694 0 1.338-.39 1.932-1.168Z" fill="#950E0E"/><path fill-rule="evenodd" clip-rule="evenodd" d="M82.25 15.806a6.651 6.651 0 0 1 6.004-3.79h12.459a6.653 6.653 0 0 1 6.239 4.344c1.961-1.513 4.385-2.572 7.288-2.572h24.781c3.175 0 5.683 1.264 7.551 3.089 2.067-1.789 4.703-3.089 7.929-3.089h24.759c4.998 0 8.36 3.115 10.172 6.668l.035.068c1.268 2.558 1.817 5.319 1.817 8.13a25.022 25.022 0 0 1-.18 2.943l-4.334 34.071c-.498 3.854-1.836 7.424-4.172 10.49l-.022.03c-2.26 2.934-5.669 5.597-10.281 5.597h-24.759c-1.927 0-3.613-.46-5.061-1.233a6.631 6.631 0 0 1-3.858 1.233h-37.904a6.651 6.651 0 0 1-6.598-7.49l2.782-21.877c.387-3.02 1.416-6.241 3.567-8.713a6.651 6.651 0 0 1-1.777-3.855L79.915 82.65a6.652 6.652 0 0 1-6.092 3.98h-14.79a6.652 6.652 0 0 1-6.454-5.045 6.716 6.716 0 0 1-.415.013H35.771a6.651 6.651 0 0 1-6.632-6.144h-10.44A6.651 6.651 0 0 1 12.1 67.96l.785-6.144c.11-.862.389-1.694.819-2.45L37.87 16.962a6.652 6.652 0 0 1 5.78-3.359h15.48a6.652 6.652 0 0 1 6.597 7.494L61.82 51.712a6.663 6.663 0 0 1 1.833 3.117l18.597-39.023Zm-29.3 52.998h2.718l1.55-12.288H54.5l4.63-36.262H43.65L19.483 62.66l-.786 6.144h17.859l-.786 6.144h16.393l.786-6.144ZM39.614 44.863l-1.486 11.653h-5.16l6.646-11.653Zm19.42 35.117 29.22-61.312h12.459L73.823 79.98h-14.79Zm47.328-49.223-1.062 8.381h16.393l.298-2.404a6.31 6.31 0 0 1 .117-.66l.017-.071.026-.103a5.677 5.677 0 0 1 .591-1.446c.107-.182.225-.357.353-.525.594-.8 1.245-1.202 1.953-1.202s1.267.39 1.678 1.17a4.46 4.46 0 0 1 .446 2.003c0 .267-.021.545-.064.834l-.234 1.77a3.98 3.98 0 0 1-.102.555c-.066.256-.155.48-.267.674a1.707 1.707 0 0 1-.905.775l-17.858 6.077c-2.364.8-3.78 3.027-4.247 6.678l-2.782 21.87h37.904l1.572-12.287h-21.511l.722-5.743c.045-.346.118-.648.219-.909.22-.562.571-.927 1.055-1.095l17.88-6.11c2.364-.78 3.779-3.005 4.246-6.678l1.466-11.554.032-.29.001-.005c.063-.608.094-1.2.094-1.775 0-1.959-.382-3.695-1.147-5.209a7.658 7.658 0 0 0-.822-1.3c-.92-1.159-2.054-1.738-3.403-1.738H114.24c-1.798 0-3.476 1.013-5.033 3.038-1.543 2.026-2.491 4.452-2.845 7.28Zm35.929 34.059c-.099.757-.149 1.48-.149 2.17 0 1.937.382 3.64 1.147 5.109.576 1.145 1.278 1.966 2.107 2.464a4.08 4.08 0 0 0 2.14.575h24.759c1.798 0 3.469-1.002 5.012-3.006 1.543-2.025 2.498-4.463 2.866-7.312l4.332-34.059a18.33 18.33 0 0 0 .128-2.103c0-1.937-.376-3.662-1.126-5.176-1.033-2.025-2.449-3.038-4.247-3.038h-24.759c-1.564 0-3.027.754-4.391 2.262-.216.24-.43.499-.642.776-1.152 1.513-1.973 3.25-2.462 5.21a17.385 17.385 0 0 0-.383 2.07l-1.507 11.846-2.825 22.212Zm21.128-3.139a5.38 5.38 0 0 0 1.016-2.206l.032-.153.005-.025c.029-.148.053-.3.073-.454l2.803-22.105c.042-.29.063-.567.063-.834 0-.735-.148-1.403-.446-2.004-.41-.779-.962-1.169-1.656-1.169-.708 0-1.359.401-1.953 1.203a5.47 5.47 0 0 0-.993 2.172l-.018.08-.033.166a7.688 7.688 0 0 0-.061.386l-2.722 21.467v.002l-.081.636c-.042.29-.063.568-.063.835 0 .757.148 1.424.446 2.003.396.78.948 1.169 1.656 1.169.694 0 1.338-.39 1.932-1.169Z" fill="#C61515"/><g filter="url(#a)" fill="#372F2F"><path d="M88.25 18.668h12.46L73.82 79.979H59.03l29.22-61.311ZM139.018 20.44c1.783 0 3.192 1.012 4.225 3.038.765 1.514 1.147 3.25 1.147 5.209 0 .668-.042 1.358-.127 2.07l-1.466 11.553c-.467 3.673-1.882 5.9-4.247 6.678L120.671 55.1c-.708.245-1.133.913-1.274 2.004l-.722 5.743h21.511l-1.572 12.287H100.71l2.782-21.87c.467-3.651 1.883-5.877 4.247-6.679l17.858-6.077c.722-.267 1.147-.935 1.274-2.003l.234-1.77c.042-.29.064-.568.064-.835a4.46 4.46 0 0 0-.446-2.003c-.411-.78-.97-1.169-1.678-1.169s-1.359.401-1.953 1.202c-.595.78-.963 1.714-1.105 2.805l-.297 2.404h-16.393l1.062-8.38c.354-2.828 1.302-5.254 2.845-7.28 1.557-2.026 3.235-3.038 5.033-3.038h24.781ZM154.498 20.44h24.759c1.798 0 3.214 1.012 4.247 3.038.75 1.514 1.126 3.239 1.126 5.176 0 .668-.043 1.369-.128 2.103l-4.332 34.059c-.368 2.849-1.323 5.287-2.866 7.312-1.543 2.004-3.214 3.005-5.012 3.005h-24.759c-1.812 0-3.228-1.012-4.247-3.038-.765-1.47-1.147-3.172-1.147-5.109 0-.69.05-1.413.149-2.17l4.332-34.059c.354-2.827 1.302-5.253 2.845-7.279 1.543-2.026 3.221-3.038 5.033-3.038Zm10.808 12.287c-.708 0-1.359.401-1.953 1.202-.595.78-.963 1.714-1.105 2.805l-2.803 22.105c-.042.29-.063.567-.063.834 0 .757.148 1.425.446 2.004.396.78.948 1.169 1.656 1.169.693 0 1.338-.39 1.932-1.169.609-.78.984-1.725 1.126-2.838l2.803-22.105c.042-.29.063-.568.063-.835 0-.734-.148-1.402-.446-2.003-.41-.78-.962-1.169-1.656-1.169ZM43.646 20.254h15.48l-4.63 36.262h2.719l-1.55 12.288h-2.718l-.786 6.144H35.768l.786-6.144H18.695l.786-6.144 24.165-42.406Zm-5.521 36.262 1.486-11.654-6.646 11.654h5.16Z"/></g><g filter="url(#b)" fill="#fff"><path d="M88.247 18.667h12.459l-26.89 61.311h-14.79l29.22-61.311ZM139.014 20.439c1.783 0 3.192 1.012 4.225 3.038.765 1.514 1.147 3.25 1.147 5.21 0 .667-.042 1.357-.127 2.07l-1.466 11.552c-.467 3.673-1.882 5.9-4.246 6.679l-17.88 6.11c-.708.245-1.133.913-1.274 2.004l-.722 5.743h21.511l-1.572 12.287h-37.904l2.782-21.87c.467-3.651 1.883-5.877 4.247-6.679l17.858-6.077c.722-.267 1.147-.935 1.274-2.003l.234-1.77a5.68 5.68 0 0 0 .064-.835 4.46 4.46 0 0 0-.446-2.003c-.411-.78-.97-1.169-1.678-1.169s-1.359.401-1.953 1.202c-.595.78-.963 1.714-1.104 2.805l-.298 2.404h-16.393l1.062-8.38c.354-2.828 1.302-5.254 2.845-7.28 1.557-2.026 3.235-3.038 5.033-3.038h24.781ZM154.494 20.439h24.759c1.798 0 3.214 1.012 4.247 3.038.751 1.514 1.126 3.239 1.126 5.176 0 .668-.043 1.369-.128 2.103l-4.332 34.059c-.368 2.85-1.323 5.287-2.866 7.312-1.543 2.004-3.214 3.005-5.012 3.005h-24.759c-1.812 0-3.228-1.012-4.247-3.038-.765-1.47-1.147-3.172-1.147-5.109 0-.69.05-1.413.149-2.17l4.332-34.059c.354-2.827 1.302-5.253 2.845-7.279 1.543-2.026 3.221-3.038 5.033-3.038Zm10.808 12.287c-.708 0-1.359.401-1.953 1.202-.595.78-.963 1.714-1.105 2.805l-2.803 22.105c-.042.29-.063.567-.063.835 0 .756.148 1.424.446 2.003.396.78.948 1.169 1.656 1.169.694 0 1.338-.39 1.932-1.169.609-.78.984-1.725 1.126-2.838l2.803-22.105c.042-.29.063-.567.063-.835 0-.734-.148-1.402-.446-2.003-.41-.78-.962-1.169-1.656-1.169ZM43.642 20.253h15.48l-4.629 36.262h2.718l-1.55 12.288h-2.718l-.786 6.144H35.764l.786-6.144H18.69l.786-6.144 24.165-42.406Zm-5.52 36.262 1.486-11.654-6.647 11.654h5.16Z"/></g><defs><filter id="a" x="15.893" y="15.865" width="171.539" height="66.917" filterUnits="userSpaceOnUse" color-interpolation-filters="sRGB"><feFlood flood-opacity="0" result="BackgroundImageFix"/><feBlend in="SourceGraphic" in2="BackgroundImageFix" result="shape"/><feGaussianBlur stdDeviation="1.401" result="effect1_foregroundBlur_1624_1292"/></filter><filter id="b" x="18.691" y="15.864" width="165.934" height="64.114" filterUnits="userSpaceOnUse" color-interpolation-filters="sRGB"><feFlood flood-opacity="0" result="BackgroundImageFix"/><feBlend in="SourceGraphic" in2="BackgroundImageFix" result="shape"/><feColorMatrix in="SourceAlpha" values="0 0 0 0 0 0 0 0 0 0 0 0 0 0 0 0 0 0 127 0" result="hardAlpha"/><feOffset dy="-2.803"/><feGaussianBlur stdDeviation="1.401"/><feComposite in2="hardAlpha" operator="arithmetic" k2="-1" k3="1"/><feColorMatrix values="0 0 0 0 0 0 0 0 0 0 0 0 0 0 0 0 0 0 0.24 0"/><feBlend in2="shape" result="effect1_innerShadow_1624_1292"/></filter></defs></svg>