<svg width="193" height="99" viewBox="0 0 193 99" fill="none" xmlns="http://www.w3.org/2000/svg">
<path fill-rule="evenodd" clip-rule="evenodd" d="M134.798 36.7414C136.815 33.4911 139.062 30.4264 141.314 27.6152C145.606 22.2557 152.169 14.458 159.676 14.458C163.394 14.458 166.811 15.8322 169.522 18.3695C172.373 21.0374 173.939 24.579 173.939 28.481C173.939 31.9359 172.375 35.0178 170.363 37.7283C172.475 39.0363 174.395 40.7237 176.091 42.7636C180.134 47.6273 182.123 53.415 182.123 59.7331C182.123 67.323 179.264 73.9968 173.658 79.1375C168.204 84.1398 161.524 86.6125 154.127 86.6125C146.667 86.6125 139.967 84.0469 134.781 78.6559C133.992 77.8374 133.27 76.9859 132.61 76.1028C131.54 77.4974 130.303 78.8023 128.894 80.0064C123.637 84.5049 117.272 86.611 110.367 86.611C104.184 86.611 98.4219 84.8402 93.3554 81.3002C87.3335 77.0929 83.7225 71.0392 83.7225 63.6382C83.7225 63.624 83.7225 63.6099 83.7225 63.5957L76.1157 77.9492C73.525 82.838 69.3416 86.7526 63.4883 86.7526C60.0161 86.7526 56.793 85.5186 54.2417 83.1639C54.0004 82.9419 53.7686 82.7121 53.5479 82.476C49.0586 85.262 43.9101 86.6094 38.3596 86.6094C35.34 86.6094 32.3471 86.1907 29.452 85.3344C26.0145 84.3192 22.804 82.7357 19.9783 80.5242C15.8942 77.3274 13.2104 72.9579 13.2104 67.6834C13.2104 64.1387 14.4325 60.8349 16.8199 58.2078C17.5405 57.4161 18.3321 56.7283 19.182 56.1474C17.8921 53.9879 17.1951 51.353 17.1951 48.4363C17.1951 46.7553 17.408 44.9829 17.6193 43.3161L19.3271 29.822C19.8569 25.6336 21.3848 21.5805 24.8697 18.9534C27.9225 16.6506 31.7905 16.0887 35.515 16.0887H49.9589C58.671 16.0887 66.0728 20.7384 66.0728 30.1132C66.0728 35.0918 64.6505 39.1591 61.3611 41.4886C62.3577 42.6975 62.5548 43.5884 63.2928 44.9058L74.7581 23.271C77.3646 18.3537 81.5811 14.4549 87.4564 14.4549C90.8751 14.4549 94.0619 15.6464 96.6053 17.9287C96.7141 18.0263 96.8198 18.1255 96.9254 18.2247C97.3165 18.0106 97.7139 17.8028 98.1191 17.6045C102.053 15.6716 106.264 14.595 110.653 14.595C116.849 14.595 122.508 16.6066 127.206 20.6455C132.064 24.8245 134.642 30.3918 134.8 36.7351L134.798 36.7414Z" fill="#850001"/>
<path fill-rule="evenodd" clip-rule="evenodd" d="M131.961 33.6015C133.978 30.3511 136.225 27.2865 138.477 24.4753C142.769 19.1158 149.332 11.3181 156.839 11.3181C160.557 11.3181 163.976 12.6923 166.686 15.2296C169.537 17.8975 171.103 21.4391 171.103 25.3411C171.103 28.796 169.539 31.8779 167.527 34.5884C169.64 35.8964 171.559 37.5838 173.255 39.6237C177.299 44.4874 179.287 50.275 179.287 56.5932C179.287 64.1831 176.428 70.8569 170.822 75.9976C165.368 80.9998 158.689 83.4726 151.292 83.4726C143.831 83.4726 137.131 80.9086 131.945 75.516C131.157 74.6975 130.435 73.8459 129.774 72.9629C128.705 74.3575 127.467 75.6624 126.059 76.8665C120.802 81.365 114.436 83.4711 107.531 83.4711C101.348 83.4711 95.5862 81.7003 90.5198 78.1603C84.4978 73.953 80.8868 67.8977 80.8868 60.4983C80.8868 60.4841 80.8868 60.47 80.8868 60.4558L73.28 74.8092C70.6893 79.6981 66.5059 83.6127 60.6526 83.6127C57.1804 83.6127 53.9573 82.3787 51.406 80.0255C51.1647 79.802 50.9329 79.5738 50.7122 79.3377C46.2229 82.1237 41.0745 83.4711 35.5239 83.4711C32.5043 83.4711 29.5114 83.0524 26.6163 82.1961C23.1788 81.1809 19.9683 79.5974 17.1426 77.3859C13.0586 74.1891 10.3748 69.8196 10.3748 64.5451C10.3748 61.002 11.5968 57.6965 13.9842 55.0695C14.7048 54.2778 15.4964 53.5899 16.3463 53.0075C15.0564 50.848 14.3595 48.2131 14.3595 45.2964C14.3595 43.6154 14.5723 41.843 14.7836 40.1762L16.4914 26.6821C17.0212 22.4937 18.5491 18.4406 22.034 15.8135C25.0868 13.5107 28.9548 12.9472 32.6793 12.9472H47.1233C55.8354 12.9472 63.2371 17.5969 63.2371 26.9717C63.2371 31.9503 61.1478 35.6398 57.8569 37.9694C58.8534 39.1782 59.7191 40.4453 60.4571 41.7643L71.9224 20.1295C74.5289 15.2107 78.7454 11.3134 84.6208 11.3134C88.0394 11.3134 91.2262 12.5049 93.7696 14.7888C93.8784 14.8864 93.9841 14.9856 94.0897 15.0848C94.4808 14.8707 94.8782 14.6629 95.2834 14.4646C99.2177 12.5317 103.428 11.4551 107.818 11.4551C114.013 11.4551 119.673 13.4667 124.37 17.5056C129.228 21.6846 131.806 27.2519 131.964 33.5952L131.961 33.6015ZM89.438 44.3253L87.0917 48.753C88.8199 47.5284 90.791 46.7304 92.9229 46.4486C92.9166 46.2582 92.9118 46.0646 92.9118 45.8709C92.9118 45.7954 92.9118 45.7198 92.9134 45.6443C91.6929 45.3704 90.5261 44.9281 89.4365 44.3268L89.438 44.3253Z" fill="#F43A3B"/>
<path fill-rule="evenodd" clip-rule="evenodd" d="M132.844 32.2123C134.624 29.4751 136.55 26.8827 138.477 24.4744C142.769 19.1149 149.332 11.3172 156.839 11.3172C160.557 11.3172 163.976 12.6913 166.685 15.2286C167.118 15.6347 167.521 16.0597 167.894 16.5036L167.765 16.3808C165.054 13.8435 161.636 12.4694 157.919 12.4694C150.412 12.4694 143.849 20.2671 139.557 25.6266C137.305 28.4378 135.056 31.5024 133.041 34.7527L131.961 33.6006L132.844 32.2123ZM168.82 35.4532C170.236 36.4747 171.556 37.6773 172.768 39.0545C171.485 37.7686 170.095 36.662 168.61 35.7428L168.821 35.4547L168.82 35.4532ZM132.243 75.822C132.142 75.7213 132.043 75.6205 131.945 75.5166C131.538 75.0932 131.147 74.6604 130.775 74.2212L130.856 74.1173C131.291 74.6981 131.753 75.2679 132.245 75.822H132.243ZM87.0917 75.3073C83.7992 72.0255 81.6752 67.9787 81.0681 63.3101L81.9685 61.6102C81.9685 61.6244 81.9685 61.6385 81.9685 61.6511C81.9685 66.9556 83.8229 71.569 87.0917 75.3057V75.3073ZM15.3418 75.811C12.2875 72.8093 10.3748 69.0018 10.3748 64.5489C10.3748 61.0042 11.5968 57.7003 13.9842 55.0733C14.7048 54.2816 15.4964 53.5937 16.3463 53.0113C15.0564 50.8518 14.3595 48.2169 14.3595 45.3002C14.3595 43.6192 14.5723 41.8468 14.7836 40.1799L16.4914 26.6859C17.0212 22.4974 18.5491 18.4443 22.034 15.8173C25.0868 13.5145 28.9548 12.951 32.6793 12.951H47.1233C52.5082 12.951 57.3933 14.7281 60.3373 18.3011C57.3523 15.4994 52.9749 14.1048 48.2034 14.1048H33.7594C30.0349 14.1048 26.1685 14.6667 23.1141 16.9711C19.6293 19.5981 18.1013 23.6512 17.5715 27.8397L15.8638 41.3337C15.6525 43.0022 15.4396 44.7729 15.4396 46.454C15.4396 49.3706 16.1366 52.004 17.4264 54.1651C16.5749 54.7459 15.7834 55.4337 15.0643 56.2271C12.677 58.8541 11.4549 62.1595 11.4549 65.7026C11.4549 69.6031 12.9245 73.0092 15.3418 75.8125V75.811ZM60.4555 41.7681L71.9208 20.1333C74.5273 15.216 78.7422 11.3172 84.6192 11.3172C88.0378 11.3172 91.2246 12.5087 93.7681 14.7926C93.8769 14.8902 93.9825 14.9894 94.0866 15.0885C94.4776 14.8745 94.8766 14.6667 95.2803 14.47C99.2145 12.5371 103.425 11.4604 107.815 11.4604C114.01 11.4604 119.669 13.472 124.367 17.511C125.215 18.2413 125.994 19.0141 126.704 19.8263C126.303 19.4281 125.885 19.0409 125.449 18.6647C120.751 14.6258 115.092 12.6142 108.896 12.6142C104.505 12.6142 100.296 13.6908 96.362 15.6237C95.9583 15.822 95.5609 16.0282 95.1683 16.2439C95.0627 16.1447 94.957 16.0455 94.8498 15.948C92.3079 13.6641 89.1195 12.4741 85.7009 12.4741C79.824 12.4741 75.6091 16.3714 73.0025 21.2902L61.5372 42.925L60.4571 41.7729L60.4555 41.7681ZM89.5043 47.3905C90.545 46.9403 91.6456 46.6271 92.7936 46.4634L92.915 45.6402L93.9951 46.7924C93.9935 46.8679 93.9935 46.9435 93.9935 47.0206C93.9935 47.2142 93.9967 47.4078 94.003 47.5983C91.8711 47.88 89.9 48.6781 88.1718 49.9027L87.0917 48.7505C88.0583 48.0532 88.402 47.847 89.5043 47.3905Z" fill="#FF6161"/>
<path d="M35.2091 39.384C37.0587 38.9575 38.7428 38.745 40.2724 38.745C44.9682 38.745 48.7873 40.4732 51.7282 43.9298C54.5271 47.1974 55.9258 51.1986 55.9258 55.9332C55.9258 61.6154 54.0635 66.3265 50.3405 70.0679C46.616 73.8078 41.9091 75.6793 36.2167 75.6793C33.987 75.6793 31.8283 75.3708 29.7422 74.7553C27.1798 73.9982 24.9753 72.8854 23.1241 71.4168C20.7998 69.6177 19.6377 67.5809 19.6377 65.3081C19.6377 63.8411 20.0997 62.5976 21.0253 61.5792C21.9509 60.5608 23.1241 60.0524 24.548 60.0524C25.6392 60.0524 27.3832 60.7859 29.7784 62.2545C32.1737 63.723 34.2724 64.4565 36.0748 64.4565C38.2098 64.4565 39.9759 63.6868 41.3762 62.1474C42.7764 60.608 43.4749 58.7743 43.4749 56.6431C43.4749 54.4647 42.9183 52.7002 41.8035 51.3513C40.6886 50.0023 39.0645 49.3271 36.9294 49.3271C35.8383 49.3271 34.3686 49.6356 32.5174 50.251C30.6678 50.8665 29.2202 51.175 28.1779 51.175C25.1425 51.175 23.624 49.4703 23.624 46.061C23.624 45.2567 23.7422 43.9062 23.9803 42.0126L25.6881 28.517C26.0208 25.9608 26.7556 24.2561 27.8941 23.403C28.8907 22.6459 30.7166 22.2666 33.3736 22.2666H47.8176C52.8462 22.2666 55.3597 24.0893 55.3597 27.7363C55.3597 31.3345 52.9881 33.1336 48.2449 33.1336H36.007L35.2122 39.384H35.2091ZM61.347 75.8209C60.0066 75.8209 58.8681 75.3833 57.9205 74.5066C56.9712 73.6299 56.4966 72.5297 56.4966 71.2043C56.4966 70.1151 56.8277 68.9551 57.4931 67.7242L80.1919 24.8952C81.7104 22.0541 83.4181 20.6343 85.3151 20.6343C86.6428 20.6343 87.7813 21.0609 88.7305 21.9124C89.6798 22.764 90.1529 23.8532 90.1529 25.1801C90.1529 26.2221 89.7965 27.4168 89.0979 28.7437L66.3992 71.5726C64.8807 74.4012 63.1966 75.8225 61.347 75.8225V75.8209ZM118.117 45.6344C123.904 48.57 126.797 52.9741 126.797 58.8452C126.797 63.8175 124.924 67.9131 121.176 71.1335C117.618 74.1635 113.301 75.6793 108.225 75.6793C103.766 75.6793 99.7338 74.4248 96.1291 71.9142C92.1444 69.1203 90.1529 65.5694 90.1529 61.2597C90.1529 59.8871 90.6748 58.6075 91.7187 57.4238C92.7626 56.2402 93.972 55.6483 95.347 55.6483C96.8655 55.6483 98.2642 56.429 99.5446 57.992C100.636 59.4118 101.751 60.8567 102.889 62.3253C104.408 63.8883 106.234 64.669 108.369 64.669C110.218 64.669 111.724 64.0174 112.888 62.7157C114.05 61.4139 114.63 59.8399 114.63 57.992C114.63 55.8608 113.848 54.323 112.282 53.3754C111.333 52.8072 109.602 52.3098 107.088 51.8833C103.815 51.3151 102.178 49.5632 102.178 46.6276C102.178 45.0174 102.605 43.8101 103.458 43.0058C104.169 42.3432 105.379 41.8222 107.087 41.4428C110.739 40.5897 112.566 38.8142 112.566 36.1164C112.566 33.1336 111.144 31.6414 108.298 31.6414C106.257 31.6414 104.502 32.2096 103.033 33.3461C102.938 33.3933 101.918 34.4353 99.9735 36.4705C98.8823 37.6069 97.7675 38.1752 96.629 38.1752C95.254 38.1752 94.0918 37.6904 93.1426 36.7192C92.1933 35.748 91.7203 34.577 91.7203 33.2028C91.7203 31.7815 92.1712 30.3145 93.0716 28.7987C94.4955 26.337 96.7236 24.371 99.7606 22.9041C102.607 21.4843 105.524 20.7728 108.512 20.7728C112.733 20.7728 116.387 22.0982 119.47 24.7504C122.552 27.4026 124.095 30.8119 124.095 34.9783C124.095 39.192 122.101 42.743 118.117 45.6329V45.6344ZM152.413 41.0178C154.501 40.7802 155.876 40.6621 156.54 40.6621C160.905 40.6621 164.509 42.3904 167.355 45.8469C170.06 49.0674 171.411 52.9017 171.411 57.353C171.411 62.6086 169.514 66.9765 165.719 70.4567C161.925 73.9368 157.346 75.6777 151.986 75.6777C146.626 75.6777 142.238 73.9022 138.822 70.3512C135.407 66.8002 133.699 62.3253 133.699 56.9264C133.699 49.4923 137.755 40.7093 145.866 30.5758C151.179 23.9461 155.069 20.6328 157.535 20.6328C159.053 20.6328 160.381 21.1648 161.52 22.2304C162.658 23.296 163.227 24.5867 163.227 26.1009C163.227 27.379 162.325 29.1073 160.523 31.2857C159.148 32.8015 157.784 34.3157 156.431 35.8315C155.078 37.3472 153.739 39.0755 152.41 41.0163L152.413 41.0178ZM145.797 57.5308C145.797 59.437 146.437 61.118 147.717 62.5976C148.998 64.0772 150.587 64.8107 152.484 64.8107C154.381 64.8107 155.971 64.0772 157.251 62.5976C158.531 61.118 159.172 59.437 159.172 57.5308C159.172 55.5775 158.544 53.8964 157.286 52.4987C156.029 51.09 154.428 50.3911 152.483 50.3911C150.538 50.3911 148.936 51.09 147.68 52.4987C146.423 53.8964 145.794 55.5775 145.794 57.5308H145.797Z" fill="#850001"/>
<path d="M34.5174 38.6229C36.3671 38.1963 38.0512 37.9839 39.5807 37.9839C44.2766 37.9839 48.0957 39.7121 51.0365 43.1687C53.8354 46.4363 55.2341 50.4375 55.2341 55.1721C55.2341 60.8543 53.3718 65.5653 49.6489 69.3068C45.9244 73.0466 41.2175 74.9181 35.525 74.9181C33.2954 74.9181 31.1367 74.6096 29.0505 73.9942C26.4881 73.2371 24.2837 72.1243 22.4325 70.6557C20.1082 68.8566 18.946 66.8198 18.946 64.547C18.946 63.08 19.4081 61.8365 20.3337 60.8181C21.2593 59.7997 22.4325 59.2913 23.8564 59.2913C24.9475 59.2913 26.69 60.0248 29.0868 61.4934C31.482 62.9619 33.5808 63.6954 35.3831 63.6954C37.5182 63.6954 39.2843 62.9257 40.6845 61.3863C42.0832 59.8469 42.7833 58.0132 42.7833 55.882C42.7833 53.7036 42.2267 51.9391 41.1102 50.5902C39.9954 49.2396 38.3713 48.566 36.2362 48.566C35.145 48.566 33.6754 48.8745 31.8242 49.4899C29.9745 50.1054 28.527 50.4139 27.4831 50.4139C24.4477 50.4139 22.9292 48.7092 22.9292 45.2999C22.9292 44.494 23.0474 43.1451 23.2855 41.2515L24.9933 27.7559C25.326 25.1997 26.0608 23.495 27.1993 22.6419C28.1958 21.8848 30.0218 21.5055 32.6788 21.5055H47.1228C52.1514 21.5055 54.6648 23.3282 54.6648 26.9752C54.6648 30.5734 52.2933 32.3725 47.5485 32.3725H35.3106L34.5159 38.6229H34.5174ZM60.6553 75.0598C59.315 75.0598 58.1765 74.6222 57.2288 73.7455C56.2795 72.8688 55.8065 71.7685 55.8065 70.4432C55.8065 69.354 56.1376 68.194 56.8031 66.9631L79.5018 24.1341C81.0187 21.293 82.728 19.8732 84.625 19.8732C85.9527 19.8732 87.0912 20.2998 88.0405 21.1513C88.9897 22.0044 89.4628 23.0921 89.4628 24.419C89.4628 25.461 89.1064 26.6557 88.4079 27.9826L65.7091 70.8115C64.1906 73.64 62.5065 75.0614 60.6569 75.0614L60.6553 75.0598ZM117.425 44.8733C123.212 47.8089 126.106 52.213 126.106 58.084C126.106 63.0564 124.232 67.152 120.484 70.3724C116.927 73.4024 112.609 74.9181 107.533 74.9181C103.074 74.9181 99.0421 73.6637 95.4375 71.1531C91.4528 68.3592 89.4612 64.8082 89.4612 60.4986C89.4612 59.126 89.9831 57.8464 91.027 56.6627C92.0709 55.479 93.2803 54.8872 94.6553 54.8872C96.1738 54.8872 97.5725 55.6679 98.8529 57.2309C99.9441 58.6523 101.059 60.0956 102.197 61.5642C103.716 63.1272 105.542 63.9079 107.677 63.9079C109.527 63.9079 111.033 63.2563 112.196 61.9546C113.358 60.6528 113.939 59.0772 113.939 57.2309C113.939 55.0997 113.157 53.5619 111.591 52.6143C110.641 52.0461 108.91 51.5487 106.397 51.1222C103.123 50.5539 101.486 48.8021 101.486 45.8665C101.486 44.2563 101.914 43.049 102.767 42.2447C103.478 41.5821 104.687 41.0611 106.395 40.6817C110.047 39.8286 111.875 38.0531 111.875 35.3552C111.875 32.3725 110.452 30.8803 107.606 30.8803C105.566 30.8803 103.811 31.4485 102.341 32.585C102.246 32.6322 101.226 33.6742 99.2818 35.711C98.1906 36.8474 97.0758 37.4156 95.9373 37.4156C94.5623 37.4156 93.4002 36.9308 92.4509 35.9597C91.5016 34.9885 91.0286 33.8174 91.0286 32.4449C91.0286 31.0236 91.4796 29.5566 92.3799 28.0408C93.8023 25.579 96.0319 23.6131 99.0689 22.1461C101.915 20.7248 104.832 20.0149 107.82 20.0149C112.042 20.0149 115.695 21.3402 118.778 23.9924C121.861 26.6446 123.403 30.054 123.403 34.2204C123.403 38.434 121.41 41.985 117.427 44.8749L117.425 44.8733ZM151.722 40.2567C153.809 40.0191 155.184 39.901 155.848 39.901C160.211 39.901 163.818 41.6293 166.664 45.0858C169.368 48.3063 170.719 52.1406 170.719 56.5919C170.719 61.8475 168.822 66.2154 165.027 69.6956C161.232 73.1757 156.654 74.9166 151.294 74.9166C145.935 74.9166 141.546 73.1411 138.131 69.5901C134.715 66.0391 133.007 61.5642 133.007 56.1653C133.007 48.7312 137.063 39.9482 145.174 29.8147C150.487 23.1849 154.377 19.8716 156.843 19.8716C158.362 19.8716 159.689 20.4037 160.828 21.4693C161.966 22.5349 162.536 23.8256 162.536 25.3398C162.536 26.6179 161.634 28.3461 159.831 30.5246C158.456 32.0388 157.092 33.5546 155.739 35.0703C154.388 36.5861 153.048 38.3144 151.718 40.2552L151.722 40.2567ZM145.104 56.7697C145.104 58.6759 145.744 60.3569 147.024 61.8365C148.305 63.3161 149.894 64.0496 151.791 64.0496C153.688 64.0496 155.277 63.3161 156.558 61.8365C157.838 60.3569 158.478 58.6759 158.478 56.7697C158.478 54.8164 157.851 53.1353 156.592 51.7392C155.336 50.3304 153.735 49.6316 151.789 49.6316C149.845 49.6316 148.243 50.3304 146.986 51.7392C145.73 53.1369 145.1 54.818 145.1 56.7697H145.104Z" fill="white"/>
<path d="M35.9411 38.3316C37.2404 38.1002 38.4514 37.9853 39.5789 37.9853C43.0921 37.9853 46.1149 38.9533 48.6458 40.8878C46.394 39.5326 43.797 38.8557 40.8561 38.8557C39.3266 38.8557 37.6425 39.0682 35.7929 39.4948L34.5109 38.6149L35.9411 38.3332V38.3316ZM24.0879 71.8172C23.5076 71.4583 22.9557 71.0711 22.4322 70.6556C20.1079 68.8565 18.9458 66.8197 18.9458 64.5468C18.9458 63.0799 19.4078 61.8364 20.3334 60.818C21.259 59.7996 22.4322 59.2912 23.8561 59.2912C24.9473 59.2912 26.6897 60.0247 29.0865 61.4932C31.4818 62.9618 33.5806 63.6953 35.3829 63.6953C37.5179 63.6953 39.284 62.9256 40.6843 61.3862C42.0829 59.8468 42.7831 58.0131 42.7831 55.8819C42.7831 53.7034 42.2264 51.9405 41.1116 50.59C40.9586 50.4043 40.7946 50.2312 40.6212 50.0706C41.3087 50.4027 41.8984 50.8655 42.3888 51.4605C43.5037 52.8094 44.0603 54.5739 44.0603 56.7523C44.0603 58.8835 43.3602 60.7173 41.9615 62.2566C40.5628 63.796 38.7952 64.5657 36.6601 64.5657C34.8578 64.5657 32.759 63.8322 30.3638 62.3637C27.9685 60.8951 26.2245 60.1616 25.1334 60.1616C23.711 60.1616 22.5363 60.67 21.6107 61.6884C20.6851 62.7068 20.223 63.9503 20.223 65.4173C20.223 67.6902 21.3852 69.7254 23.7095 71.526C23.834 71.6252 23.9602 71.7228 24.0879 71.8188V71.8172ZM25.392 50.0549C23.7505 49.3906 22.9289 47.8056 22.9289 45.2982C22.9289 44.4939 23.0472 43.1434 23.2853 41.2498L24.993 27.7542C25.3242 25.198 26.0606 23.4933 27.199 22.6402C28.1956 21.8831 30.0216 21.5038 32.677 21.5038H47.121C49.9688 21.5038 52.0092 22.0893 53.2439 23.2572C52.0344 22.667 50.4197 22.3726 48.3982 22.3726H33.9543C31.2973 22.3726 29.4713 22.752 28.4763 23.5091C27.3378 24.3622 26.603 26.0653 26.2703 28.6231L24.5625 42.1187C24.326 44.0122 24.2062 45.3627 24.2062 46.167C24.2062 47.9063 24.602 49.2017 25.392 50.0533V50.0549ZM58.4901 74.6017C58.0359 74.3892 57.6149 74.1043 57.2254 73.7454C56.2762 72.8702 55.8015 71.7684 55.8015 70.4431C55.8015 69.3539 56.1342 68.1938 56.7981 66.963L79.4969 24.134C81.0154 21.2929 82.7231 19.8731 84.62 19.8731C85.9493 19.8731 87.0863 20.2997 88.0355 21.1512L88.1002 21.2094C87.4347 20.8978 86.7015 20.742 85.8989 20.742C84.0019 20.742 82.2942 22.1617 80.7757 25.0028L58.0785 67.8318C57.4146 69.0627 57.0819 70.2227 57.0819 71.312C57.0819 72.631 57.5518 73.7281 58.4916 74.6017H58.4901ZM118.827 45.6492C119.382 45.9829 119.904 46.3323 120.396 46.6975C119.861 46.3638 119.295 46.0458 118.699 45.7436L118.827 45.6508V45.6492ZM96.3124 71.7322C96.0175 71.5465 95.7242 71.3529 95.4357 71.1514C91.451 68.3575 89.4594 64.8065 89.4594 60.4969C89.4594 59.1243 89.9813 57.8447 91.0252 56.661C92.0691 55.4774 93.2785 54.8855 94.6535 54.8855C95.7983 54.8855 96.8769 55.3294 97.8861 56.2187C97.2585 55.9102 96.6073 55.7544 95.9324 55.7544C94.5574 55.7544 93.3479 56.3462 92.304 57.5299C91.2602 58.7135 90.7382 59.9916 90.7382 61.3657C90.7382 65.5274 92.5973 68.9824 96.314 71.7306L96.3124 71.7322ZM104.132 63.0452C105.2 63.6197 106.381 63.9062 107.675 63.9062C109.525 63.9062 111.031 63.2546 112.194 61.9529C113.357 60.6511 113.937 59.0771 113.937 57.2292C113.937 55.5261 113.437 54.2024 112.437 53.2548C112.595 53.3288 112.737 53.4044 112.866 53.4815C114.432 54.4291 115.214 55.9669 115.214 58.0981C115.214 59.9444 114.634 61.52 113.472 62.8217C112.31 64.1234 110.804 64.7751 108.952 64.7751C107.119 64.7751 105.512 64.199 104.132 63.0437V63.0452ZM104.178 50.4405C102.383 49.5653 101.484 48.0401 101.484 45.8664C101.484 44.2562 101.912 43.0489 102.765 42.2446C103.476 41.5819 104.685 41.0609 106.393 40.6816C110.045 39.8285 111.873 38.053 111.873 35.3551C111.873 33.9149 111.54 32.8225 110.878 32.078C112.393 32.6667 113.15 34.0487 113.15 36.2256C113.15 38.925 111.324 40.7005 107.67 41.552C105.963 41.9314 104.753 42.4524 104.042 43.115C103.189 43.9209 102.762 45.1282 102.762 46.7368C102.762 48.3124 103.233 49.548 104.178 50.4421V50.4405ZM93.8888 36.9874C93.3637 36.7466 92.8827 36.4034 92.4475 35.958C91.4983 34.9868 91.0252 33.8157 91.0252 32.4416C91.0252 31.0219 91.4762 29.5533 92.3766 28.0375C93.7989 25.5758 96.0286 23.6098 99.0656 22.1428C101.912 20.7231 104.829 20.0116 107.817 20.0116C111.633 20.0116 114.984 21.0945 117.871 23.262C115.287 21.6753 112.362 20.882 109.096 20.882C106.108 20.882 103.191 21.5919 100.344 23.0133C97.309 24.4802 95.0793 26.4462 93.6554 28.908C92.7534 30.4237 92.304 31.8907 92.304 33.312C92.304 34.6846 92.7787 35.8572 93.7264 36.8284C93.78 36.8835 93.8352 36.937 93.8904 36.989L93.8888 36.9874ZM153.755 40.0394C154.732 39.9465 155.429 39.8993 155.845 39.8993C159.008 39.8993 161.774 40.8075 164.139 42.6255C162.072 41.3883 159.733 40.7697 157.122 40.7697C156.458 40.7697 155.082 40.8878 152.995 41.1255L151.732 40.2598L153.755 40.041V40.0394ZM141.538 72.3508C140.311 71.5969 139.174 70.6761 138.129 69.59C134.713 66.039 133.006 61.5641 133.006 56.1652C133.006 48.7311 137.061 39.9481 145.173 29.8146C150.485 23.1848 154.375 19.8715 156.843 19.8715C158.292 19.8715 159.569 20.3579 160.673 21.3291C159.893 20.9371 159.041 20.742 158.122 20.742C155.656 20.742 151.766 24.0568 146.452 30.685C138.34 40.8185 134.285 49.6016 134.285 57.0356C134.285 62.4345 135.992 66.9079 139.408 70.4604C140.081 71.1609 140.791 71.7905 141.54 72.3524L141.538 72.3508ZM149 63.412C149.84 63.837 150.771 64.0494 151.789 64.0494C153.686 64.0494 155.276 63.316 156.556 61.8364C157.836 60.3568 158.478 58.6758 158.478 56.7696C158.478 54.8163 157.849 53.1352 156.592 51.7391C156.406 51.5313 156.214 51.3393 156.014 51.1614C156.698 51.5077 157.318 51.9893 157.869 52.6079C159.126 54.0041 159.755 55.6851 159.755 57.6385C159.755 59.5446 159.115 61.2257 157.835 62.7052C156.554 64.1848 154.965 64.9183 153.068 64.9183C151.502 64.9183 150.146 64.4178 149.001 63.412H149Z" fill="#EBECEC"/>
</svg>
