<svg width="194" height="100" viewBox="0 0 194 100" fill="none" xmlns="http://www.w3.org/2000/svg"><path fill-rule="evenodd" clip-rule="evenodd" d="M126.587 32.535c5.625-5.246 12.566-7.916 20.347-7.916 2.768 0 5.509.368 8.181 1.073 2.76.73 5.388 1.834 7.83 3.283a30.078 30.078 0 0 1 6.523 5.194 24.69 24.69 0 0 1 4.905 7.648 24.583 24.583 0 0 1 1.807 9.324c0 3.424-.587 6.8-1.711 10.043-1.387 4.006-3.806 8.01-6.125 11.567l-9.781 15.007c-2.495 3.925-6.588 6.217-11.337 6.217h-10.041c-4.418 0-8.281-2.55-9.721-6.652-.209-.587-.36-1.18-.457-1.776-.43 2.126-1.445 4.076-3.147 5.62l-.126.112c-2.12 1.85-4.822 2.696-7.634 2.696h-7.424c-2.808 0-5.506-.844-7.626-2.69l-.068-.06-.066-.06c-2.109-1.914-3.166-4.453-3.355-7.178H84.314c-.815 0-1.62-.07-2.402-.215l-.626 2.28c-1.26 4.59-5.632 7.923-10.518 7.923h-3.56c-2.726 0-5.13-1.023-6.901-2.663-4.445 2.541-9.456 3.823-14.865 3.823-2.772 0-5.519-.368-8.196-1.075a30.878 30.878 0 0 1-7.822-3.258 30.307 30.307 0 0 1-6.516-5.174c-2.13-2.234-3.77-4.811-4.935-7.64-1.228-2.982-1.817-6.126-1.817-9.34 0-3.441.622-6.824 1.75-10.08 1.391-4.014 3.818-8.028 6.15-11.586l9.79-14.939c2.476-3.932 6.56-6.27 11.318-6.27H55.23c4.352 0 8.154 2.467 9.68 6.474l.033.087.032.088c1.173 3.294.56 6.827-1.566 9.591l-2.522 3.435c.13.068.262.136.39.209a26.07 26.07 0 0 1 5.097 3.612l4.317-15.738c1.26-4.591 5.635-7.924 10.519-7.924h3.56c5.753 0 10.07 4.56 10.05 9.837l4.221-5.266.135-.152c2.322-2.637 5.433-4.408 9.076-4.408h7.847c2.787 0 5.455.83 7.571 2.645a9.871 9.871 0 0 1 2.914 4.267l.002.005Z" fill="url(#a)"/><path fill-rule="evenodd" clip-rule="evenodd" d="M79.858 34.605h3.993c1.438 0 2.33 1.235 1.963 2.569L72.636 85.209c-.322 1.173-1.533 2.128-2.787 2.128h-3.994c-1.438 0-2.33-1.234-1.964-2.568l13.178-48.036c.324-1.176 1.529-2.127 2.787-2.127h.002Z" fill="#264181"/><path fill-rule="evenodd" clip-rule="evenodd" d="m133.509 84.158 9.415-12.953c-.341.035-.674.06-.979.06-3.164 0-6.137-.752-8.904-2.249-2.78-1.502-5-3.59-6.662-6.236-1.69-2.694-2.506-5.634-2.506-8.793 0-5.514 2.135-10.178 6.199-13.993 4.147-3.895 9.131-5.81 14.883-5.81 2.062 0 4.102.277 6.093.803a22.529 22.529 0 0 1 5.761 2.416 22.05 22.05 0 0 1 4.799 3.816 16.839 16.839 0 0 1 3.354 5.242c.839 2.056 1.237 4.22 1.237 6.43a22.98 22.98 0 0 1-1.289 7.537c-1.163 3.359-3.351 6.893-5.295 9.876l-9.806 15.044c-1.034 1.65-2.567 2.561-4.56 2.561h-10.041c-.999 0-1.834-.44-2.152-1.377-.313-.85-.116-1.68.456-2.376l-.003.002Zm-88.432-32.12c.334-.03.663-.048.98-.048 3.164 0 6.153.746 8.917 2.249a17.73 17.73 0 0 1 6.66 6.26c1.69 2.697 2.518 5.642 2.518 8.804 0 5.509-2.134 10.163-6.2 13.969-4.16 3.893-9.163 5.797-14.92 5.797-2.068 0-4.112-.277-6.107-.803a22.794 22.794 0 0 1-5.77-2.402 22.24 22.24 0 0 1-4.8-3.812c-1.458-1.53-2.568-3.292-3.366-5.229-.847-2.054-1.239-4.208-1.239-6.42 0-2.59.48-5.127 1.328-7.575 1.165-3.36 3.357-6.896 5.31-9.876l9.83-15c1.018-1.655 2.54-2.605 4.535-2.605H52.82c1.004 0 1.82.44 2.183 1.398.305.858.121 1.682-.438 2.37L45.077 52.04v-.002Zm72.188 13.348h3.925c.877 0 1.847.155 2.495.836.55.622.715 1.445.715 2.246v6.334c0 .82-.173 1.664-.753 2.27-.615.67-1.574.85-2.457.85h-3.925v6.906c0 .85-.165 1.76-.845 2.376-.623.544-1.485.707-2.298.707h-7.425c-.813 0-1.673-.163-2.309-.718-.667-.605-.832-1.516-.832-2.365v-6.906H82.337c-.883 0-1.828-.18-2.432-.838-.59-.618-.762-1.464-.762-2.283v-6.347c0-.54.093-1.083.343-1.568.278-.544.66-1.093 1.012-1.597l.015-.022 22.751-28.387c.758-.86 1.787-1.69 3.011-1.69h7.847c.816 0 1.661.163 2.292.703.695.596.851 1.564.851 2.419v27.074Zm-79.679-.463c-1.432 1.353-2.125 2.966-2.125 4.913 0 1.958.703 3.582 2.131 4.955 1.451 1.396 3.17 2.053 5.203 2.053 2.046 0 3.775-.667 5.247-2.058 1.446-1.366 2.166-2.987 2.166-4.95 0-4.014-3.395-6.932-7.413-6.932-2.026 0-3.75.642-5.209 2.019Zm57.189.463h8.781v-11.2l-8.781 11.2Z" fill="#002B8F"/><path fill-rule="evenodd" clip-rule="evenodd" d="m128.227 61.79-.288-.479-.269-.485-.25-.49-.233-.496-.214-.501-.195-.507-.176-.513-.158-.518-.138-.524-.121-.53-.103-.538-.083-.542-.064-.547-.048-.554-.028-.559-.01-.566.023-.97.07-.95.116-.935.163-.916.208-.897.256-.881.301-.863.349-.845.394-.827.439-.81.487-.793.533-.775.579-.757.626-.738.672-.722.718-.703.529-.516c.208-.211.42-.42.64-.626 3.95-3.715 8.705-5.573 14.281-5.573 1.955 0 3.91.257 5.866.773a21.513 21.513 0 0 1 5.535 2.323 20.911 20.911 0 0 1 4.612 3.665c1.333 1.407 2.404 3.07 3.184 4.982.779 1.91 1.177 3.948 1.177 6.115 0 2.387-.411 4.813-1.243 7.265-.898 2.543-2.63 5.78-5.206 9.69l-9.816 15.058a5.274 5.274 0 0 1-.742.942l-1.169 1.141-.425.37-.458.304-.495.237-.53.168-.567.102-.6.033h-10.041l-.25-.013-.228-.037-.202-.063-.18-.088-.156-.115-.13-.14-.106-.165-.082-.191-.06-.204-.033-.201-.002-.2.027-.198.055-.196.085-.195.114-.192.144-.19 10.607-14.593-.521.078-.473.068-.429.057-.38.049-.336.037-.288.025-.242.017-.197.006-.565-.01-.561-.024-.555-.042-.551-.058-.546-.075-.541-.093-.537-.11-.532-.125-.528-.142-.523-.16-.519-.175-.514-.193-.51-.209-.503-.226-.501-.242-.496-.26-.489-.271-.475-.287-.464-.3-.451-.313-.44-.325-.426-.339-.415-.351-.402-.365-.39-.377-.377-.39-.366-.404-.352-.417-.341-.429-.33-.442-.318-.455-.305-.469h-.002ZM24.903 75.96l-.142-.36-.133-.362-.123-.365-.115-.368-.105-.37-.096-.374-.087-.376-.078-.38-.07-.382-.06-.385-.052-.389-.042-.392-.032-.396-.023-.398-.013-.401-.005-.406.005-.44.015-.442.025-.446.034-.446.046-.45.055-.451.064-.454.074-.455.085-.457.095-.459.104-.46.116-.465.125-.466.136-.469.146-.47.155-.473.178-.485.197-.502.218-.518.237-.532.258-.55.276-.566.298-.581.316-.598.335-.614.357-.63.375-.645.396-.663.415-.677.434-.694.452-.709.474-.725 9.842-15.018.354-.513.389-.446 1.169-1.141c.81-.822 1.83-1.236 3.048-1.236h10.068c.7 0 1.15.27 1.36.825.197.555.09 1.082-.319 1.587L45.461 51.463c1.294-.207 2.245-.309 2.866-.309 3.026 0 5.867.709 8.495 2.143a16.784 16.784 0 0 1 6.341 5.96c1.6 2.543 2.391 5.33 2.391 8.362 0 4.876-1.741 9.093-5.214 12.652-.23.237-.47.472-.718.703l-1.169 1.142-.373.342-.379.331-.383.32-.388.31-.392.297-.398.289-.401.276-.408.266-.41.255-.418.245-.42.233-.427.222-.43.21-.435.203-.44.19-.445.18-.45.168-.454.157-.458.147-.464.136-.47.126-.474.115-.477.104-.483.092-.49.082-.492.07-.496.06-.502.047-.508.039-.512.028-.517.016-.52.006-.37-.004-.37-.009-.367-.015-.368-.02-.367-.028-.368-.033-.367-.039-.368-.044-.367-.052-.368-.058-.367-.063-.368-.07-.367-.076-.366-.081-.368-.087-.367-.094-.366-.1-.364-.106-.36-.11-.358-.12-.356-.123-.352-.13-.35-.135-.35-.142-.344-.148-.343-.154-.341-.16-.337-.164-.336-.172-.333-.176-.332-.183-.327-.189-.64-.396-.624-.414-.604-.433-.586-.45-.568-.468-.55-.485-.528-.501-.51-.518-.25-.267-.242-.272-.235-.277-.23-.283-.223-.291-.216-.296-.208-.302-.203-.307-.197-.313-.19-.318-.183-.326-.177-.33-.17-.338-.165-.342-.157-.35-.152-.355.004-.002Zm26.815-4.001.123-.36.105-.366.085-.374.066-.38.048-.39.028-.395.01-.406-.044-.827-.127-.795-.209-.763-.282-.723-.354-.685-.42-.64-.482-.594-.538-.546-.591-.492-.64-.437-.682-.378-.722-.316-.758-.252-.788-.183-.813-.113-.833-.038-.425.009-.417.026-.407.044-.4.061-.392.08-.383.096c-1.1.335-2.002.775-2.889 1.504-1.152 1.366-1.724 2.967-1.724 4.819 0 2.18.792 4.025 2.391 5.56 1.6 1.536 3.528 2.297 5.813 2.297 3.336 0 5.53-1.283 6.65-4.045l.001.002Zm29.928 4-.125-.15-.108-.166-.09-.185-.075-.204-.056-.222-.042-.24-.025-.26-.007-.275V67.91l.003-.167.012-.16.019-.158.026-.152.034-.146.044-.14.051-.136.06-.13.073-.132.085-.15.099-.165.111-.18.125-.194.14-.21.154-.225.167-.238L105.03 36.89l.305-.328 1.169-1.141c.711-.71 1.399-1.068 2.046-1.068h7.848c.767 0 1.335.169 1.718.49.369.322.555.916.555 1.78v27.924h4.797c.885 0 1.493.18 1.836.542.331.374.502.929.502 1.691v6.334c0 .763-.173 1.329-.529 1.704-.03.034-.06.063-.094.093l-1.075 1.05-.142.13-.165.115-.189.098-.214.08-.239.063-.263.044-.286.028-.311.01h-3.626v6.613c0 .838-.184 1.406-.555 1.74l-1.169 1.143-.148.114-.168.1-.188.085-.206.069-.226.053-.242.04-.262.023-.278.008h-7.425l-.279-.008-.261-.024-.242-.038-.226-.054-.206-.069-.188-.085-.169-.1-.149-.114-.131-.137-.112-.16-.095-.18-.077-.206-.061-.23-.043-.251-.027-.276-.009-.302V76.53H83.442l-.31-.01-.285-.027-.26-.044-.236-.063-.212-.08-.188-.098-.165-.115-.14-.13v-.003Zm23.885-11.413V51.482L95.287 64.546h10.244Z" fill="#B3B3B3"/><path d="M127.156 52.192c0-5.212 1.982-9.678 5.932-13.38 3.95-3.716 8.705-5.574 14.281-5.574 1.955 0 3.91.258 5.865.774a21.501 21.501 0 0 1 5.536 2.322A20.909 20.909 0 0 1 163.382 40c1.333 1.406 2.404 3.07 3.184 4.981.779 1.91 1.177 3.949 1.177 6.116 0 2.387-.411 4.813-1.243 7.265-.898 2.542-2.63 5.78-5.206 9.69l-9.816 15.057c-.898 1.433-2.167 2.156-3.817 2.156H137.62c-.699 0-1.15-.27-1.334-.812-.199-.542-.093-1.072.33-1.575l10.607-14.593c-1.453.22-2.404.335-2.866.335-3.026 0-5.853-.71-8.482-2.142-2.641-1.42-4.742-3.407-6.341-5.937-1.586-2.542-2.378-5.316-2.378-8.349ZM25.036 68.606c0-2.349.422-4.774 1.28-7.302.898-2.543 2.64-5.78 5.217-9.69l9.843-15.02c.898-1.459 2.165-2.196 3.79-2.196h10.068c.701 0 1.15.27 1.36.826.197.555.091 1.084-.318 1.588l-10.674 14.54c1.294-.207 2.247-.309 2.867-.309 3.025 0 5.867.709 8.495 2.143a16.782 16.782 0 0 1 6.34 5.96c1.6 2.543 2.392 5.33 2.392 8.36 0 5.2-1.982 9.652-5.932 13.355-3.964 3.703-8.732 5.56-14.319 5.56-1.968 0-3.924-.257-5.879-.775a22.138 22.138 0 0 1-5.547-2.31 21.45 21.45 0 0 1-4.611-3.663c-1.35-1.406-2.404-3.059-3.196-4.968-.78-1.91-1.177-3.936-1.177-6.105v.006Zm14.36-6.09c-1.6 1.51-2.391 3.342-2.391 5.523 0 2.18.792 4.025 2.39 5.56 1.6 1.537 3.528 2.297 5.813 2.297 2.285 0 4.227-.76 5.852-2.296 1.626-1.536 2.431-3.383 2.431-5.56 0-4.484-3.785-7.782-8.283-7.782-2.285 0-4.215.748-5.812 2.258Zm43.03 10.49v-6.347c0-.452.08-.853.25-1.188.173-.335.49-.838.951-1.497l22.71-28.336c.819-.929 1.611-1.393 2.351-1.393h7.847c.768 0 1.336.168 1.719.49.369.322.555.916.555 1.78v27.923h4.797c.885 0 1.493.18 1.836.543.331.373.502.928.502 1.69v6.335c0 .762-.173 1.329-.529 1.704-.343.374-.951.568-1.809.568h-4.797v7.755c0 .839-.184 1.407-.555 1.742-.37.323-.951.49-1.719.49h-7.424c-.768 0-1.347-.166-1.719-.49-.369-.335-.555-.903-.555-1.742v-7.755H84.749c-.858 0-1.453-.194-1.796-.568-.356-.374-.529-.942-.529-1.704h.002Zm13-8.568h11.415V49.883L95.427 64.438Z" fill="#fff"/><path fill-rule="evenodd" clip-rule="evenodd" d="m72.653 84.662-.089.087-.902.88-.25.222-.278.184-.3.138-.31.09-.315.03h-3.993l-.3-.03-.263-.088-.224-.139-.178-.183-.127-.222-.072-.255-.013-.282.051-.301L78.27 36.757l.113-.301.167-.281.212-.256.991-.967c.386-.4.926-.663 1.453-.663H85.2c.845 0 1.349.68 1.123 1.499L73.144 83.823a1.982 1.982 0 0 1-.493.835l.002.004Z" fill="url(#b)"/><path d="m147.341 56.935-5.03 3.529c-1.008.803-2.262-.026-1.866-1.243l1.955-6c-1.804-1.252-3.607-2.503-5.411-3.758-.993-.69-.439-2.045.773-2.05l6.508.03c.61-1.9 1.22-3.801 1.832-5.702a1.34 1.34 0 0 1 1.241-.93 1.341 1.341 0 0 1 1.241.93c.612 1.9 1.22 3.801 1.832 5.702l6.507-.03c1.213.005 1.766 1.36.773 2.05-1.803 1.255-3.607 2.506-5.411 3.758l1.956 6c.396 1.217-.859 2.046-1.866 1.243l-5.03-3.529h-.004Z" fill="url(#c)"/><path d="M136.633 48.033c.203-.354.608-.618 1.142-.622l6.508.03-.188.586-7.133-.033c-.115 0-.225.015-.329.037v.002Zm9.622-6.597a1.361 1.361 0 0 1 1.099-.626c.521.02 1.051.337 1.241.931.612 1.9 1.22 3.801 1.832 5.702l6.508-.03c1.212.005 1.765 1.36.773 2.05l-.652.453c.761-.716.204-1.915-.936-1.92l-6.508.03c-.61-1.901-1.22-3.801-1.832-5.702a1.34 1.34 0 0 0-1.241-.93 1.398 1.398 0 0 0-.286.04l.002.002Zm6.048 11.784 1.949 6.002c.265.816-.21 1.457-.856 1.55.13-.264.163-.597.041-.967l-1.955-6.017.819-.568h.002Z" fill="#F60"/><path d="M28.694 17.368h3.088c.398 0 .752.156 1.023.439.27.281.407.627.407 1.012v2.13c0 .407-.295.71-.714.71h-6.576c-.4 0-.754-.153-1.028-.436a1.42 1.42 0 0 1-.41-1.01V5.252c0-.408.294-.71.715-.71h2.78c.423 0 .715.302.715.71v12.115ZM43.093 4.121c2.53 0 4.71.883 6.5 2.63 1.792 1.746 2.692 3.876 2.692 6.348 0 2.473-.902 4.602-2.692 6.35-1.79 1.746-3.968 2.632-6.5 2.632-2.534 0-4.708-.886-6.5-2.633-1.791-1.747-2.697-3.876-2.697-6.349 0-2.472.906-4.602 2.696-6.348 1.793-1.75 3.968-2.63 6.5-2.63Zm13.699 4.713h-3.096c-.422 0-.727-.298-.727-.71v-2.87c0-.415.303-.711.727-.711h10.572c.426 0 .727.294.727.71v2.13c0 .395-.15.744-.434 1.024-.282.28-.646.427-1.047.427h-2.336V20.95c0 .413-.305.71-.728.71h-2.93c-.425 0-.728-.296-.728-.71V8.834ZM74.88 4.121c2.53 0 4.71.883 6.5 2.63 1.792 1.746 2.692 3.876 2.692 6.348 0 2.473-.902 4.602-2.692 6.35-1.79 1.746-3.97 2.632-6.5 2.632-2.533 0-4.708-.886-6.5-2.633-1.79-1.747-2.696-3.876-2.696-6.349 0-2.472.905-4.602 2.696-6.348 1.792-1.75 3.967-2.63 6.5-2.63ZM46.489 9.78c-.941-.918-2.069-1.37-3.398-1.37-1.33 0-2.458.448-3.4 1.368-.94.92-1.405 2.019-1.405 3.32 0 1.3.462 2.398 1.406 3.32.941.919 2.065 1.372 3.399 1.372 1.331 0 2.455-.453 3.398-1.373.944-.92 1.4-2.019 1.4-3.32 0-1.298-.456-2.4-1.4-3.32v.003Zm31.79 0c-.94-.918-2.068-1.37-3.398-1.37s-2.457.448-3.399 1.368c-.942.92-1.404 2.019-1.404 3.32 0 1.3.462 2.398 1.404 3.32.942.919 2.067 1.372 3.399 1.372 1.332 0 2.455-.453 3.399-1.373.943-.92 1.4-2.019 1.4-3.32 0-1.298-.457-2.4-1.4-3.32v.003Z" fill="#fff"/><defs><linearGradient id="a" x1="104.227" y1="87.371" x2="104.227" y2="25.221" gradientUnits="userSpaceOnUse"><stop stop-color="#2358BA"/><stop offset="1" stop-color="#1795D7"/></linearGradient><linearGradient id="b" x1="86.376" y1="34.289" x2="65.89" y2="86.627" gradientUnits="userSpaceOnUse"><stop stop-color="#FFCD01"/><stop offset="1" stop-color="#FF8501"/></linearGradient><linearGradient id="c" x1="149.953" y1="43.564" x2="133.149" y2="61.849" gradientUnits="userSpaceOnUse"><stop stop-color="#FC0"/><stop offset="1" stop-color="#F60"/></linearGradient></defs></svg>