<svg width="194" height="96" viewBox="0 0 194 96" fill="none" xmlns="http://www.w3.org/2000/svg"><path d="M40.846 83.266c18.652 0 33.826-14.657 33.826-32.673 0-18.015-15.174-32.672-33.826-32.672S7.02 32.578 7.02 50.593c0 18.016 15.174 32.673 33.826 32.673Zm113.887-.382c17.783 0 32.246-13.97 32.246-31.145 0-17.176-14.463-31.146-32.246-31.146-17.782 0-32.245 13.97-32.245 31.146 0 17.176 14.463 31.145 32.245 31.145Z" fill="#fff"/><path d="M40.45 79.526c16.518 0 29.954-12.977 29.954-28.932 0-15.955-13.436-28.932-29.954-28.932S10.496 34.64 10.496 50.594C10.417 66.55 23.932 79.526 40.45 79.526Z" fill="#fff"/><path fill-rule="evenodd" clip-rule="evenodd" d="M18.716 41.968c.158 1.68.553 3.13 1.027 4.733.475 1.68.949 3.282 1.502 4.885 1.422 4.046 3.082 7.863 4.979 11.985 1.66 3.13 2.687 5.726 5.928 5.955 3.793.305 19.442-6.184 23.868-8.092.87-.382 1.501-.764 1.976-1.221.395 1.22.869 2.442 1.343 3.587-1.106.23-2.608.993-4.584 1.909-6.164 2.9-12.566 5.343-19.284 6.565-.87.153-1.66.458-2.055 1.374-.474 1.069.237 1.832 1.344 2.977.79.84 1.738 1.756 2.529 2.672-6.797-.687-13.436-3.664-18.415-8.703.158.153.237.306.395.382l.949.076 2.45.077c.948-.077 2.291 0 2.766-.993.395-.687.079-1.603-.396-2.671-.395-.84-.869-1.68-1.264-2.52-1.818-3.587-3.082-6.565-4.505-10.305-1.264-3.512-2.055-6.107-2.845-9.695-.158-.84-.237-1.298-.79-2.061-1.344-1.756-3.32 1.603-4.822 3.511.79-5.496 3.32-10.763 7.193-15.038l-.159 1.069c-.079.84-.158 1.145.475 1.755.948.458 1.501 0 2.37-.458 7.509-4.504 12.804-6.641 21.498-8.168.316-.076.632-.229.948-.305 1.186-.61 1.423-.993 1.186-1.756-.158-.534-.395-.84-.712-1.374l-.237-.382h-.237c6.481.611 12.725 3.207 17.546 7.558l-.08.229-.157-.077c-.475-.152-.949-.305-1.423-.534l-2.134-.687c-.711-.153-1.422-.305-2.055-.382-1.739-.152-2.924-.076-2.845 1.527 0 .61.316 1.221.632 1.909 1.502 3.053 3.003 6.107 4.347 9.16-.395 2.214-.632 4.58-.632 6.87-1.265-3.13-2.53-6.336-3.873-9.39-1.422-3.358-3.24-7.098-4.82-8.473-1.819-1.603-3.794-1.603-6.719-.916-5.216 1.222-10.116 3.13-14.858 5.497-2.213 1.145-5.216 2.29-6.56 4.427-.711 1.222-.87 2.367-.79 3.512Zm8.14.84c.395.458.949.228 1.502-.077 2.529-1.45 6.244-2.672 9.089-3.817v23.36c.079 1.145.237 1.374 1.58 1.145 1.107-.153 2.371-.764 3.004-1.07.316-.152.632-.38.87-.686v-3.359c0-.992-.08-1.985-.08-2.977-.079-5.267-.079-10.535-.158-15.726 0-1.603-.237-4.809-1.66-5.954-.632-.458-1.343-.153-3.161.458-3.636 1.221-6.876 2.52-10.59 4.199-.949.534-1.344.61-1.423 1.145-.158.763.316 2.519 1.027 3.358ZM15.317 66.242c1.897-.916.79-3.893.238-5.496-.475-1.527-1.107-3.054-1.897-4.351-.553-1.07-1.344-1.833-2.845-1.909.158 1.298.474 2.596.79 3.893.553 0 .79.153 1.106.535.553.763.87 1.603 1.028 2.443.079.687.079 1.145-.237 1.755.316.611.71 1.298 1.027 1.909.237.381.474.763.79 1.221Zm139.574-42.215c15.727 0 28.452 12.214 28.452 27.253s-12.725 27.253-28.452 27.253c-7.271 0-13.831-2.596-18.889-6.87 4.821-6.719 7.587-14.887 7.587-23.742a40.196 40.196 0 0 0-4.821-19.16c4.584-2.978 10.116-4.734 16.123-4.734Z" fill="#2B5DA8"/><path d="M38.251 37.724v24.521c.015.211.031.352.05.45.122-.002.308-.02.591-.07l.013-.001.013-.002c.958-.132 2.107-.68 2.763-.996.15-.073.293-.166.415-.276v-3.046c0-.477-.019-.958-.039-1.457v-.007c-.02-.49-.04-.997-.04-1.507m-3.766-17.61 3.766 17.604v.006m-3.766-17.61-1.104.445c-.735.296-1.547.603-2.39.922-2.323.879-4.891 1.85-6.793 2.94-.126.07-.234.125-.33.165a.987.987 0 0 1-.189.063c-.246-.306-.491-.82-.657-1.385-.178-.605-.21-1.078-.172-1.261l.005-.023.003-.017a4.209 4.209 0 0 1 .392-.228l.08-.042c.145-.077.32-.17.519-.28 3.68-1.663 6.887-2.947 10.483-4.155l.472-.159c.673-.228 1.11-.376 1.453-.444.33-.065.424-.024.492.023m-2.264 3.437 2.264-3.437m1.502 21.046c-.04-2.625-.06-5.25-.079-7.862v-.03c-.02-2.624-.04-5.236-.079-7.828v-.012c0-.77-.058-1.914-.28-2.986-.229-1.105-.594-1.938-1.064-2.328m1.502 21.046-1.502-21.046m-22.601 7.736v.01l.001.01c.166 1.76.58 3.273 1.056 4.881.475 1.683.954 3.301 1.514 4.925l.001.004c1.435 4.08 3.107 7.924 5.008 12.054l.009.021.01.02c.146.274.29.55.431.824.639 1.23 1.263 2.432 2.027 3.372.984 1.21 2.244 2.05 4.12 2.184.584.046 1.328-.039 2.144-.194a32.675 32.675 0 0 0 2.846-.703c2.097-.603 4.568-1.452 7.046-2.367 4.958-1.829 9.99-3.934 12.211-4.892l.005-.002c.463-.203.88-.414 1.25-.644.212.593.437 1.18.664 1.75-.384.134-.788.3-1.207.485-.516.226-1.086.494-1.698.781l-.935.437-.004.002c-6.13 2.885-12.461 5.297-19.083 6.501-.953.168-2.091.55-2.65 1.844-.352.793-.25 1.515.11 2.169.318.578.855 1.133 1.38 1.678l.008.007c.293.312.595.62.896.93l.077.078c-4.949-.88-9.713-3.01-13.668-6.292l1.16.037h.044l.045-.003c.09-.007.2-.013.321-.02.389-.021.904-.05 1.35-.149.62-.138 1.35-.455 1.743-1.251.316-.568.313-1.179.205-1.723-.108-.544-.339-1.11-.577-1.649l-.004-.008-.004-.008a38.094 38.094 0 0 0-.642-1.28l-.004-.007a36.819 36.819 0 0 1-.618-1.232l-.005-.01-.006-.011c-1.8-3.555-3.054-6.504-4.468-10.221-1.252-3.479-2.031-6.038-2.811-9.577l-.01-.053c-.071-.379-.14-.746-.265-1.108a4.529 4.529 0 0 0-.652-1.211l-.006-.009-.007-.008c-.233-.305-.522-.553-.877-.692a1.741 1.741 0 0 0-1.063-.06c-.624.153-1.176.607-1.621 1.057a9.615 9.615 0 0 0-.377.404c.949-3.344 2.562-6.536 4.74-9.376.118.396.361.716.688 1.032l.093.09.116.056c.66.318 1.246.332 1.805.157.354-.11.726-.317 1.035-.489.091-.05.177-.098.256-.14l.02-.01.018-.011c7.434-4.46 12.637-6.558 21.223-8.066l.025-.004.025-.006c.202-.049.395-.12.544-.173l.015-.005c.166-.06.282-.102.389-.127l.094-.023.085-.044c.591-.305 1.123-.632 1.428-1.09.367-.551.312-1.12.16-1.614a3.82 3.82 0 0 0-.185-.492c4.314.67 8.46 2.246 12.06 4.652-.676-.145-1.39-.296-2.037-.374l-.013-.002h-.014c-.837-.074-1.762-.124-2.471.158a1.885 1.885 0 0 0-.981.844c-.22.398-.289.86-.267 1.346.003.433.116.835.249 1.188.106.283.243.576.369.846l.088.19.004.01.005.008c1.466 2.982 2.924 5.946 4.234 8.907a42.462 42.462 0 0 0-.417 3.082 215.274 215.274 0 0 0-2.515-6.02c-.716-1.69-1.537-3.49-2.383-5.047-.833-1.532-1.74-2.924-2.647-3.714-1.032-.91-2.136-1.38-3.39-1.511-1.223-.13-2.554.068-4.041.417-5.29 1.239-10.249 3.172-15.034 5.56l-.01.005c-.355.184-.75.377-1.167.58-.802.39-1.678.817-2.475 1.282-1.233.718-2.454 1.619-3.23 2.852l-.007.012-.007.011c-.807 1.387-.985 2.7-.897 3.972Zm-3.128 18.962.004.012.004.012.05.143c.28.807.62 1.79.71 2.683.053.507.018.884-.095 1.16a57.458 57.458 0 0 1-.232-.371 48.788 48.788 0 0 0-.506-.938l-.002-.005c-.113-.205-.223-.405-.326-.599.237-.639.215-1.191.143-1.816l-.004-.029-.005-.028a6.82 6.82 0 0 0-1.166-2.766l-.016-.021-.016-.02c-.182-.22-.404-.453-.718-.614a1.8 1.8 0 0 0-.357-.136 40.26 40.26 0 0 1-.468-2.13c.122.057.23.123.329.195.321.236.586.58.829 1.048l.012.025.015.024c.747 1.226 1.355 2.688 1.816 4.171Zm140.105-36.152c15.316 0 27.648 11.885 27.648 26.448s-12.332 26.448-27.648 26.448c-6.806 0-12.966-2.335-17.802-6.213 4.649-6.733 7.304-14.836 7.304-23.594a40.987 40.987 0 0 0-4.567-18.878c4.332-2.656 9.486-4.211 15.065-4.211Z" stroke="#2B5DA8" stroke-opacity=".1" stroke-width="1.608"/><mask id="a" fill="#fff"><path fill-rule="evenodd" clip-rule="evenodd" d="M179.152 65.557c-.158.229-.237.382-.395.61.158-.152.316-.381.395-.61Zm.395-.61c-.079.228-.237.38-.316.534.079-.153.237-.306.316-.535Zm.238-.383c-.079.153-.158.306-.238.382.08-.153.159-.305.238-.382Zm.395-.687-.237.458c0-.076.079-.229.237-.458Zm.237-.534-.237.458.237-.458Zm.316-.534c-.079.076-.079.229-.158.305 0-.076.079-.229.158-.305Zm.237-.611c-.079.076-.079.229-.158.305.079-.152.158-.229.158-.305Zm.316-.61c0 .076-.079.152-.079.228l.079-.229Zm.237-.611c0 .076-.079.152-.079.229 0-.077 0-.153.079-.23ZM140.9 75.099c-.079-.076-.237-.153-.316-.153.079.077.237.077.316.153Zm16.834 3.512h-.316.316Zm-21.023-7.94c.079.611.237 1.298.316 1.909-.316-.305-.711-.534-1.027-.84.237-.381.474-.763.711-1.069Z"/></mask><path fill-rule="evenodd" clip-rule="evenodd" d="M179.152 65.557c-.158.229-.237.382-.395.61.158-.152.316-.381.395-.61Zm.395-.61c-.079.228-.237.38-.316.534.079-.153.237-.306.316-.535Zm.238-.383c-.079.153-.158.306-.238.382.08-.153.159-.305.238-.382Zm.395-.687-.237.458c0-.076.079-.229.237-.458Zm.237-.534-.237.458.237-.458Zm.316-.534c-.079.076-.079.229-.158.305 0-.076.079-.229.158-.305Zm.237-.611c-.079.076-.079.229-.158.305.079-.152.158-.229.158-.305Zm.316-.61c0 .076-.079.152-.079.228l.079-.229Zm.237-.611c0 .076-.079.152-.079.229 0-.077 0-.153.079-.23ZM140.9 75.099c-.079-.076-.237-.153-.316-.153.079.077.237.077.316.153Zm16.834 3.512h-.316.316Zm-21.023-7.94c.079.611.237 1.298.316 1.909-.316-.305-.711-.534-1.027-.84.237-.381.474-.763.711-1.069Z" fill="#000"/><path d="m179.152 65.557 1.521.525-2.844-1.439 1.323.914Zm-.395.61-1.324-.913 2.442 2.07-1.118-1.156Zm1.028-1.603 1.428.74-2.546-1.896 1.118 1.156Zm-.238.382-1.428-.74 2.546 1.897-1.118-1.157Zm.633-1.069 1.428.74-2.752-1.653 1.324.913Zm-.237.458h-1.609l3.037.74-1.428-.74Zm.632-1.221h-1.608v3.79l2.725-2.633-1.117-1.157Zm.395-.916h1.608v-3.79l-2.725 2.633 1.117 1.157Zm-.158.305-1.428-.74 2.545 1.897-1.117-1.157Zm.474-.916h1.609l-3.129-.524 1.52.524Zm-.079.23h-1.608l3.129.524-1.521-.525Zm.316-.84h1.609v-3.79l-2.726 2.633 1.117 1.157Zm-40.939 13.97v-1.609h-3.98l2.863 2.765 1.117-1.157Zm-3.873-4.276 1.595-.206-.496-3.832-2.369 3.052 1.27.986Zm.316 1.909-1.117 1.157 3.302 3.189-.59-4.552-1.595.206ZM136 71.74l-1.366-.849-.686 1.104.935.902L136 71.74Zm41.829-7.097c-.104.15-.181.275-.24.37-.06.096-.101.162-.156.24l2.648 1.828c.103-.15.181-.275.24-.37.059-.096.1-.161.155-.24l-2.647-1.828Zm2.046 2.681c.315-.305.625-.744.798-1.242l-3.041-1.05a1.47 1.47 0 0 1 .009-.023l.004-.008-.004.005a.154.154 0 0 1-.009.012l.008-.007 2.235 2.313Zm-1.848-2.903c.032-.091.07-.138.039-.093l-.032.045-.055.078c-.04.058-.109.162-.176.29l2.857 1.479c-.027.052-.048.08-.033.058l.029-.042.057-.08c.088-.127.244-.365.355-.685l-3.041-1.05Zm2.633 1.799c-.027.052-.048.08-.033.058l.029-.042.057-.08c.088-.127.244-.365.355-.685l-3.041-1.05c.032-.091.07-.138.039-.093l-.032.045-.055.078c-.04.058-.109.162-.176.29l2.857 1.479Zm-2.304-2.395a3.7 3.7 0 0 1-.049.095l-.025.045.02-.03a1.184 1.184 0 0 1 .128-.147l2.235 2.315c.201-.194.329-.405.385-.5.067-.114.128-.233.163-.3l-2.857-1.478Zm2.62 1.86a3.7 3.7 0 0 1 .049-.094l.025-.045c.004-.008-.002.005-.02.029a1.164 1.164 0 0 1-.128.147l-2.235-2.314a2.354 2.354 0 0 0-.385.5c-.067.113-.128.232-.163.299l2.857 1.479Zm-2.225-2.547-.237.458 2.857 1.479.237-.458-2.857-1.479Zm2.8 1.197a1.444 1.444 0 0 1-.073.454.825.825 0 0 1-.048.114c-.004.01.012-.024.073-.112l-2.647-1.827c-.097.14-.199.299-.282.46-.045.087-.24.45-.24.911h3.217Zm-2.562-1.731-.238.458 2.857 1.478.237-.458-2.856-1.478Zm2.619 1.936.237-.458-2.856-1.478-.238.458 2.857 1.478Zm-1.992-2.888a1.815 1.815 0 0 0-.453.703 1.422 1.422 0 0 0-.029.082c-.007.017-.005.012-.001.003.004-.01.015-.04.034-.08a1.36 1.36 0 0 1 .291-.403l2.234 2.314a1.833 1.833 0 0 0 .453-.703 1.45 1.45 0 0 0 .029-.082l.001-.003c-.004.01-.015.04-.034.08-.034.073-.12.238-.291.402l-2.234-2.313Zm2.567 1.462c0 .224-.05.384-.067.434-.023.07-.047.121-.063.153-.024.044-.08.146-.203.264l-2.234-2.313c-.202.195-.338.41-.42.57-.054.105-.229.45-.229.892h3.216Zm-2.33-2.073a1.836 1.836 0 0 0-.453.703 1.395 1.395 0 0 0-.029.082l-.001.003c.004-.01.015-.04.034-.08.034-.074.12-.238.291-.403l2.234 2.314a1.815 1.815 0 0 0 .453-.703c.014-.037.026-.07.029-.082.007-.017.005-.012.001-.003-.004.01-.015.04-.034.08-.034.074-.12.238-.291.403l-2.234-2.314Zm2.387 2.202-.004.008.016-.024.035-.056c.024-.039.09-.146.149-.284.063-.148.142-.387.142-.689h-3.216a1.458 1.458 0 0 1 .172-.689l.02-.036-.002.004-.01.016-.038.06a2.803 2.803 0 0 0-.12.21l2.856 1.48Zm-2.562-1.656c0-.254.065-.442.097-.525.017-.044.033-.077.039-.091.006-.012.011-.021.004-.009a2.08 2.08 0 0 0-.098.215c-.047.12-.121.347-.121.64h3.217a1.45 1.45 0 0 1-.137.616l-.004.008.033-.066a1.759 1.759 0 0 0 .187-.788h-3.217Zm3.05.754.079-.229-3.041-1.05-.079.23 3.041 1.049Zm-2.813-1.364c0-.254.065-.443.097-.525.017-.045.033-.078.039-.092.006-.012.011-.021.005-.008l-.034.065a1.764 1.764 0 0 0-.186.788h3.217a1.452 1.452 0 0 1-.137.617l-.004.008.033-.065a1.759 1.759 0 0 0 .187-.788h-3.217Zm3.138.229c0-.07.008.096-.042.288-.064.248-.196.47-.37.64l-2.235-2.314c-.597.576-.57 1.277-.57 1.386h3.217Zm-41.036 12.736c-.2-.193-.419-.32-.576-.396a1.994 1.994 0 0 0-.857-.208v3.217a1.36 1.36 0 0 1-.401-.058.977.977 0 0 1-.239-.11 1.09 1.09 0 0 1-.161-.131l2.234-2.314Zm-2.55 2.161a1.848 1.848 0 0 0 .7.423l.082.028.007.002a1.367 1.367 0 0 1-.473-.3l2.234-2.314a1.848 1.848 0 0 0-.7-.423l-.082-.027-.007-.002a1.367 1.367 0 0 1 .473.3l-2.234 2.313Zm18.267.9h-.316v3.216h.316v-3.217Zm-.316 3.216h.316v-3.217h-.316v3.217Zm-22.302-9.341c.046.354.114.721.171 1.037.061.333.112.615.145.871l3.19-.412c-.045-.355-.113-.722-.17-1.037-.061-.334-.113-.616-.146-.872l-3.19.413Zm3.029.545c-.242-.234-.502-.426-.665-.549a4.15 4.15 0 0 1-.363-.29l-2.234 2.313c.242.234.501.426.665.549.192.144.288.219.362.29l2.235-2.313Zm-.779 1.166c.25-.402.44-.706.616-.931l-2.541-1.973c-.299.385-.582.845-.807 1.206l2.732 1.698Z" fill="#2B5DA8" fill-opacity=".1" mask="url(#a)"/><path fill-rule="evenodd" clip-rule="evenodd" d="M172.676 29.907c6.085 4.657 10.037 11.604 10.669 19.466-.079-1.374-.316-2.672-.632-3.97l-.395-.457c-.237-.382-.553-.764-.79-1.145-.475-.535-.87-1.07-1.344-1.68l-1.423-1.374c-1.264-1.069-2.213-1.527-3.082-.229-.316.458-.474 1.145-.553 1.832-.869 5.878-1.818 11.68-3.24 17.405-.317 1.45-1.265 3.893-1.502 5.802-.237 2.366.711 2.9 2.845 2.824 1.186-.152 2.45-.305 3.636-.458l.79-.152 1.185-1.603c-4.583 6.794-12.171 11.526-20.864 12.366 1.422-.152 2.845-.382 4.188-.763l.87-1.527c2.529-5.267.158-5.038-4.742-5.649-6.402-.84-12.804-2.137-18.731-4.58l-.158-.076a30.91 30.91 0 0 0 1.264-2.825c5.375 1.908 17.151 4.046 20.944 4.657 2.134.229 3.399.076 4.505-1.145 1.423-1.527 1.581-3.283 2.055-5.191 1.185-4.657 2.292-9.314 3.161-13.97.633-3.36 1.265-7.252.791-9.084-.554-2.214-2.134-3.13-4.821-4.123-4.742-1.68-9.722-2.671-14.701-3.206-2.371-.229-5.374-.84-7.587.153-1.185.534-1.897 1.298-2.371 2.29a17.991 17.991 0 0 0-1.027 2.138c-.712-2.367-1.739-4.734-2.925-6.87 3.873-2.596 8.378-4.2 13.357-4.658-1.423.153-2.924.382-4.268.764l-.711.763c-.474.687-.711.84-.632 1.603.474.916 1.185.764 2.134.84 8.377.229 13.751 1.221 21.418 4.428l.948.229c1.265.152 1.66-.077 1.897-.764.158-.534.158-.916.158-1.45v-.382c-.079 0-.237-.152-.316-.229Zm-.553-.458c.158.076.237.153.395.305-.158-.076-.316-.152-.395-.305Zm-.633-.382c.158.077.237.153.396.23-.159-.077-.238-.153-.396-.23Zm-.474-.381c.158.076.237.152.395.229-.158 0-.237-.153-.395-.23Zm-.632-.382c.158.076.237.153.395.23-.158-.077-.237-.154-.395-.23Zm-.474-.305c.079.076.237.152.316.229-.079-.077-.237-.153-.316-.23Zm-.633-.382c.079.076.238.153.317.153-.079 0-.238-.077-.317-.153Zm-.553-.305c.079.076.158.076.237.152-.079 0-.158-.076-.237-.152Z" fill="#FECC00"/><path fill-rule="evenodd" clip-rule="evenodd" d="M183.264 53.42c-.079 1.221-.317 2.442-.554 3.664l-.158-.153c-.395-.229-.553-.381-.948-.152-.79.381-1.028 1.755-1.107 2.977-.079.763 0 1.755-.079 2.519-.079.458-.079.382-.553.458-1.106.076-1.422-.305-1.501-.992-.159-1.222 0-2.52.158-3.741.237-1.68.553-2.977 1.264-4.428.316-.534.711-1.374 1.423-1.45.632-.153 1.422.61 2.055 1.298Zm-34.775-15.192c-.079-.992.474-2.595 1.106-3.282.316-.305.712-.23 1.739-.153 3.794.535 7.034 1.145 10.591 2.061 1.738.458 2.529.611 2.766 1.298.553 1.603-1.028 4.199-1.897 5.496-2.845 4.199-5.611 8.321-8.457 12.52-.474.763-1.027 1.603-1.501 2.366-.633.916-1.265 1.756-1.818 2.672-.395.076-.711.076-1.107.076-.711-.076-2.054-.229-3.003-.687-1.185-.534-1.185-.763-.632-1.679 4.189-6.183 8.457-12.29 12.724-18.474-2.845-.534-6.401-1.45-9.247-1.603-.711.077-1.264 0-1.264-.61Zm19.6-11.221c.079.076.158.076.316.152-.079-.076-.237-.076-.316-.152Z" fill="#FECC00"/><path d="M99.88 91.512c25.923 0 47.025-19.542 47.025-43.512S125.803 4.487 99.88 4.487 52.856 24.03 52.856 48 73.957 91.512 99.88 91.512Z" fill="#fff"/><path fill-rule="evenodd" clip-rule="evenodd" d="M123.595 15.709c7.745 5.19 13.12 12.672 15.728 21.603-.079-.152-.079-.305-.158-.458l-.633-.687c-.395-.534-.869-.992-1.264-1.526-.712-.764-1.423-1.527-2.055-2.29-.711-.611-1.423-1.222-2.134-1.909-1.976-1.374-3.398-2.061-4.426-.076-.395.687-.553 1.68-.632 2.672-.711 8.473-1.502 16.947-3.003 25.344-.396 2.06-1.502 5.725-1.581 8.55-.158 3.435 1.264 4.122 4.426 3.893 1.739-.306 3.477-.687 5.216-.993l1.106-.305c.712-1.069.554-.687 1.186-1.756-4.9 9.008-12.487 14.428-22.604 17.634l1.107-2.214c3.161-7.862-.237-7.252-7.429-7.786-9.326-.61-18.652-1.909-27.504-4.962-1.186-.382-2.292-.61-3.478.305-1.343.993-1.027 2.29-.553 4.352.395 1.603.79 3.206 1.107 4.809-7.587-5.191-13.199-12.825-15.728-21.756l1.027.763 2.925 1.68c1.185.61 2.687 1.45 4.03.686.87-.534 1.186-1.832 1.423-3.435.08-1.297.158-2.519.237-3.817.395-5.42.949-9.847 1.976-15.19.948-4.963 1.897-8.627 3.478-13.436.395-1.069.71-1.756.553-2.901-.395-2.977-5.138-.305-8.22.992l-.079.077c4.9-6.031 11.618-10.688 19.284-13.207l-.948 1.222c-.632.992-.948 1.221-.79 2.442.79 1.222 1.817.993 3.161.993 12.013-.382 19.916.61 31.376 4.504.475.076.87.152 1.344.229 1.818.076 2.371-.23 2.687-1.298.237-.763.158-1.298.079-2.061v-.535c-.237-.152-.079-.076-.237-.152Z" fill="#FECC00"/><path fill-rule="evenodd" clip-rule="evenodd" d="M58.942 49.83c0-.61-.079-1.297-.079-1.908 0-.992 0-1.985.08-2.977.79-.458 1.185-.992 1.501-1.909.474-1.145.632-2.29.553-3.587-.079-.687-.316-.993-.87-1.374a39.101 39.101 0 0 1 1.74-5.115c1.66 1.069 2.134 2.52 2.054 4.122 0 2.061-.316 4.275-.869 6.413-.395 2.213-1.185 6.565-4.11 6.336Z" fill="#2B5DA8"/><path d="M61.045 37.775c.337-1.198.715-2.36 1.16-3.51.274.283.47.582.609.888.249.55.34 1.177.304 1.89v.04c0 1.982-.306 4.128-.845 6.21l-.007.03-.006.03c-.2 1.124-.483 2.663-1.045 3.89-.418.912-.905 1.484-1.503 1.697a25.914 25.914 0 0 0-.006-.1v-.013c-.02-.33-.039-.628-.039-.905 0-.86 0-1.693.05-2.518.303-.215.564-.458.79-.748.303-.392.515-.835.69-1.334.52-1.267.688-2.53.603-3.922l-.002-.022-.002-.021c-.048-.423-.155-.804-.384-1.152a2.367 2.367 0 0 0-.367-.43Z" stroke="#2B5DA8" stroke-opacity=".1" stroke-width="1.608"/><path d="M80.283 23.266c.711-1.374 1.58-2.596 3.24-3.435 3.083-1.603 7.508-1.069 10.907-.916 7.271.305 14.542 1.297 21.497 3.358 3.952 1.146 6.323 2.367 7.35 5.497.869 2.595.316 8.244-.316 13.206-.869 6.794-2.055 13.588-3.24 20.382-.554 2.901-.554 5.344-2.529 7.71-1.502 1.909-3.32 2.214-6.402 2.062-6.56-.687-29.717-3.36-34.064-6.26-3.714-2.52-3.082-6.183-2.845-10.993.632-6.183 1.423-11.832 2.608-17.557a120.361 120.361 0 0 1 1.66-6.794c.632-2.061 1.106-4.199 2.134-6.26Z" fill="#fff"/><path fill-rule="evenodd" clip-rule="evenodd" d="M140.823 48.533c0 1.832-.158 3.588-.474 5.267l-.237-.229c-.553-.229-.791-.458-1.423-.152-1.027.61-1.264 2.595-1.264 4.35 0 1.07.158 2.52.158 3.589 0 .687-.079.61-.712.763-1.58.23-2.054-.305-2.212-1.374-.317-1.756-.238-3.588-.159-5.344.238-2.442.554-4.35 1.423-6.488.395-.84.948-1.985 1.976-2.214.711-.153 1.897.84 2.924 1.832Zm-51.53-18.855c-.237-1.45.474-3.817 1.265-4.81.395-.534.948-.458 2.45-.381 5.532.458 10.274.992 15.49 1.984 2.529.458 3.715.611 4.11 1.604.949 2.29-1.027 6.183-2.213 8.168-3.635 6.26-7.35 12.519-10.986 18.779-.632 1.145-1.343 2.366-1.975 3.511-.79 1.374-1.581 2.672-2.371 4.046a5.26 5.26 0 0 1-1.581.23c-1.027 0-2.924-.154-4.347-.688-1.818-.687-1.739-.992-1.106-2.366 5.532-9.237 10.985-18.474 16.518-27.711-4.11-.534-9.405-1.527-13.436-1.45-.87 0-1.739-.077-1.818-.916Z" fill="#2B5DA8"/><path d="M139.742 52.546a1.951 1.951 0 0 0-.132-.035c-.424-.098-.829-.03-1.27.183l-.032.015-.03.018c-.807.48-1.189 1.411-1.389 2.252-.208.88-.268 1.887-.268 2.79 0 .56.04 1.21.079 1.828l.001.017c.039.62.076 1.207.078 1.703l-.058.013c-.7.097-.946-.01-1.024-.065-.063-.044-.174-.167-.243-.636l-.002-.012-.002-.012c-.296-1.646-.226-3.381-.147-5.145.233-2.392.539-4.204 1.357-6.223.198-.42.401-.836.656-1.175.251-.333.494-.512.742-.572a.59.59 0 0 1 .166.044c.146.056.334.16.563.316.383.263.806.627 1.23 1.026a28.143 28.143 0 0 1-.275 3.67ZM90.094 29.602l-.003-.027-.004-.027c-.092-.563-.004-1.39.228-2.233.233-.845.572-1.569.872-1.946l.009-.011.008-.012c.035-.046.051-.054.057-.057a.556.556 0 0 1 .188-.04c.25-.026.59-.008 1.171.023l.334.017c5.513.457 10.22.988 15.394 1.972l.007.002.445.08c1.057.19 1.778.32 2.3.493.552.183.688.352.761.536l.004.01c.353.851.192 2.146-.323 3.627-.498 1.435-1.258 2.851-1.837 3.821l-.005.009a2309.762 2309.762 0 0 1-5.491 9.386c-1.838 3.13-3.676 6.261-5.495 9.393l-.004.007-.004.008c-.314.568-.647 1.155-.984 1.747v.002c-.335.588-.671 1.181-.989 1.756-.391.68-.782 1.342-1.177 2.009l-.001.002c-.34.574-.682 1.152-1.024 1.742-.32.074-.68.113-1.049.113-.987 0-2.772-.15-4.064-.636-.445-.168-.72-.294-.89-.398a1.034 1.034 0 0 1-.095-.065.992.992 0 0 1 .018-.072c.047-.16.138-.37.29-.703 2.76-4.607 5.499-9.213 8.237-13.819 2.747-4.62 5.493-9.237 8.259-13.854l.63-1.052-1.217-.158c-.967-.126-2.015-.28-3.105-.44-3.447-.507-7.32-1.076-10.441-1.018-.44 0-.736-.025-.92-.093a.313.313 0 0 1-.08-.04.234.234 0 0 1-.01-.054Zm-1.7 31.268h.001-.001Zm1.713-31.207-.002-.004a.012.012 0 0 1 .002.004Z" stroke="#2B5DA8" stroke-opacity=".1" stroke-width="1.608"/></svg>