<svg width="186" height="96" viewBox="0 0 186 96" fill="none" xmlns="http://www.w3.org/2000/svg"><path d="M178.603 50.414a38.53 38.53 0 0 1-6.416 22.438 27.05 27.05 0 0 1-41.552 3.247 12.727 12.727 0 0 1-11.77 7.112H95.287c-3.347.07-6.627-.94-9.355-2.88a11.973 11.973 0 0 1-5.044-9.818c0-3.826 1.875-7.672 5.701-11.789l.348-.348c3.537-3.363 4.677-4.522 5.025-4.909.039-.038.058-.077.097-.096a12.672 12.672 0 0 1-6.494-3.421L72.887 74.379a25.66 25.66 0 0 1-4.484 6.687 11.135 11.135 0 0 1-7.827 3.266 11.34 11.34 0 0 1-9.393-4.387 26.89 26.89 0 0 1-15.46 4.387 26.106 26.106 0 0 1-18.438-6.745 23.682 23.682 0 0 1-5.006-27.695 21.144 21.144 0 0 1 1.74-2.918 20.074 20.074 0 0 1-2.107-8.949 19.845 19.845 0 0 1 7.846-16.35 25.349 25.349 0 0 1 15.964-5.063 25.575 25.575 0 0 1 16.002 4.986 20 20 0 0 1 7.828 16.427 20.237 20.237 0 0 1-2.126 8.968c.62.86 1.175 1.764 1.662 2.706.02.019.02.058.038.077l12.06-23.211a35.304 35.304 0 0 1 3.19-5.218 11.681 11.681 0 0 1 18.282-.638 25.962 25.962 0 0 1 14.534-4.097 23.672 23.672 0 0 1 16.543 6.262 22.488 22.488 0 0 1 4.233 5.276c.019-.02.019-.039.038-.058a27.019 27.019 0 0 1 44.181-.04 38.576 38.576 0 0 1 6.416 22.362Z" fill="#59057D"/><path d="M176.131 45.467a38.532 38.532 0 0 1-6.417 22.438 27.046 27.046 0 0 1-31.693 9.729 27.05 27.05 0 0 1-9.859-6.483 12.724 12.724 0 0 1-11.77 7.113H92.814c-3.346.069-6.626-.94-9.354-2.88a11.971 11.971 0 0 1-5.044-9.818c0-3.827 1.874-7.673 5.7-11.79l.349-.347c3.536-3.363 4.677-4.522 5.025-4.909.038-.039.058-.077.096-.097a12.671 12.671 0 0 1-6.493-3.42L70.414 69.43a25.662 25.662 0 0 1-4.483 6.687 11.135 11.135 0 0 1-7.828 3.267 11.338 11.338 0 0 1-9.392-4.388 26.89 26.89 0 0 1-15.462 4.388 26.106 26.106 0 0 1-18.437-6.745 23.682 23.682 0 0 1-5.006-27.695 21.125 21.125 0 0 1 1.74-2.919 20.074 20.074 0 0 1-2.107-8.948 19.843 19.843 0 0 1 7.847-16.35 25.349 25.349 0 0 1 15.963-5.064 25.575 25.575 0 0 1 16.003 4.987 20 20 0 0 1 7.827 16.427 20.237 20.237 0 0 1-2.126 8.968c.62.86 1.175 1.764 1.662 2.705.02.02.02.058.039.078l12.06-23.212a35.309 35.309 0 0 1 3.189-5.218 11.683 11.683 0 0 1 18.282-.638 25.962 25.962 0 0 1 14.534-4.097 23.677 23.677 0 0 1 16.544 6.262 22.511 22.511 0 0 1 4.232 5.276c.019-.019.019-.038.039-.058a27.025 27.025 0 0 1 22.08-11.48 27.023 27.023 0 0 1 22.1 11.442 38.577 38.577 0 0 1 6.417 22.36Z" fill="#8400BE"/><g filter="url(#a)" fill="#372F2F"><path d="M15.097 55.396a15.65 15.65 0 0 1 1.63-7.032 13.732 13.732 0 0 1 5.029-5.483 13.207 13.207 0 0 1-2.922-3.568 12.526 12.526 0 0 1-1.665-6.227 12.207 12.207 0 0 1 4.824-10.24A17.826 17.826 0 0 1 33.238 19.4a18.002 18.002 0 0 1 11.303 3.38 12.295 12.295 0 0 1 4.8 10.306 12.875 12.875 0 0 1-1.67 6.227 11.233 11.233 0 0 1-2.932 3.568 14.078 14.078 0 0 1 4.997 5.412 15.303 15.303 0 0 1 1.678 7.103 15.173 15.173 0 0 1-5.011 11.605 18.584 18.584 0 0 1-13.165 4.648 18.482 18.482 0 0 1-13.147-4.665 15.212 15.212 0 0 1-4.994-11.588Zm11.687-1.192a6.409 6.409 0 0 0 1.868 4.599 6.12 6.12 0 0 0 4.586 1.941 6.42 6.42 0 0 0 6.489-6.54 6.459 6.459 0 0 0-1.851-4.648 6.167 6.167 0 0 0-4.638-1.925 6.201 6.201 0 0 0-4.586 1.89 6.4 6.4 0 0 0-1.869 4.683Zm1.664-20.281a4.168 4.168 0 0 0 1.393 3.1 4.732 4.732 0 0 0 3.397 1.333 4.865 4.865 0 0 0 3.347-1.332 4.07 4.07 0 0 0 .05-6.232 5.038 5.038 0 0 0-6.76 0 4.09 4.09 0 0 0-1.427 3.13ZM54.203 67.88a9.822 9.822 0 0 1 1.19-3.806 98.1 98.1 0 0 0 1.46-2.853l18.719-36.045A30.88 30.88 0 0 1 77.95 21.2a3.908 3.908 0 0 1 3.057-1.8c2.605 0 3.907 1.245 3.907 3.736a7.81 7.81 0 0 1-.781 2.922c-.272.657-.895 1.914-1.869 3.77L63.546 65.876a20.423 20.423 0 0 1-2.99 4.688 3.455 3.455 0 0 1-2.446 1.087c-2.605 0-3.907-1.257-3.907-3.77ZM86.149 65.567c0-1.757 1.208-3.93 3.623-6.522 2.851-2.701 4.66-4.472 5.428-5.312 2.612-2.883 5.212-5.766 7.801-8.649 3.69-4.517 5.535-7.854 5.536-10.01a4.89 4.89 0 0 0-1.169-3.644 4.713 4.713 0 0 0-3.397-1.124c-2.66 0-4.614 1.778-5.86 5.334-1.246 3.555-3.09 5.333-5.535 5.333a5.348 5.348 0 0 1-4.206-1.647 5.597 5.597 0 0 1-1.474-3.856 14.94 14.94 0 0 1 5.087-11.347 18.006 18.006 0 0 1 12.743-4.722 16.112 16.112 0 0 1 11.309 4.215 14.177 14.177 0 0 1 4.596 10.946 18.853 18.853 0 0 1-2.786 9.432 53.805 53.805 0 0 1-6.387 8.342c-4.297 4.7-6.624 7.265-6.983 7.696h12.035a4.897 4.897 0 0 1 3.879 1.586 5.504 5.504 0 0 1-.012 7.342 5.075 5.075 0 0 1-3.979 1.57H92.804a7.852 7.852 0 0 1-4.772-1.384 4.252 4.252 0 0 1-1.883-3.579ZM126.911 45.508a31.02 31.02 0 0 1 4.994-17.983 19.288 19.288 0 0 1 31.458-.006 30.87 30.87 0 0 1 5.028 17.972 30.799 30.799 0 0 1-5.028 18.006 19.248 19.248 0 0 1-15.728 8.153 19.255 19.255 0 0 1-15.73-8.148 30.914 30.914 0 0 1-4.994-17.994Zm11.686 0a23.99 23.99 0 0 0 1.869 9.965c1.63 3.515 4.02 5.272 7.168 5.272a7.654 7.654 0 0 0 7.168-5.204 24.543 24.543 0 0 0 1.903-10.033 23.46 23.46 0 0 0-1.903-9.897c-1.631-3.537-4.02-5.305-7.168-5.305a7.656 7.656 0 0 0-7.168 5.237 24.021 24.021 0 0 0-1.869 9.965Z"/></g><g filter="url(#b)"><path d="M14.8 55.086a15.652 15.652 0 0 1 1.63-7.033 13.732 13.732 0 0 1 5.029-5.482 13.207 13.207 0 0 1-2.922-3.568 12.526 12.526 0 0 1-1.665-6.228 12.206 12.206 0 0 1 4.825-10.24A17.825 17.825 0 0 1 32.94 19.09a18.003 18.003 0 0 1 11.303 3.38 12.295 12.295 0 0 1 4.8 10.306 12.877 12.877 0 0 1-1.67 6.228 11.232 11.232 0 0 1-2.932 3.568 14.078 14.078 0 0 1 4.997 5.412 15.301 15.301 0 0 1 1.678 7.103 15.173 15.173 0 0 1-5.011 11.604A18.585 18.585 0 0 1 32.94 71.34a18.483 18.483 0 0 1-13.147-4.666A15.213 15.213 0 0 1 14.8 55.086Zm11.687-1.192a6.407 6.407 0 0 0 1.868 4.598 6.12 6.12 0 0 0 4.586 1.942 6.42 6.42 0 0 0 6.49-6.54 6.46 6.46 0 0 0-1.852-4.649 6.167 6.167 0 0 0-4.638-1.925 6.202 6.202 0 0 0-4.586 1.89 6.398 6.398 0 0 0-1.868 4.684Zm1.664-20.282a4.167 4.167 0 0 0 1.393 3.101 4.731 4.731 0 0 0 3.397 1.333 4.865 4.865 0 0 0 3.347-1.333 4.069 4.069 0 0 0 .05-6.232 5.038 5.038 0 0 0-6.76 0 4.092 4.092 0 0 0-1.427 3.131Z" fill="#fff"/><path d="M54.207 67.57a9.822 9.822 0 0 1 1.19-3.805 97.97 97.97 0 0 0 1.46-2.854l18.719-36.045a30.88 30.88 0 0 1 2.378-3.975 3.906 3.906 0 0 1 3.057-1.8c2.605 0 3.907 1.245 3.907 3.737a7.81 7.81 0 0 1-.781 2.921c-.272.657-.895 1.914-1.869 3.771L63.55 65.565a20.423 20.423 0 0 1-2.99 4.688 3.455 3.455 0 0 1-2.445 1.087c-2.605 0-3.907-1.257-3.907-3.77Z" fill="#FECC00"/><path d="M85.852 65.255c0-1.757 1.208-3.931 3.623-6.523 2.851-2.7 4.66-4.471 5.429-5.312 2.61-2.883 5.211-5.766 7.8-8.648 3.69-4.518 5.535-7.855 5.536-10.011a4.89 4.89 0 0 0-1.169-3.644 4.713 4.713 0 0 0-3.397-1.123c-2.66 0-4.614 1.777-5.86 5.333-1.246 3.556-3.09 5.334-5.535 5.334a5.348 5.348 0 0 1-4.206-1.648 5.597 5.597 0 0 1-1.474-3.856 14.94 14.94 0 0 1 5.087-11.346 18.007 18.007 0 0 1 12.743-4.723 16.112 16.112 0 0 1 11.309 4.216 14.177 14.177 0 0 1 4.596 10.945 18.853 18.853 0 0 1-2.786 9.433 53.743 53.743 0 0 1-6.387 8.342c-4.296 4.7-6.624 7.264-6.983 7.695h12.035a4.897 4.897 0 0 1 3.879 1.587 5.504 5.504 0 0 1-.012 7.341 5.075 5.075 0 0 1-3.979 1.57H92.507a7.852 7.852 0 0 1-4.772-1.384 4.252 4.252 0 0 1-1.883-3.578ZM126.614 45.198a31.028 31.028 0 0 1 4.994-17.983 19.292 19.292 0 0 1 31.458-.006 30.871 30.871 0 0 1 5.028 17.972 30.799 30.799 0 0 1-5.028 18.005 19.249 19.249 0 0 1-24.586 5.996 19.254 19.254 0 0 1-6.872-5.99 30.92 30.92 0 0 1-4.994-17.994Zm11.686 0a23.99 23.99 0 0 0 1.869 9.965c1.631 3.514 4.02 5.271 7.168 5.271a7.654 7.654 0 0 0 7.168-5.203 24.543 24.543 0 0 0 1.903-10.033 23.46 23.46 0 0 0-1.903-9.898c-1.63-3.537-4.02-5.305-7.168-5.305a7.656 7.656 0 0 0-7.168 5.237 24.022 24.022 0 0 0-1.869 9.966Z" fill="#fff"/></g><defs><filter id="a" x="12.617" y="16.906" width="158.271" height="57.24" filterUnits="userSpaceOnUse" color-interpolation-filters="sRGB"><feFlood flood-opacity="0" result="BackgroundImageFix"/><feBlend in="SourceGraphic" in2="BackgroundImageFix" result="shape"/><feGaussianBlur stdDeviation="1.239" result="effect1_foregroundBlur_1624_1496"/></filter><filter id="b" x="14.797" y="16.595" width="153.316" height="54.763" filterUnits="userSpaceOnUse" color-interpolation-filters="sRGB"><feFlood flood-opacity="0" result="BackgroundImageFix"/><feBlend in="SourceGraphic" in2="BackgroundImageFix" result="shape"/><feColorMatrix in="SourceAlpha" values="0 0 0 0 0 0 0 0 0 0 0 0 0 0 0 0 0 0 127 0" result="hardAlpha"/><feOffset dy="-2.477"/><feGaussianBlur stdDeviation="1.239"/><feComposite in2="hardAlpha" operator="arithmetic" k2="-1" k3="1"/><feColorMatrix values="0 0 0 0 0 0 0 0 0 0 0 0 0 0 0 0 0 0 0.24 0"/><feBlend in2="shape" result="effect1_innerShadow_1624_1496"/></filter></defs></svg>