<svg width="186" height="96" viewBox="0 0 186 96" fill="none" xmlns="http://www.w3.org/2000/svg"><path fill-rule="evenodd" clip-rule="evenodd" d="M176.387 66.561c10.152-10.251 10.152-26.87 0-37.122-10.153-10.252-26.614-10.252-36.765 0-10.152 10.251-10.152 26.873 0 37.122 10.153 10.252 26.614 10.252 36.765 0Z" fill="url(#a)"/><path fill-rule="evenodd" clip-rule="evenodd" d="M142.949 69.404c12.105 4.371 23.161-11.171 25.035-17.954a249.559 249.559 0 0 1 6.278 3.528c1.106.813 2.677-.705 2.231-2.405-.929-2.95-2.093-5.776-3.387-8.58a268.287 268.287 0 0 0 4.315-6.412c.681-1.06-.45-2.72-1.653-2.558-2.368.348-4.264.61-6.632.95-1.63-2.45-5.686-8.806-8.889-8.831-.712.055-1.195.527-.951 1.37.742 3.022 1.124 5.58 1.331 8.688-3.463.479-6.927.955-10.39 1.43-2.193.319-2.554 2.97-.395 3.908 3.12 1.76 6.141 3.32 9.573 4.935-.862 7.016-7.722 22.657-16.463 21.929l-.003.002Z" fill="#FEFEFE"/><path d="M114.59 28.543c0-2.212.669-3.898 2.01-5.054 1.34-1.156 2.959-1.734 4.858-1.734 1.802 0 3.372.578 4.713 1.734 1.338 1.156 2.009 2.841 2.009 5.054v38.51c0 1.131-.195 2.139-.584 3.026-.391.884-.89 1.636-1.499 2.251a6.148 6.148 0 0 1-2.12 1.403 6.74 6.74 0 0 1-2.519.48c-1.168 0-2.313-.295-3.433-.884-1.122-.59-2.094-1.526-2.922-2.805l-13.298-19.992v16.893c0 2.213-.669 3.898-2.01 5.054-1.34 1.156-2.958 1.734-4.857 1.734-1.803 0-3.361-.578-4.676-1.734-1.315-1.156-1.973-2.841-1.973-5.054V28.842c0-1.081.182-2.066.547-2.95.366-.887.865-1.637 1.5-2.25a6.618 6.618 0 0 1 2.119-1.402c.78-.32 1.607-.48 2.483-.48 1.218 0 2.386.283 3.506.85 1.122.566 2.094 1.487 2.922 2.766L114.59 45.37V28.543ZM52.692 73.913c-4.697 0-7.051-2.41-7.051-7.218V29.266c0-4.807 2.35-7.217 7.05-7.217H76.84c2.24 0 3.987.71 5.223 2.126 1.244 1.421 1.863 3.111 1.863 5.066 0 1.954-.619 3.644-1.863 5.065-1.236 1.416-2.986 2.129-5.223 2.129H59.814v4.942h14.174c2.046 0 3.642.653 4.784 1.955 1.145 1.302 1.718 2.841 1.718 4.61 0 1.772-.573 3.309-1.718 4.61-1.145 1.303-2.742 1.956-4.784 1.956H59.814v5.016H76.84c2.24 0 3.982.701 5.223 2.103 1.242 1.403 1.863 3.086 1.863 5.054 0 1.967-.623 3.666-1.863 5.091-1.241 1.426-2.986 2.14-5.223 2.14H52.692ZM16.176 67.055c0 2.354-.706 4.144-2.12 5.349-1.411 1.205-3.069 1.808-4.968 1.808-1.947 0-3.616-.603-5.005-1.808C2.694 71.199 2 69.416 2 67.055V28.839c0-2.263.697-4.011 2.083-5.237 1.386-1.226 3.055-1.846 5.005-1.846 1.899 0 3.557.618 4.968 1.846 1.41 1.226 2.12 2.98 2.12 5.237v12.246l11.617-16.599c.71-1.014 1.453-1.75 2.302-2.14.85-.39 1.912-.592 3.177-.592 2.338 0 4.152.678 5.444 2.029 1.29 1.353 1.936 3.062 1.936 5.128 0 .836-.124 1.65-.366 2.435-.241.785-.699 1.446-1.241 2.066l-11.91 13.574 11.983 15.491c1.108 1.432 1.681 2.928 1.681 4.501 0 2.213-.68 3.972-2.046 5.275-1.364 1.302-3.14 1.954-5.334 1.954a7.08 7.08 0 0 1-3.032-.663c-.95-.444-1.757-1.166-2.449-2.14l-11.762-16.6V67.056Z" fill="#fff"/><defs><radialGradient id="a" cx="0" cy="0" r="1" gradientUnits="userSpaceOnUse" gradientTransform="matrix(-33.21854 32.09446 -32.09251 -33.21652 168.456 38.47)"><stop stop-color="#FCEA00"/><stop offset=".631" stop-color="#F39B18"/><stop offset="1" stop-color="#FCEA00"/></radialGradient></defs></svg>