<svg width="186" height="96" viewBox="0 0 186 96" fill="none" xmlns="http://www.w3.org/2000/svg"><path fill-rule="evenodd" clip-rule="evenodd" d="M176.385 66.562c10.152-10.252 10.152-26.873 0-37.123-10.153-10.252-26.613-10.252-36.764 0-10.151 10.25-10.151 26.873 0 37.123 10.153 10.25 26.613 10.25 36.764 0Z" fill="url(#a)"/><path d="M114.592 28.543c0-2.212.669-3.898 2.01-5.054 1.34-1.156 2.959-1.734 4.858-1.734 1.802 0 3.373.578 4.713 1.734 1.338 1.156 2.01 2.842 2.01 5.054v38.512c0 1.13-.196 2.138-.584 3.025-.391.885-.89 1.637-1.499 2.25a6.168 6.168 0 0 1-2.12 1.402c-.803.32-1.644.48-2.52.48-1.168 0-2.313-.294-3.433-.884-1.122-.59-2.095-1.525-2.922-2.805l-13.299-19.991v16.894c0 2.213-.669 3.898-2.01 5.055-1.338 1.156-2.959 1.734-4.858 1.734-1.802 0-3.361-.578-4.676-1.734-1.315-1.157-1.973-2.842-1.973-5.055V28.843c0-1.082.182-2.066.547-2.95.366-.886.865-1.638 1.5-2.25a6.617 6.617 0 0 1 2.12-1.403c.779-.32 1.606-.48 2.482-.48 1.219 0 2.387.283 3.507.85 1.122.566 2.094 1.487 2.922 2.767l13.225 19.991V28.543ZM52.698 73.912c-4.697 0-7.05-2.41-7.05-7.218v-37.43c0-4.807 2.35-7.217 7.05-7.217h24.146c2.24 0 3.987.71 5.224 2.127 1.244 1.42 1.862 3.11 1.862 5.065 0 1.955-.618 3.645-1.862 5.066-1.237 1.416-2.987 2.127-5.224 2.127H59.821v4.943h14.174c2.047 0 3.64.652 4.785 1.954 1.145 1.303 1.718 2.842 1.718 4.611 0 1.772-.573 3.309-1.718 4.611-1.145 1.302-2.743 1.955-4.785 1.955H59.821v5.017h17.023c2.24 0 3.982.701 5.224 2.103 1.242 1.403 1.862 3.086 1.862 5.054 0 1.967-.623 3.666-1.862 5.092-1.242 1.425-2.987 2.14-5.224 2.14H52.698ZM16.177 67.052c0 2.354-.706 4.144-2.12 5.349-1.412 1.205-3.07 1.808-4.969 1.808-1.947 0-3.616-.603-5.005-1.808C2.694 71.196 2 69.413 2 67.05V28.838c0-2.263.697-4.012 2.083-5.237 1.384-1.226 3.056-1.846 5.005-1.846 1.9 0 3.557.617 4.97 1.846 1.409 1.225 2.119 2.98 2.119 5.237v12.247l11.616-16.6c.71-1.014 1.453-1.75 2.301-2.14.85-.39 1.913-.59 3.178-.59 2.338 0 4.152.678 5.442 2.029s1.936 3.062 1.936 5.128c0 .836-.124 1.651-.366 2.434-.241.784-.699 1.446-1.241 2.066l-11.91 13.575 11.98 15.492c1.11 1.432 1.682 2.928 1.682 4.5 0 2.212-.681 3.972-2.047 5.274-1.363 1.303-3.14 1.955-5.334 1.955a7.082 7.082 0 0 1-3.033-.664c-.95-.444-1.756-1.166-2.446-2.14l-11.763-16.6v12.246l.005.003Z" fill="#fff"/><path d="M167.984 63.036c-.819.499-2.017.75-3.599.75h-12.28c-2.775 0-4.164-1.08-4.164-3.237 0-.868.499-1.878 1.499-3.027 1.665-1.85 3.316-3.7 4.955-5.549 1.998-2.243 3.594-4.163 4.787-5.76 1.332-1.792 1.998-3.306 1.998-4.541 0-.84-.23-1.535-.687-2.08-.458-.546-1.104-.82-1.936-.82-.722 0-1.357.258-1.904.77a3.291 3.291 0 0 0-.811.711c-.361.476-.778 1.282-1.249 2.417-.471 1.136-.86 1.9-1.166 2.292-.048.06-.101.118-.154.174-.384.213-.844.32-1.377.32-1.028 0-1.853-.343-2.476-1.03-.626-.688-.936-1.55-.936-2.585 0-.812.179-1.736.54-2.774a9.587 9.587 0 0 1 3.1-4.458l.161-.113c1.818-1.261 3.809-1.893 5.973-1.893 2.803 0 5.107.8 6.911 2.403 1.888 1.681 2.831 3.931 2.831 6.733 0 2.529-1.263 5.445-3.789 8.758-1.276 1.632-3.511 4.041-6.703 7.245h6.369c3.274 0 4.914 1.073 4.914 3.216 0 .868-.269 1.56-.807 2.078Z" fill="#FEFEFE"/><defs><radialGradient id="a" cx="0" cy="0" r="1" gradientUnits="userSpaceOnUse" gradientTransform="rotate(134.795 75.46 54.67) scale(40.061 40.0645)"><stop stop-color="#AEC928"/><stop offset=".71" stop-color="#0A823D"/><stop offset="1" stop-color="#AEC928"/></radialGradient></defs></svg>