<svg width="154" height="96" viewBox="0 0 154 96" fill="none" xmlns="http://www.w3.org/2000/svg"><path d="M150.423 56.928a22.57 22.57 0 0 0-3.102-5.062 24.133 24.133 0 0 0-3.059-3.563c-.393-.37-.808-.717-1.223-1.043a8.035 8.035 0 0 0 2.796-2.998 7.837 7.837 0 0 0 .926-4.174 7.843 7.843 0 0 0-1.406-4.038l-.437-.652c.262-.326.502-.652.742-1a14.934 14.934 0 0 0 2.382-8.32 14.928 14.928 0 0 0-2.382-8.277 14.34 14.34 0 0 0-.939-1.304 15.054 15.054 0 0 0-6.553-5.366 21.117 21.117 0 0 0-8.607-1.651h-9.917a7.805 7.805 0 0 0-4.369 1.303 7.895 7.895 0 0 0-4.369-1.303H94.479c-1.2 0-2.383.274-3.459.801a7.812 7.812 0 0 0-2.745 2.24 16.255 16.255 0 0 0-2.534-1.39 20.94 20.94 0 0 0-8.585-1.651h-9.94a7.938 7.938 0 0 0-4.543 1.434 7.894 7.894 0 0 0-4.544-1.434h-3.255a7.94 7.94 0 0 0-4.04 1.104 7.884 7.884 0 0 0-2.906 3.002l-.35-.391a7.846 7.846 0 0 0-2.857-2.721 7.898 7.898 0 0 0-3.827-.994H37.53a7.869 7.869 0 0 0-4.959 1.781 9.126 9.126 0 0 0-1.027-.521 23.932 23.932 0 0 0-3.407-1.065 28.964 28.964 0 0 0-6.423-.717 21.642 21.642 0 0 0-8.738 1.652 14.84 14.84 0 0 0-6.466 5.127 13.092 13.092 0 0 0-2.184 7.517 12.222 12.222 0 0 0 1.66 6.517c.334.572.721 1.11 1.158 1.608A7.945 7.945 0 0 0 5.92 33.29l-.787 1.781a7.825 7.825 0 0 0 1.376 8.451c.118.216.257.42.415.609a7.852 7.852 0 0 0-2.245 2.733 7.808 7.808 0 0 0-.813 3.437v29.763a7.734 7.734 0 0 0 2.185 5.323 7.868 7.868 0 0 0 2.792 2.64 7.919 7.919 0 0 0 3.717 1.01h21.845a7.92 7.92 0 0 0 4.058-1.138 7.86 7.86 0 0 0 2.889-3.055 23.61 23.61 0 0 0 5.832 3.193 27.241 27.241 0 0 0 9.612 1.673c3.296.031 6.569-.543 9.655-1.694a23.678 23.678 0 0 0 7.864-4.867 22.921 22.921 0 0 0 5.308-7.452c.424-.972.775-1.974 1.049-2.998V80a7.734 7.734 0 0 0 2.184 5.323 7.868 7.868 0 0 0 2.859 2.718 7.92 7.92 0 0 0 3.826.997h5.57a7.95 7.95 0 0 0 5.585-2.31 7.865 7.865 0 0 0 2.323-5.555v-9.45a20.4 20.4 0 0 0 .961 2.737 22.656 22.656 0 0 0 2.971 5.04 24.741 24.741 0 0 0 3.102 3.585 24.174 24.174 0 0 0 7.951 4.91 27.248 27.248 0 0 0 9.612 1.673 26.71 26.71 0 0 0 9.633-1.695 23.78 23.78 0 0 0 7.886-4.866 22.889 22.889 0 0 0 5.385-7.679 22.78 22.78 0 0 0 1.846-9.18 22.687 22.687 0 0 0-1.944-9.32Z" fill="#1E2866"/><path d="M148.305 54.256a23.811 23.811 0 0 0-3.102-5.062 23.08 23.08 0 0 0-3.08-3.563c-.371-.37-.808-.695-1.223-1.043a7.776 7.776 0 0 0 2.818-2.998 7.833 7.833 0 0 0-.481-8.125l-.437-.652c.26-.319.501-.652.721-.999a14.706 14.706 0 0 0 2.403-8.32 14.925 14.925 0 0 0-2.381-8.365 19.523 19.523 0 0 0-1.005-1.347 14.992 14.992 0 0 0-6.553-5.323 21.29 21.29 0 0 0-8.585-1.65h-9.874a7.94 7.94 0 0 0-4.369 1.303 7.785 7.785 0 0 0-4.369-1.304H92.296a7.944 7.944 0 0 0-3.466.806 7.9 7.9 0 0 0-2.76 2.236c-.796-.534-1.636-1-2.512-1.39a21.291 21.291 0 0 0-8.585-1.652h-9.874a7.871 7.871 0 0 0-4.565 1.456 7.696 7.696 0 0 0-4.522-1.456h-3.255a7.94 7.94 0 0 0-4.04 1.104 7.884 7.884 0 0 0-2.907 3.002l-.35-.39a7.845 7.845 0 0 0-2.856-2.722 7.898 7.898 0 0 0-3.828-.994H35.5A7.869 7.869 0 0 0 30.54 8.59a9.106 9.106 0 0 0-1.027-.522 24.847 24.847 0 0 0-3.407-1.064 28.965 28.965 0 0 0-6.51-.717 21.73 21.73 0 0 0-8.869 1.673 14.73 14.73 0 0 0-6.335 5.105 13.113 13.113 0 0 0-2.184 7.539 12.135 12.135 0 0 0 1.66 6.517c.31.54.661 1.055 1.048 1.543a8.12 8.12 0 0 0-1.201 1.912l-.787 1.781a7.826 7.826 0 0 0 1.355 8.43c.133.21.279.414.437.608a7.787 7.787 0 0 0-2.265 2.727 7.743 7.743 0 0 0-.815 3.443v29.763a7.69 7.69 0 0 0 2.184 5.323 7.867 7.867 0 0 0 2.858 2.719 7.92 7.92 0 0 0 3.826.996h21.845a7.896 7.896 0 0 0 4.056-1.126 7.84 7.84 0 0 0 2.89-3.045 24.287 24.287 0 0 0 5.833 3.172 28.545 28.545 0 0 0 19.267 0 23.744 23.744 0 0 0 7.864-4.889 22.917 22.917 0 0 0 5.177-7.495c.415-.975.765-1.977 1.049-2.998v7.343a7.69 7.69 0 0 0 2.184 5.323 7.866 7.866 0 0 0 2.859 2.719 7.92 7.92 0 0 0 3.826.996h5.57a7.93 7.93 0 0 0 5.584-2.296 7.844 7.844 0 0 0 2.324-5.547v-9.472c.251.935.573 1.85.961 2.737a22.652 22.652 0 0 0 3.102 5.084 23.266 23.266 0 0 0 10.988 8.495 28.545 28.545 0 0 0 19.245 0 24.056 24.056 0 0 0 7.886-4.889 23.408 23.408 0 0 0 6.772-12.287 23.325 23.325 0 0 0-1.486-13.935Z" fill="#454EA0"/><path d="M22.195 34.659a8.78 8.78 0 0 1-2.49.282 15.369 15.369 0 0 1-4.588-.717 22.128 22.128 0 0 1-2.184-.847 2.04 2.04 0 0 0-2.73 1l-.918 1.672a1.99 1.99 0 0 0 .365 2.197c.18.192.398.346.64.454a19.74 19.74 0 0 0 3.102 1.108c2.025.527 4.11.79 6.204.782 2.242.09 4.477-.303 6.553-1.152a8.73 8.73 0 0 0 3.845-3.063 7.25 7.25 0 0 0 1.288-4.193 6.488 6.488 0 0 0-.808-3.41 6.143 6.143 0 0 0-2.184-2.173 11.827 11.827 0 0 0-2.906-1.347c-1.07-.348-2.184-.608-3.189-.847l-2.927-.652a7.08 7.08 0 0 1-2.185-.826 1.547 1.547 0 0 1-.808-1.347c0-.433.146-.854.415-1.194a2.908 2.908 0 0 1 1.355-.848 8.455 8.455 0 0 1 2.6-.239c1.204 0 2.402.168 3.56.5.64.175 1.268.393 1.878.652a2.02 2.02 0 0 0 2.212-.447 2 2 0 0 0 .432-.661l.742-1.76a2.012 2.012 0 0 0-1.136-2.65c-.837-.333-1.699-.602-2.577-.804a21.962 21.962 0 0 0-5.068-.565 15.607 15.607 0 0 0-6.554 1.151 8.993 8.993 0 0 0-3.888 3.042 7.53 7.53 0 0 0-1.289 4.345 6.64 6.64 0 0 0 .83 3.454c.553.88 1.3 1.622 2.185 2.173a12.261 12.261 0 0 0 2.905 1.347c1.035.36 2.093.65 3.168.869 1.07.217 2.031.456 2.905.673.77.163 1.507.45 2.184.847a1.635 1.635 0 0 1 .83 1.412 1.58 1.58 0 0 1-.436 1.108 2.933 2.933 0 0 1-1.333.674ZM46.814 40.678c1.645.098 3.294-.13 4.85-.671a12.468 12.468 0 0 0 4.215-2.48 12.046 12.046 0 0 0 2.562-4.162c.56-1.547.796-3.191.693-4.832V16.085a2.015 2.015 0 0 0-.603-1.415 2.038 2.038 0 0 0-1.428-.584h-3.255c-.535 0-1.049.21-1.43.584-.38.374-.596.883-.602 1.415v12.231a7.053 7.053 0 0 1-1.31 4.801 4.588 4.588 0 0 1-3.627 1.456 4.655 4.655 0 0 1-3.648-1.456 6.945 6.945 0 0 1-1.332-4.801V16.085a2.016 2.016 0 0 0-.603-1.415 2.038 2.038 0 0 0-1.429-.584h-3.364c-.535 0-1.048.21-1.429.584-.38.374-.597.883-.602 1.415v12.448c-.109 1.638.12 3.28.672 4.827a12.047 12.047 0 0 0 2.539 4.168 12.487 12.487 0 0 0 4.246 2.49c1.568.54 3.228.765 4.885.66ZM71.583 33.356h4.566c2.13.045 4.245-.362 6.204-1.195a9.229 9.229 0 0 0 4.02-3.324 8.98 8.98 0 0 0 1.42-5.105 9.13 9.13 0 0 0-1.42-5.062 8.945 8.945 0 0 0-4.02-3.324 15.059 15.059 0 0 0-6.204-1.152h-9.961a2.02 2.02 0 0 0-1.435.578 1.996 1.996 0 0 0-.597 1.42v22.03a1.987 1.987 0 0 0 .597 1.421 2.009 2.009 0 0 0 1.435.578h3.364c.535 0 1.048-.21 1.429-.584.38-.374.597-.883.602-1.415v-4.866Zm7.602-12.514a3.519 3.519 0 0 1 1.136 2.824 3.522 3.522 0 0 1-1.136 2.868 5.242 5.242 0 0 1-3.473 1h-4.129v-7.648h4.107a5.132 5.132 0 0 1 3.495.956ZM110.425 34.464H98.847v-4.78h9.634c.535 0 1.048-.21 1.429-.583.38-.375.597-.883.602-1.415v-1.5c0-.535-.214-1.049-.595-1.428a2.036 2.036 0 0 0-1.436-.592h-9.634v-4.345h11.207a2.035 2.035 0 0 0 1.367-.651c.355-.385.546-.891.533-1.413v-1.672a2.017 2.017 0 0 0-.602-1.415 2.04 2.04 0 0 0-1.429-.584H93.43c-.535 0-1.049.21-1.429.584-.38.374-.597.883-.603 1.415v22.138c.006.532.223 1.04.603 1.414.38.374.894.584 1.429.584h16.995a2.017 2.017 0 0 0 1.877-1.228c.102-.244.155-.506.155-.77v-1.738c0-.536-.214-1.05-.595-1.429a2.038 2.038 0 0 0-1.437-.592ZM124.013 33.225h4.041l4.151 6.062a2.029 2.029 0 0 0 1.682.869h3.014c.369 0 .73-.1 1.046-.29a2.016 2.016 0 0 0 .636-2.86l-3.495-5.062a8.874 8.874 0 0 0 3.714-3.129 8.9 8.9 0 0 0 1.42-5.083 9.133 9.133 0 0 0-1.42-5.062 8.945 8.945 0 0 0-4.02-3.324 15.056 15.056 0 0 0-6.203-1.152h-9.962a2.017 2.017 0 0 0-1.876 1.229 1.996 1.996 0 0 0-.155.77v22.03a1.996 1.996 0 0 0 1.256 1.852c.246.1.51.149.775.146h3.365c.535 0 1.048-.21 1.428-.584.381-.374.597-.883.603-1.415v-4.997Zm7.602-12.383a3.512 3.512 0 0 1 1.136 2.824 3.522 3.522 0 0 1-1.136 2.868 5.242 5.242 0 0 1-3.473 1h-4.129v-7.648h4.107a5.131 5.131 0 0 1 3.495.956ZM16.213 46.912h-5.57a2.019 2.019 0 0 0-1.487.646 1.997 1.997 0 0 0-.523 1.527v29.763a1.99 1.99 0 0 0 .588 1.413 2.011 2.011 0 0 0 1.421.586h21.845a2.02 2.02 0 0 0 1.421-.585 1.998 1.998 0 0 0 .589-1.414v-3.693c0-.53-.212-1.039-.589-1.413a2.016 2.016 0 0 0-1.421-.586H18.222V49.085a1.987 1.987 0 0 0-.523-1.527 2.01 2.01 0 0 0-1.486-.646ZM68.266 51.258a17.49 17.49 0 0 0-5.942-3.693 20.941 20.941 0 0 0-7.536-1.304 21.182 21.182 0 0 0-7.537 1.304 17.75 17.75 0 0 0-5.963 3.693 16.73 16.73 0 0 0-3.954 5.562 17.294 17.294 0 0 0-1.124 10.396 17.354 17.354 0 0 0 5.078 9.157 18.103 18.103 0 0 0 5.985 3.693 21.182 21.182 0 0 0 7.537 1.303c2.571.032 5.126-.41 7.536-1.303a18.216 18.216 0 0 0 5.92-3.607 17.229 17.229 0 0 0 3.976-5.648 17.753 17.753 0 0 0 0-14.013 17.383 17.383 0 0 0-3.976-5.54ZM63.242 67.77a8.878 8.878 0 0 1-1.923 3.042 8.064 8.064 0 0 1-2.905 1.955 10.034 10.034 0 0 1-7.23 0 8.259 8.259 0 0 1-2.906-1.955 9.204 9.204 0 0 1-1.857-2.998 11.584 11.584 0 0 1 0-7.865 9.334 9.334 0 0 1 1.944-3.041 8.544 8.544 0 0 1 2.906-1.956 10.035 10.035 0 0 1 7.23 0 8.348 8.348 0 0 1 2.906 1.956 8.988 8.988 0 0 1 1.944 3.041 11.585 11.585 0 0 1 0 7.93l-.11-.109ZM77.003 54.56h8.41v24.18c.006.532.222 1.04.603 1.414.38.374.894.584 1.429.584h5.57a2.02 2.02 0 0 0 1.421-.585 2 2 0 0 0 .589-1.413V54.56h8.41a2.035 2.035 0 0 0 1.422-.6c.377-.378.588-.889.588-1.421v-3.454a1.994 1.994 0 0 0-1.198-2.006 2.022 2.022 0 0 0-.812-.167H77.003a2.018 2.018 0 0 0-1.421.586 1.999 1.999 0 0 0-.589 1.413v3.563a2.012 2.012 0 0 0 .564 1.463 2.032 2.032 0 0 0 1.446.622ZM139.171 51.258a17.495 17.495 0 0 0-5.942-3.693 22.441 22.441 0 0 0-15.073 0 17.745 17.745 0 0 0-5.985 3.693 16.715 16.715 0 0 0-3.954 5.562 17.294 17.294 0 0 0-1.124 10.396 17.348 17.348 0 0 0 5.078 9.157 18.099 18.099 0 0 0 5.985 3.693 22.441 22.441 0 0 0 15.073 0 18.22 18.22 0 0 0 5.942-3.672 17.388 17.388 0 0 0 4.005-5.737 17.298 17.298 0 0 0 0-13.683 17.389 17.389 0 0 0-4.005-5.737v.021Zm-5.025 16.511a9.201 9.201 0 0 1-1.944 3.042 8.255 8.255 0 0 1-2.905 1.955 9.527 9.527 0 0 1-3.626.674 9.417 9.417 0 0 1-3.605-.674 8.06 8.06 0 0 1-2.905-1.955 8.865 8.865 0 0 1-1.944-3.063 11.582 11.582 0 0 1 0-7.93 8.983 8.983 0 0 1 1.944-3.041 8.34 8.34 0 0 1 2.905-1.956 9.417 9.417 0 0 1 3.605-.673 9.527 9.527 0 0 1 3.626.673 8.542 8.542 0 0 1 2.905 1.956 9.319 9.319 0 0 1 1.944 3.041 11.582 11.582 0 0 1 0 7.93v.021Z" fill="#D32679"/><path d="M20.206 32.226a9.4 9.4 0 0 1-2.468.282 15.365 15.365 0 0 1-4.5-.803 15.807 15.807 0 0 1-2.185-.848 2.04 2.04 0 0 0-2.73 1l-.809 1.76a2.032 2.032 0 0 0-.035 1.544c.192.5.573.905 1.062 1.128.993.45 2.024.814 3.08 1.086 2.009.544 4.079.829 6.16.847a15.937 15.937 0 0 0 6.554-1.151 9.12 9.12 0 0 0 3.866-3.085 7.423 7.423 0 0 0 1.29-4.193 6.185 6.185 0 0 0-.695-3.2 6.226 6.226 0 0 0-2.233-2.405 12.264 12.264 0 0 0-2.905-1.347 40.777 40.777 0 0 0-3.19-.826l-2.927-.652a7.54 7.54 0 0 1-2.184-.825 1.568 1.568 0 0 1-.809-1.369 1.862 1.862 0 0 1 .415-1.195c.35-.403.815-.69 1.333-.825a7.86 7.86 0 0 1 2.49-.326c1.22.015 2.431.19 3.605.521.638.182 1.265.4 1.878.652.477.157.995.133 1.455-.068.46-.2.829-.563 1.036-1.018l.742-1.782a2.011 2.011 0 0 0-.478-2.223 2.032 2.032 0 0 0-.68-.427 17.54 17.54 0 0 0-2.555-.804 23.435 23.435 0 0 0-5.09-.565c-2.205-.063-4.4.33-6.444 1.152a8.728 8.728 0 0 0-3.78 3.063 7.25 7.25 0 0 0-1.288 4.345 6.64 6.64 0 0 0 .808 3.346 6.644 6.644 0 0 0 2.185 2.172c.903.58 1.88 1.041 2.905 1.369 1.032.326 2.082.595 3.145.804l2.906.673a7.54 7.54 0 0 1 2.184.869 1.59 1.59 0 0 1 .808 1.412c.01.402-.14.792-.415 1.086-.411.414-.935.701-1.507.826ZM44.912 38.222a12.493 12.493 0 0 0 4.854-.679 12.444 12.444 0 0 0 4.212-2.493 11.917 11.917 0 0 0 2.622-4.125 11.87 11.87 0 0 0 .742-4.825V13.65a1.99 1.99 0 0 0-.641-1.493 2.011 2.011 0 0 0-1.544-.527h-3.189a2.02 2.02 0 0 0-1.443.585 1.997 1.997 0 0 0-.589 1.435v12.21a7.162 7.162 0 0 1-1.31 4.823 4.7 4.7 0 0 1-3.648 1.433 4.785 4.785 0 0 1-3.648-1.433 7.162 7.162 0 0 1-1.333-4.823V13.65a1.99 1.99 0 0 0-.588-1.435 2.01 2.01 0 0 0-1.443-.585h-3.364a2.02 2.02 0 0 0-1.43.593 1.998 1.998 0 0 0-.58 1.427V26.1c-.108 1.637.126 3.28.686 4.824a11.916 11.916 0 0 0 2.569 4.148 12.443 12.443 0 0 0 4.214 2.481c1.557.54 3.206.768 4.851.67ZM69.689 30.901h4.565a14.97 14.97 0 0 0 6.204-1.173 8.836 8.836 0 0 0 4.063-3.374 8.762 8.762 0 0 0 1.398-5.077 9.281 9.281 0 0 0-1.42-5.149 9.186 9.186 0 0 0-4.04-3.345 15.366 15.366 0 0 0-6.205-1.152h-9.96c-.54 0-1.056.213-1.437.592s-.595.893-.595 1.428v22.052c0 .535.214 1.05.595 1.428.38.38.898.592 1.436.592h3.364c.54 0 1.056-.213 1.437-.592.38-.379.595-.892.595-1.428V30.9Zm7.58-12.448a3.563 3.563 0 0 1 1.158 2.824 3.545 3.545 0 0 1-1.158 2.803 5.066 5.066 0 0 1-3.452.999H69.69v-7.626h4.129a5.066 5.066 0 0 1 3.451 1ZM108.542 32.01H96.856v-4.65h9.611c.539 0 1.056-.213 1.437-.592s.595-.893.595-1.428v-1.478a1.99 1.99 0 0 0-.589-1.435 2.005 2.005 0 0 0-1.443-.585h-9.611v-4.345h11.206c.533 0 1.044-.21 1.421-.586.377-.375.589-.883.589-1.413V13.65a2 2 0 0 0-2.01-2.02H91.525a2.018 2.018 0 0 0-1.428.593 1.997 1.997 0 0 0-.581 1.427v22.051c0 .532.21 1.043.587 1.422.376.378.887.593 1.422.599h17.017c.539 0 1.056-.213 1.437-.592s.595-.893.595-1.429V34.03c0-.536-.214-1.05-.595-1.43a2.038 2.038 0 0 0-1.437-.59ZM122.115 30.794h4.041l4.172 6.04a1.99 1.99 0 0 0 1.66.89h3.037a2.034 2.034 0 0 0 1.793-1.088 2.01 2.01 0 0 0-.133-2.084l-3.495-5.019a8.721 8.721 0 0 0 3.84-3.335 8.656 8.656 0 0 0 1.315-4.898 9.28 9.28 0 0 0-1.42-5.15 9.183 9.183 0 0 0-4.041-3.345 15.365 15.365 0 0 0-6.204-1.151h-9.961c-.539 0-1.055.212-1.436.591a2.015 2.015 0 0 0-.595 1.429v22.03c0 .535.214 1.05.595 1.428.381.379.897.592 1.436.592h3.364c.539 0 1.056-.213 1.437-.592s.595-.893.595-1.429v-4.91Zm7.58-12.34a3.561 3.561 0 0 1 1.158 2.824 3.562 3.562 0 0 1-1.158 2.802 5.024 5.024 0 0 1-3.452 1h-4.128v-7.626h4.128a5.023 5.023 0 0 1 3.452 1ZM14.307 44.523h-5.57a2.038 2.038 0 0 0-1.423.6 2.015 2.015 0 0 0-.587 1.42v29.743c0 .532.21 1.043.587 1.42.376.38.887.594 1.422.6h21.845a2.037 2.037 0 0 0 1.422-.6c.377-.377.588-.888.588-1.42v-3.563A1.99 1.99 0 0 0 32 71.31a2.009 2.009 0 0 0-1.42-.586H16.338v-24.18c0-.536-.214-1.05-.595-1.429a2.037 2.037 0 0 0-1.436-.592ZM66.408 48.846a17.906 17.906 0 0 0-5.941-3.693 22.44 22.44 0 0 0-15.073 0 17.885 17.885 0 0 0-5.986 3.693 16.945 16.945 0 0 0-3.91 5.562 17.946 17.946 0 0 0 0 13.99c.92 2.111 2.266 4.012 3.954 5.584a17.884 17.884 0 0 0 5.985 3.694 22.44 22.44 0 0 0 15.073 0 17.84 17.84 0 0 0 5.942-3.672 16.88 16.88 0 0 0 4.029-5.734 16.8 16.8 0 0 0 1.345-6.867 17.297 17.297 0 0 0-1.376-6.995 17.972 17.972 0 0 0-4.042-5.562ZM61.384 65.38a9.658 9.658 0 0 1-1.857 3.063 8.543 8.543 0 0 1-2.905 1.956 9.965 9.965 0 0 1-3.626.673 9.836 9.836 0 0 1-3.605-.673 8.742 8.742 0 0 1-2.927-1.956 9.617 9.617 0 0 1-1.922-3.063 10.571 10.571 0 0 1-.721-3.976 10.4 10.4 0 0 1 .72-3.975 9.509 9.509 0 0 1 1.923-3.042 8.742 8.742 0 0 1 2.927-1.955 9.833 9.833 0 0 1 3.583-.674 9.965 9.965 0 0 1 3.626.674 8.543 8.543 0 0 1 2.905 1.955 9.55 9.55 0 0 1 1.944 3.042c.481 1.27.718 2.618.7 3.975a11.007 11.007 0 0 1-.765 3.976ZM75.168 52.105h8.389v24.18c0 .533.21 1.044.587 1.422.376.378.887.593 1.422.6h5.57a2.037 2.037 0 0 0 1.423-.6c.376-.378.587-.89.587-1.421v-24.18h8.367c.539 0 1.055-.213 1.436-.592.381-.38.595-.893.595-1.429v-3.541c0-.536-.214-1.05-.595-1.429a2.036 2.036 0 0 0-1.436-.592H75.168c-.539 0-1.055.213-1.436.592-.381.38-.595.893-.595 1.429v3.541a2.01 2.01 0 0 0 .595 1.429 2.032 2.032 0 0 0 1.436.591ZM137.268 48.846a17.903 17.903 0 0 0-5.942-3.693 22.375 22.375 0 0 0-15.051 0 17.98 17.98 0 0 0-6.007 3.693 17.383 17.383 0 0 0-3.997 5.734 17.298 17.298 0 0 0 0 13.67 17.383 17.383 0 0 0 3.997 5.733 17.977 17.977 0 0 0 6.051 3.693 22.375 22.375 0 0 0 15.051 0 17.838 17.838 0 0 0 5.942-3.672 17.016 17.016 0 0 0 4.029-5.736 16.923 16.923 0 0 0 1.366-6.864 16.837 16.837 0 0 0-1.441-6.996 17.626 17.626 0 0 0-3.998-5.562Zm-5.024 16.533a9.305 9.305 0 0 1-1.944 3.064 8.346 8.346 0 0 1-2.906 1.955 9.833 9.833 0 0 1-3.604.673 9.967 9.967 0 0 1-3.626-.673 8.547 8.547 0 0 1-2.906-1.955 9.68 9.68 0 0 1-1.944-3.064 11.014 11.014 0 0 1-.699-3.975 10.84 10.84 0 0 1 .699-3.976 9.567 9.567 0 0 1 1.944-3.042 8.547 8.547 0 0 1 2.906-1.955 9.967 9.967 0 0 1 3.626-.673 9.833 9.833 0 0 1 3.604.673 8.346 8.346 0 0 1 2.906 1.955 9.201 9.201 0 0 1 1.944 3.042 10.41 10.41 0 0 1 .699 3.976 10.59 10.59 0 0 1-.699 3.975Z" fill="#FEC108"/><path d="M21.104 33.247a8.784 8.784 0 0 1-2.49.283 14.774 14.774 0 0 1-4.588-.74 16.86 16.86 0 0 1-2.184-.846 2.042 2.042 0 0 0-2.263.347 2.022 2.022 0 0 0-.468.652l-.786 1.782a2.01 2.01 0 0 0-.061 1.519c.18.495.546.9 1.022 1.131 1.002.448 2.04.81 3.102 1.086 2.022.545 4.109.816 6.204.804 2.241.08 4.474-.313 6.553-1.151a8.727 8.727 0 0 0 3.8-3.085 7.207 7.207 0 0 0 1.29-4.193 6.49 6.49 0 0 0-.852-3.476 6.535 6.535 0 0 0-2.185-2.173 13.664 13.664 0 0 0-2.905-1.347 40.763 40.763 0 0 0-3.19-.825l-2.926-.652a7.08 7.08 0 0 1-2.185-.826 1.548 1.548 0 0 1-.808-1.347 1.93 1.93 0 0 1 .655-1.151 2.907 2.907 0 0 1 1.355-.847c.764-.23 1.56-.34 2.359-.326 1.205.007 2.404.183 3.56.521.642.161 1.27.372 1.88.63a2.02 2.02 0 0 0 2.206-.43c.187-.188.336-.411.436-.656l.743-1.76a2.032 2.032 0 0 0-.461-2.234 2.055 2.055 0 0 0-.675-.438c-.87-.32-1.76-.58-2.665-.782a21.962 21.962 0 0 0-4.98-.565 15.959 15.959 0 0 0-6.554 1.151 9.187 9.187 0 0 0-3.757 3.042 7.466 7.466 0 0 0-1.289 4.345 6.49 6.49 0 0 0 .83 3.433 6.733 6.733 0 0 0 2.184 2.172c.91.566 1.886 1.018 2.906 1.347 1.048.348 2.184.63 3.167.87.983.238 2.032.434 2.906.672a7.3 7.3 0 0 1 2.184.848 1.633 1.633 0 0 1 .686 1.188 1.62 1.62 0 0 1-.467 1.288 2.932 2.932 0 0 1-1.29.74ZM45.722 39.266c1.65.094 3.304-.142 4.86-.695a12.377 12.377 0 0 0 4.206-2.52 12.002 12.002 0 0 0 2.561-4.152c.56-1.543.796-3.184.694-4.821V14.673c0-.536-.214-1.05-.595-1.429a2.037 2.037 0 0 0-1.437-.592h-3.255c-.538 0-1.055.213-1.436.592a2.015 2.015 0 0 0-.595 1.429v12.231a7.097 7.097 0 0 1-1.31 4.801 4.675 4.675 0 0 1-3.626 1.456 4.721 4.721 0 0 1-3.736-1.456 6.99 6.99 0 0 1-1.333-4.8V14.672c0-.536-.214-1.05-.595-1.429a2.037 2.037 0 0 0-1.437-.592H35.5c-.539 0-1.055.213-1.436.592a2.015 2.015 0 0 0-.595 1.429V27.12a11.954 11.954 0 0 0 .662 4.788 12.002 12.002 0 0 0 2.505 4.141 12.399 12.399 0 0 0 4.216 2.524c1.561.552 3.218.788 4.871.692ZM70.454 31.922h4.565c2.18.074 4.35-.326 6.357-1.173a9.225 9.225 0 0 0 3.91-3.39 9.022 9.022 0 0 0 1.42-5.105 9.13 9.13 0 0 0-1.42-5.17 9.12 9.12 0 0 0-3.91-3.281 15.366 15.366 0 0 0-6.204-1.151h-10.07c-.539 0-1.056.213-1.437.591a2.015 2.015 0 0 0-.595 1.43v22.05a1.99 1.99 0 0 0 .589 1.435 2.011 2.011 0 0 0 1.443.586h3.364c.539 0 1.056-.213 1.437-.592.38-.38.595-.893.595-1.429l-.044-4.801Zm7.58-12.449a3.608 3.608 0 0 1 1.158 2.846 3.501 3.501 0 0 1-1.114 2.868 5.132 5.132 0 0 1-3.474 1.021h-4.15v-7.734h4.15a5.132 5.132 0 0 1 3.474 1h-.044ZM109.332 33.052H97.645v-4.78h9.634c.538 0 1.055-.212 1.436-.591s.595-.893.595-1.429v-1.477c0-.536-.214-1.05-.595-1.429a2.037 2.037 0 0 0-1.436-.591h-9.634V18.41h11.206c.539 0 1.056-.213 1.437-.592.381-.38.595-.893.595-1.429v-1.716c0-.536-.214-1.05-.595-1.429a2.038 2.038 0 0 0-1.437-.592H92.293c-.539 0-1.055.213-1.436.592s-.595.893-.595 1.429v22.05c0 .537.214 1.05.595 1.43.38.379.897.591 1.436.591h17.039a2.02 2.02 0 0 0 1.443-.585 2 2 0 0 0 .589-1.435V35.05a1.996 1.996 0 0 0-1.256-1.853c-.247-.099-.51-.148-.776-.146ZM122.876 31.813h4.041l4.151 6.062a2.025 2.025 0 0 0 1.682.869h3.014a2.03 2.03 0 0 0 1.792-1.073 2.014 2.014 0 0 0-.11-2.078l-3.495-5.062a8.725 8.725 0 0 0 3.821-3.33 8.65 8.65 0 0 0 1.312-4.882 9.128 9.128 0 0 0-1.419-5.17 9.12 9.12 0 0 0-3.867-3.346 15.367 15.367 0 0 0-6.204-1.151h-10.07c-.539 0-1.056.213-1.437.591a2.015 2.015 0 0 0-.595 1.43v22.05a1.99 1.99 0 0 0 .589 1.435 2.005 2.005 0 0 0 1.443.586h3.364c.539 0 1.055-.213 1.436-.592.381-.38.595-.893.595-1.429l-.043-4.91Zm7.58-12.34a3.599 3.599 0 0 1 1.158 2.846 3.51 3.51 0 0 1-1.114 2.868 5.133 5.133 0 0 1-3.474 1.021h-4.15v-7.734h4.15a5.133 5.133 0 0 1 3.474 1h-.044ZM15.121 45.565h-5.57c-.535 0-1.048.21-1.429.585-.38.374-.597.882-.602 1.414v29.764c.005.532.222 1.04.602 1.414.38.375.894.584 1.43.584h21.844a2.015 2.015 0 0 0 1.365-.615c.358-.372.557-.868.557-1.383v-3.563c0-.532-.211-1.043-.587-1.421a2.037 2.037 0 0 0-1.423-.6H17.131v-24.18a1.99 1.99 0 0 0-.588-1.413 2.009 2.009 0 0 0-1.421-.586ZM67.197 49.867a17.904 17.904 0 0 0-5.942-3.694 20.94 20.94 0 0 0-7.536-1.303 21.181 21.181 0 0 0-7.536 1.303 18.103 18.103 0 0 0-5.986 3.694 17.743 17.743 0 0 0-4.995 9.172 17.681 17.681 0 0 0 1.041 10.38 16.73 16.73 0 0 0 3.954 5.562 17.754 17.754 0 0 0 5.986 3.693 21.181 21.181 0 0 0 7.536 1.304 20.94 20.94 0 0 0 7.536-1.304 17.84 17.84 0 0 0 5.942-3.671 17.142 17.142 0 0 0 3.954-5.562 17.753 17.753 0 0 0 0-14.013 17.707 17.707 0 0 0-3.954-5.561Zm-5.024 16.598a8.879 8.879 0 0 1-1.944 3.063 8.348 8.348 0 0 1-2.906 1.955 10.035 10.035 0 0 1-7.23 0 8.546 8.546 0 0 1-2.906-1.955 9.206 9.206 0 0 1-1.944-3.063 10.983 10.983 0 0 1-.699-3.954 10.809 10.809 0 0 1 .7-3.976 9.336 9.336 0 0 1 1.944-3.042 7.976 7.976 0 0 1 2.905-1.955 10.034 10.034 0 0 1 7.252-.108 7.8 7.8 0 0 1 2.906 1.955 8.988 8.988 0 0 1 1.944 3.041c.49 1.268.728 2.618.699 3.976a10.53 10.53 0 0 1-.721 4.063ZM75.955 53.126h8.41v24.202c.006.532.223 1.04.603 1.414.38.375.894.584 1.429.584h5.57c.533 0 1.044-.21 1.421-.585s.589-.883.589-1.413V53.126h8.366a2.016 2.016 0 0 0 1.857-1.234 1.99 1.99 0 0 0 .153-.765v-3.563c0-.53-.212-1.038-.589-1.413a2.015 2.015 0 0 0-1.421-.586H75.955c-.533 0-1.044.211-1.421.586a1.994 1.994 0 0 0-.589 1.413v3.563c0 .53.212 1.039.589 1.413.377.375.888.586 1.421.586ZM138.167 49.867a17.91 17.91 0 0 0-5.942-3.694 22.441 22.441 0 0 0-15.073 0 18.099 18.099 0 0 0-5.985 3.694 17.639 17.639 0 0 0-5.018 9.168 17.58 17.58 0 0 0 1.064 10.385 16.716 16.716 0 0 0 3.954 5.561 17.756 17.756 0 0 0 5.985 3.693 22.441 22.441 0 0 0 15.073 0 17.853 17.853 0 0 0 5.942-3.65 17.63 17.63 0 0 0 5.017-9.168 17.572 17.572 0 0 0-1.063-10.384 17.711 17.711 0 0 0-3.954-5.605Zm-5.112 16.598a9.217 9.217 0 0 1-1.944 3.063 8.545 8.545 0 0 1-2.905 1.955 9.53 9.53 0 0 1-3.627.674 9.417 9.417 0 0 1-3.604-.674 8.343 8.343 0 0 1-2.905-1.955 8.882 8.882 0 0 1-1.945-3.063 10.557 10.557 0 0 1-.699-3.954 10.41 10.41 0 0 1 .699-3.976 9 9 0 0 1 1.945-3.041 7.796 7.796 0 0 1 2.905-1.956 9.415 9.415 0 0 1 3.604-.673 9.53 9.53 0 0 1 3.627.673 7.982 7.982 0 0 1 2.905 1.956 9.335 9.335 0 0 1 1.944 3.041c.488 1.247.739 2.573.743 3.91a10.986 10.986 0 0 1-.743 4.02Z" fill="#fff"/></svg>