<svg width="194" height="101" viewBox="0 0 194 101" fill="none" xmlns="http://www.w3.org/2000/svg"><g clip-path="url(#a)"><path d="m43.749 14.071-.499-9.617h28.01l-.555 9.617h-7.697v30.575H51.474V14.07h-7.726ZM85.885 36.63c1.307 0 2.693-.1 4.146-.297a46.995 46.995 0 0 0 4.342-.801l1.2 7.332c-1.638.811-3.541 1.445-5.707 1.91-2.165.464-4.565.701-7.199.701-9.696 0-14.545-5.264-14.545-15.781 0-2.77.312-5.155.937-7.174.624-2.008 1.55-3.672 2.77-4.976 1.219-1.305 2.721-2.267 4.516-2.888 1.796-.624 3.864-.94 6.206-.94 2.34 0 4.34.345 6 1.039 1.657.702 3.025 1.653 4.098 2.88 1.072 1.217 1.864 2.66 2.36 4.314.497 1.661.742 3.461.742 5.402 0 .592-.039 1.207-.118 1.831a26.142 26.142 0 0 1-.273 1.771c-.108.553-.226 1.07-.342 1.524-.118.454-.226.81-.322 1.069H79.651c.08.524.254.989.517 1.364.264.388.635.702 1.113.96.476.248 1.093.444 1.842.574.751.13 1.67.188 2.762.188v-.002Zm-.615-10.51c-.02-1.178-.252-2.027-.702-2.543-.447-.524-1.15-.782-2.106-.782-.937 0-1.657.268-2.176.811-.517.535-.8 1.375-.839 2.513h5.823v.002Zm25.746 19.058c-1.6.337-3.132.376-4.604.12-1.474-.258-2.78-.783-3.914-1.573-1.132-.793-2.037-1.82-2.721-3.086-.684-1.268-1.024-2.742-1.024-4.424V3.771l11.064-1.218v31.583c0 .712.118 1.356.342 1.93a5.91 5.91 0 0 0 .849 1.514c.342.435.712.803 1.121 1.1.41.295.81.514 1.201.652l-2.312 5.848-.002-.002Zm21.443-8.548c1.307 0 2.693-.1 4.146-.297a46.997 46.997 0 0 0 4.341-.801l1.201 7.332c-1.638.811-3.541 1.445-5.707 1.91-2.166.464-4.565.701-7.201.701-9.697 0-14.545-5.264-14.545-15.781 0-2.77.311-5.155.936-7.174.625-2.008 1.551-3.672 2.772-4.976 1.22-1.305 2.722-2.267 4.517-2.888 1.797-.624 3.863-.94 6.206-.94 2.341 0 4.339.345 6 1.039 1.657.702 3.025 1.653 4.097 2.88 1.073 1.217 1.865 2.66 2.361 4.314.497 1.661.741 3.461.741 5.402 0 .592-.038 1.207-.118 1.831a26.54 26.54 0 0 1-.272 1.771c-.108.553-.226 1.07-.342 1.524-.118.454-.226.81-.322 1.069h-15.044c.08.524.255.989.517 1.364.265.388.635.702 1.114.96.476.248 1.093.444 1.844.574.751.13 1.669.188 2.762.188l-.004-.002Zm-.615-10.51c-.018-1.178-.252-2.027-.702-2.543-.448-.524-1.15-.782-2.107-.782-.936 0-1.659.268-2.176.811-.517.535-.799 1.375-.838 2.513h5.823v.002ZM139.906 68.434c0-6.137 1.38-10.712 4.138-13.734 2.758-3.01 6.766-4.515 12.021-4.515 5.298 0 9.306 1.528 12.021 4.575 2.713 3.045 4.071 7.63 4.071 13.744 0 6.263-1.368 10.918-4.116 13.987-2.747 3.056-6.765 4.585-12.041 4.585-5.278 0-9.273-1.53-11.999-4.584-2.725-3.07-4.093-7.748-4.093-14.056l-.002-.002Zm19.64.136c0-1.633-.065-2.987-.198-4.067-.13-1.081-.338-1.942-.625-2.576-.272-.632-.635-1.08-1.072-1.344-.44-.266-.953-.402-1.533-.402-.59 0-1.117.126-1.555.38-.448.252-.82.7-1.117 1.343-.296.644-.513 1.505-.656 2.577-.142 1.069-.207 2.436-.207 4.089 0 1.643.065 3.012.207 4.104.143 1.092.363 1.965.645 2.62.285.654.635 1.114 1.075 1.378.438.267.963.403 1.576.403.58 0 1.093-.136 1.532-.403.44-.264.8-.722 1.073-1.379.285-.654.503-1.53.645-2.62.142-1.091.208-2.458.208-4.103h.002Z" fill="#fff"/><path fill-rule="evenodd" clip-rule="evenodd" d="M159.375 6.11c2.066 2.248 4.836 6.374 6.902 8.624 2.965-.553 5.931-1.104 8.892-1.651 1.561-.287 2.315 1.189 1.553 2.692-1.296 2.566-2.595 5.134-3.893 7.7 1.459 2.904 3.338 6.08 4.791 8.977.645 1.288-.049 1.943-1.362 1.916-3.187-.064-6.342-.324-9.513-.456-4.246 11.875-8.49 20.554-12.886 27.452-6.725 10.551-14.455 18.612-22.514 25.953-15.43 14.055-47.053 18.733-54.51 1.009-.67-1.598.728-3.28 1.757-1.142 1.069 2.218 2.577 3.89 4.425 5.025 12.304 7.576 32.888-6.432 41.783-14.537 6.397-5.827 12.556-12.831 17.968-21.375 4.789-7.56 8.992-16.329 12.259-26.553l-9.104-4.606c-1.439-.728-1.111-2.658.167-3.313 2.625-1.342 6.9-2.644 9.529-3.992.452-2.97 1.216-8.065 1.657-11.03.181-1.211 1.222-1.651 2.103-.693h-.004Z" fill="#FDCB14"/><path d="M16.79 39.519H36c1.838 0 3.6.218 5.278.664 1.675.448 3.142 1.148 4.41 2.09 1.27.94 2.278 2.156 3.021 3.651.745 1.492 1.117 3.27 1.117 5.336 0 2.389-.447 4.432-1.357 6.131-.908 1.699-2.483 2.96-4.718 3.788v.483c1.052.413 2.027.906 2.912 1.493a9.081 9.081 0 0 1 2.278 2.157c.635.848 1.126 1.847 1.478 3.007.35 1.159.525 2.525.525 4.088 0 2.066-.285 3.936-.855 5.625a9.976 9.976 0 0 1-2.888 4.339c-1.358 1.206-3.153 2.134-5.398 2.789-2.243.654-5.046.987-8.396.987H16.789V39.519Zm12.413 26.858v9.917h3.81c1.578 0 2.803-.366 3.68-1.103.875-.732 1.313-1.986 1.313-3.752 0-1.586-.395-2.824-1.183-3.72-.787-.894-2.035-1.344-3.745-1.344h-3.875v.002Zm0-17.767v8.676h3.81c2.89 0 4.336-1.503 4.336-4.51 0-1.495-.406-2.562-1.216-3.204-.81-.642-1.937-.964-3.383-.964h-3.547v.002ZM55.89 86.104V73.541l-2.757-.518v-9.494h15.174v22.575H55.89Zm-2.102-31.47c0-1.195.165-2.204.48-3.022.318-.815.778-1.471 1.39-1.977.615-.506 1.38-.873 2.3-1.092.92-.22 1.971-.322 3.154-.322 1.182 0 2.242.105 3.185.322.942.218 1.73.584 2.365 1.092a4.855 4.855 0 0 1 1.467 1.977c.338.816.503 1.827.503 3.022 0 1.15-.165 2.114-.492 2.897-.33.782-.81 1.4-1.448 1.872-.634.47-1.422.805-2.365 1.001-.94.196-2.013.3-3.218.3-1.182 0-2.232-.106-3.152-.3-.92-.196-1.686-.528-2.3-1.001-.613-.47-1.073-1.092-1.39-1.872-.318-.783-.48-1.747-.48-2.897h.001ZM84.978 86.11H72.563V51.15h9.853l.623 3.598a14.218 14.218 0 0 1 1.795-1.76c.67-.552 1.4-1.046 2.21-1.459a12.802 12.802 0 0 1 2.618-.976c.93-.241 1.915-.367 2.967-.367 2.146 0 3.918.32 5.32.964a7.631 7.631 0 0 1 3.341 2.929c.82 1.31 1.39 2.954 1.718 4.942.329 1.988.492 4.343.492 7.055v20.032H91.087V64.79c0-1.55-.165-2.7-.505-3.437-.338-.735-1.008-1.102-1.993-1.102-.767 0-1.412.128-1.948.38a9.286 9.286 0 0 0-1.663 1.034V86.11ZM105.488 90.086c0-.667.11-1.309.33-1.93a7.023 7.023 0 0 1 .91-1.749 9.96 9.96 0 0 1 1.323-1.517c.505-.47 1.052-.896 1.642-1.263-.887-.599-1.542-1.356-1.96-2.287-.427-.931-.635-1.988-.635-3.184 0-.575.088-1.162.263-1.77a7.566 7.566 0 0 1 .735-1.735 7.513 7.513 0 0 1 2.65-2.757c-1.38-.874-2.473-2.104-3.285-3.677-.811-1.587-1.216-3.517-1.216-5.792 0-1.875.363-3.553 1.085-5.07a11.161 11.161 0 0 1 3.033-3.848c1.292-1.07 2.848-1.887 4.653-2.46 1.805-.575 3.798-.861 5.976-.861.877 0 1.762.08 2.65.229.885.148 1.958.367 3.208.666l11.911-.035v7.896l-3.548-.38c.175.46.318 1.07.425 1.817.11.745.165 1.528.165 2.333 0 1.884-.35 3.55-1.05 5.01a10.005 10.005 0 0 1-2.968 3.643c-1.282.977-2.802 1.711-4.575 2.205-1.763.495-3.733.747-5.901.747-.559 0-1.074-.023-1.522-.058a28.72 28.72 0 0 1-1.258-.15c-.175.183-.318.39-.427.62a1.68 1.68 0 0 0-.163.725c0 .574.197 1.057.59 1.448.395.39.985.584 1.773.584h4.63c1.905 0 3.678.15 5.321.45 1.642.297 3.077.86 4.292 1.688 1.216.828 2.168 1.988 2.856 3.47.69 1.485 1.03 3.402 1.03 5.758 0 1.748-.36 3.321-1.073 4.723-.712 1.401-1.773 2.599-3.185 3.573-1.413.976-3.185 1.726-5.31 2.242-2.125.518-4.608.782-7.466.782-1.093 0-2.243-.033-3.448-.093a27.112 27.112 0 0 1-3.593-.413 18.106 18.106 0 0 1-3.382-.964 9.018 9.018 0 0 1-2.823-1.758c-.811-.746-1.456-1.679-1.938-2.804-.48-1.114-.723-2.47-.723-4.058l-.002.004Zm10.214-1.07c0 .368.055.748.152 1.115.1.368.33.702.703.99.37.288.93.528 1.685.711.745.184 1.763.275 3.055.275 1.28 0 2.308-.09 3.086-.264.777-.174 1.38-.403 1.805-.692.428-.287.713-.621.855-1.011.14-.378.22-.793.22-1.229 0-.875-.263-1.471-.788-1.781-.525-.312-1.225-.47-2.113-.47h-7.05a3.856 3.856 0 0 0-1.158.976c-.297.367-.45.828-.45 1.379l-.002.002Zm2.168-26.626c0 2.345 1.095 3.517 3.272 3.517 2.243 0 3.361-1.16 3.361-3.48 0-1.173-.273-2.069-.82-2.69-.538-.621-1.368-.931-2.475-.931-2.223 0-3.338 1.195-3.338 3.586v-.002Z" fill="#fff"/></g><defs><clipPath id="a"><path fill="#fff" transform="translate(.75 .95)" d="M0 0h192.5v99.458H0z"/></clipPath></defs></svg>