<svg width="160" height="90" viewBox="0 0 160 90" fill="none" xmlns="http://www.w3.org/2000/svg"><path d="M.401 35.298a.323.323 0 0 1-.323-.323V.381A.321.321 0 0 1 .382.073h36.294a.323.323 0 0 1 0 .645H1.946l31.48 13.76a.323.323 0 1 1-.259.591l-32.032-14L17.33 30.822a.323.323 0 0 1-.427.443C6.84 26.246.916 34.79.669 35.156a.323.323 0 0 1-.268.142ZM.724 1.664v32.381C2.475 32 8.04 26.705 16.295 30.271L.724 1.664Z" fill="#212021"/><path d="M.323 10.214a.323.323 0 0 1-.256-.52 4.632 4.632 0 0 1 3.474-1.662c.36-.024.72.015 1.066.116a4.063 4.063 0 0 1 1.61-3.152c.338-.255.699-.48 1.078-.669a3.51 3.51 0 0 1 1.378-.466A3.81 3.81 0 0 1 9.1.727c.154-.264.401-.462.693-.553a.323.323 0 0 1 .147.628.606.606 0 0 0-.302.282 3.008 3.008 0 0 0-.167 2.995.323.323 0 0 1-.376.472 2.08 2.08 0 0 0-1.5.348 6.35 6.35 0 0 0-.979.604 3.364 3.364 0 0 0-1.33 3.136.323.323 0 0 1-.513.306 1.85 1.85 0 0 0-1.206-.267 3.98 3.98 0 0 0-2.99 1.41.324.324 0 0 1-.255.126ZM.327 14.183a.323.323 0 0 1-.256-.52 3.968 3.968 0 0 1 2.31-1.38 8.352 8.352 0 0 1 2.612-.079c.946.03 1.857.361 2.6.946a11.25 11.25 0 0 1 6.182-6.96 4.505 4.505 0 0 1 .136-3.575A5.276 5.276 0 0 1 16.806.021a.323.323 0 1 1 .229.604 4.622 4.622 0 0 0-2.541 2.27 3.802 3.802 0 0 0 .001 3.317.323.323 0 0 1-.169.45 10.618 10.618 0 0 0-6.277 7.231.323.323 0 0 1-.582.094c-.41-.63-1.264-1.014-2.538-1.14a7.781 7.781 0 0 0-2.408.065 3.324 3.324 0 0 0-1.938 1.144.322.322 0 0 1-.256.127Z" fill="#212021"/><path d="M.448 19.029a.322.322 0 0 1-.243-.536 7.114 7.114 0 0 1 9.291-1.22c.298-1.295.83-2.526 1.568-3.631a14.183 14.183 0 0 1 4.638-4.18 8.005 8.005 0 0 1 3.132-1.229 14.18 14.18 0 0 1-.423-3.946 5.588 5.588 0 0 1 .285-1.576A4.526 4.526 0 0 1 21.01.125a.323.323 0 0 1 .278.583 3.933 3.933 0 0 0-1.981 2.215c-.15.45-.234.92-.25 1.396-.041 1.393.126 2.785.494 4.13a.32.32 0 0 1-.164.364.323.323 0 0 1-.138.036 6.886 6.886 0 0 0-3.213 1.167 13.56 13.56 0 0 0-4.434 3.985 10.156 10.156 0 0 0-1.567 3.882.323.323 0 0 1-.516.201 6.47 6.47 0 0 0-8.828.835.322.322 0 0 1-.242.11Z" fill="#212021"/><path d="M.4 24.556a.317.317 0 0 1-.222-.089.322.322 0 0 1-.078-.35c1.054-2.734 3.44-4.14 6.904-4.074a16.26 16.26 0 0 1 4.475.78c.994-7.85 10.045-10.111 11.985-10.507-.43-1.579-.323-3.388.33-5.654a9.436 9.436 0 0 1 1.175-2.727 4.443 4.443 0 0 1 2.417-1.85.323.323 0 0 1 .173.623 3.8 3.8 0 0 0-2.056 1.59 8.854 8.854 0 0 0-1.089 2.542c-.664 2.306-.738 4.094-.231 5.626a.323.323 0 0 1-.258.42c-.11.017-11.084 1.803-11.846 10.402a.322.322 0 0 1-.436.273c-.086-.032-8.637-3.186-10.941 2.788a.322.322 0 0 1-.301.207Z" fill="#212021"/><path d="M.447 29.082a.323.323 0 0 1-.256-.52 16.502 16.502 0 0 1 3.907-3.474c3.066-1.944 6.228-2.328 9.169-1.122.652-2.073 4.396-12.413 13.567-12.22.123-1.833.953-10.637 5.501-11.645a.323.323 0 0 1 .14.63c-4.492.996-5.01 11.26-5.015 11.363a.322.322 0 0 1-.338.308c-9.904-.495-13.304 11.961-13.338 12.087a.322.322 0 0 1-.446.211C6.488 21.585.761 28.882.704 28.956a.324.324 0 0 1-.257.126Z" fill="#212021"/><path d="M17.047 31.3a.323.323 0 0 1-.309-.415c2.5-8.36 6.852-12.38 10.063-14.283a15.233 15.233 0 0 1 6.072-2.122c-1.466-5.092-.458-8.683.666-10.816.701-1.391 1.713-2.601 2.958-3.537a.323.323 0 1 1 .36.537c-.063.042-6.237 4.325-3.251 14.014a.324.324 0 0 1-.302.419c-.113.002-11.294.416-15.947 15.973a.323.323 0 0 1-.31.23Z" fill="#212021"/><path d="M159.908 90.562h-35.591a.316.316 0 1 1 0-.634h34.076l-30.887-13.5a.318.318 0 0 1-.163-.417.314.314 0 0 1 .417-.163l31.428 13.736-15.89-29.193a.319.319 0 0 1 .05-.372.317.317 0 0 1 .37-.063c9.873 4.926 15.685-3.457 15.928-3.816a.315.315 0 0 1 .517-.012c.04.055.062.12.062.189v33.939a.32.32 0 0 1-.087.207h-.001a.24.24 0 0 1-.038.035h-.001a.315.315 0 0 1-.171.063h-.019Zm-15.594-29.63L159.592 89V57.23c-1.719 2.007-7.179 7.2-15.278 3.702Z" fill="#000"/><path d="M150.619 90.47a.317.317 0 0 1-.072-.625c.091-.021.188-.112.297-.276a2.95 2.95 0 0 0 .164-2.938.318.318 0 0 1-.044-.184.322.322 0 0 1 .224-.281.316.316 0 0 1 .188.001 2.037 2.037 0 0 0 1.473-.341c.338-.168.659-.366.96-.593a3.295 3.295 0 0 0 1.305-3.077.32.32 0 0 1 .151-.32.317.317 0 0 1 .353.02 1.8 1.8 0 0 0 1.182.262 3.913 3.913 0 0 0 2.934-1.384.316.316 0 0 1 .564.153.316.316 0 0 1-.062.234 4.545 4.545 0 0 1-3.409 1.63 3.015 3.015 0 0 1-1.045-.114 3.98 3.98 0 0 1-1.58 3.093 6.628 6.628 0 0 1-1.058.656 3.435 3.435 0 0 1-1.352.458 3.733 3.733 0 0 1-.42 3.074c-.151.26-.394.454-.68.543a.324.324 0 0 1-.073.009ZM143.702 90.633a.317.317 0 0 1-.112-.613 4.534 4.534 0 0 0 2.492-2.227 3.732 3.732 0 0 0-.001-3.255.32.32 0 0 1 .166-.44 10.415 10.415 0 0 0 6.158-7.096.316.316 0 0 1 .434-.209.317.317 0 0 1 .138.117c.402.618 1.24.994 2.489 1.118a7.62 7.62 0 0 0 2.363-.064 3.26 3.26 0 0 0 1.901-1.122.326.326 0 0 1 .21-.122.317.317 0 0 1 .293.507 3.89 3.89 0 0 1-2.266 1.355c-.845.16-1.71.186-2.563.077a4.352 4.352 0 0 1-2.552-.928 11.039 11.039 0 0 1-6.064 6.83 4.425 4.425 0 0 1-.134 3.506 5.177 5.177 0 0 1-2.84 2.545.317.317 0 0 1-.112.02Z" fill="#000"/><path d="M139.555 90.54a.319.319 0 0 1-.309-.247.318.318 0 0 1 .173-.356 3.858 3.858 0 0 0 1.943-2.173c.147-.442.23-.904.246-1.37a13.783 13.783 0 0 0-.486-4.051.316.316 0 0 1 .297-.393 6.76 6.76 0 0 0 3.152-1.146 13.295 13.295 0 0 0 4.351-3.91 9.962 9.962 0 0 0 1.536-3.808.313.313 0 0 1 .198-.243.314.314 0 0 1 .309.045 6.35 6.35 0 0 0 8.662-.819.307.307 0 0 1 .218-.11.311.311 0 0 1 .231.079.32.32 0 0 1 .107.22.317.317 0 0 1-.08.23 6.982 6.982 0 0 1-9.116 1.195 10.74 10.74 0 0 1-1.539 3.564 13.92 13.92 0 0 1-4.55 4.1 7.86 7.86 0 0 1-3.073 1.207c.319 1.264.459 2.567.416 3.871a5.468 5.468 0 0 1-.281 1.547 4.432 4.432 0 0 1-2.269 2.537.314.314 0 0 1-.136.03Z" fill="#000"/><path d="M133.346 90.56a.314.314 0 0 1-.208-.078.314.314 0 0 1-.056-.413.315.315 0 0 1 .18-.13 3.729 3.729 0 0 0 2.017-1.56 8.702 8.702 0 0 0 1.069-2.495c.651-2.262.723-4.016.227-5.52a.313.313 0 0 1 .252-.412c.109-.016 10.876-1.769 11.624-10.205a.307.307 0 0 1 .045-.138.316.316 0 0 1 .382-.131c.084.032 8.474 3.127 10.735-2.735a.314.314 0 0 1 .409-.18.316.316 0 0 1 .181.407c-1.034 2.683-3.373 4.065-6.773 3.998a15.96 15.96 0 0 1-4.391-.765c-.975 7.702-9.856 9.92-11.759 10.309.422 1.549.317 3.324-.323 5.547a9.274 9.274 0 0 1-1.154 2.676 4.356 4.356 0 0 1-2.372 1.814.321.321 0 0 1-.085.011Z" fill="#000"/><path d="M128.508 90.54a.316.316 0 0 1-.315-.283.317.317 0 0 1 .247-.344c4.41-.976 4.915-11.047 4.92-11.148a.314.314 0 0 1 .103-.22.293.293 0 0 1 .229-.082c9.715.482 13.053-11.735 13.086-11.859a.311.311 0 0 1 .171-.205.315.315 0 0 1 .266-.002c6.721 3.055 12.341-4.103 12.397-4.176a.317.317 0 1 1 .502.387 16.198 16.198 0 0 1-3.832 3.409c-3.008 1.907-6.111 2.284-8.996 1.1-.641 2.034-4.312 12.162-13.311 11.99-.122 1.798-.936 10.437-5.398 11.425a.33.33 0 0 1-.069.008Z" fill="#000"/><path d="M124.317 90.561a.318.318 0 0 1-.177-.58c.062-.041 6.119-4.244 3.19-13.75a.31.31 0 0 1 .046-.28.315.315 0 0 1 .25-.13c.11-.003 11.081-.41 15.646-15.673a.324.324 0 0 1 .153-.188.322.322 0 0 1 .242-.025.322.322 0 0 1 .188.153.326.326 0 0 1 .024.241c-2.453 8.202-6.723 12.148-9.873 14.014a14.941 14.941 0 0 1-5.957 2.082c1.438 4.996.448 8.52-.654 10.612a9.934 9.934 0 0 1-2.903 3.47.313.313 0 0 1-.175.054Z" fill="#000"/><path d="M138.94 14.289a20.16 20.16 0 0 0-7.843-7.164.412.412 0 0 0-.594.26.795.795 0 0 0 .214.704c1.211 1.408 3.064 2.129 4.271 3.54 1.207 1.412 2.3 2.925 3.617 4.235-3.467-.728-6.886-1.31-10.408-1.69a.363.363 0 0 0-.183.425.366.366 0 0 0 .079.145c.184.191.415.33.669.403l.759.291a48.279 48.279 0 0 0 8.931 1.999 16.314 16.314 0 0 0-8.691 4.63c-.008.065-.147.072-.156.137a.33.33 0 0 0 .151.351c.038.025.08.041.125.049a.98.98 0 0 0 .562-.134 19.78 19.78 0 0 0 1.816-1.124 16.4 16.4 0 0 1 1.859-1.042 15.83 15.83 0 0 1 2.34-.78c.769-.21 1.539-.417 2.31-.62a11.89 11.89 0 0 0-3.9 8.899.474.474 0 0 0 .417.258.492.492 0 0 0 .394-.31c.539-1.435.701-2.945 1.224-4.386a5.787 5.787 0 0 1 2.825-3.47 1.306 1.306 0 0 0-.303.586.571.571 0 0 0 .266.639.56.56 0 0 0 .551-.102c.148-.13.272-.285.365-.458a.525.525 0 0 0 .781-.042.467.467 0 0 0 .706.054.487.487 0 0 0 .133-.234c.123.054.33.121.369.25.01.048.017.098.022.147a.42.42 0 0 0 .423.29.418.418 0 0 0 .175-.05.623.623 0 0 0 .268-.65 1.262 1.262 0 0 0-.373-.637 6.878 6.878 0 0 1 3.9 5.152 8.77 8.77 0 0 0 .471 2.547c.053.112.152.24.273.21.105-.025.146-.149.168-.254a7.977 7.977 0 0 0-4.118-8.676 8.956 8.956 0 0 1 3.089.499 29.265 29.265 0 0 1 4.606 1.904c.455.236 1.03.479 1.445.179a1.486 1.486 0 0 0-.891-1.058 27.8 27.8 0 0 0-7.839-2.804 36.962 36.962 0 0 1 5.86-1.733c.693-.09 1.378-.23 2.051-.417a3.266 3.266 0 0 0 1.705-1.153.429.429 0 0 0 .086-.182.329.329 0 0 0-.292-.33.978.978 0 0 0-.476.082 62.046 62.046 0 0 1-9.141 2.208c.512-.455.992-.946 1.434-1.47.328-.362.619-.756.909-1.15l3.3-4.475a1.23 1.23 0 0 0 .233-.424.414.414 0 0 0-.129-.44c-.241-.173-.56.06-.761.278a99.567 99.567 0 0 0-5.297 6.244c.246-.718.235-1.5-.033-2.21a6.021 6.021 0 0 0-1.072-1.94 5.969 5.969 0 0 0-1.684-1.55 7.778 7.778 0 0 0-1.712 2.493 5.395 5.395 0 0 0-.256 3.07Z" fill="#212021"/><path d="M141.534 13.987a1.283 1.283 0 0 1-1.366-.347 7.042 7.042 0 0 1 .639-3.242c.302 1.24.386 2.36.727 3.589ZM141.229 16.39a.991.991 0 0 1-1.224.11 5.155 5.155 0 0 0-.114-.91l1.17-.037c.028.252.14.585.168.837ZM141.311 19.102a.661.661 0 0 1-.7.227 5.295 5.295 0 0 1-.402-.856c.271-.042.537-.114.791-.215.108.332.183.52.311.845ZM145.218 13.27a.296.296 0 0 0-.038.201.21.21 0 0 0 .252.119.567.567 0 0 0 .251-.17c.197-.199 1.161-1.19.72-1.41-.429-.214-1.054.977-1.185 1.26ZM137.519 20.856a.296.296 0 0 0-.038.201.207.207 0 0 0 .251.119.565.565 0 0 0 .252-.17c.196-.199 1.16-1.19.719-1.41-.429-.214-1.053.977-1.184 1.26ZM145.962 18.229a.294.294 0 0 0-.201.037.21.21 0 0 0-.02.278.56.56 0 0 0 .25.173c.256.11 1.53.65 1.575.16.043-.477-1.293-.628-1.604-.648ZM136.847 16.073a.298.298 0 0 0-.202.037.204.204 0 0 0-.062.135.204.204 0 0 0 .043.143c.066.08.152.139.249.172.257.112 1.53.65 1.575.16.044-.477-1.292-.627-1.603-.647ZM145.795 16.102a.297.297 0 0 0-.148.142.21.21 0 0 0 .137.243c.099.03.204.032.304.006.275-.049 1.635-.302 1.401-.736-.226-.422-1.424.19-1.694.345ZM144.171 19.435a.297.297 0 0 0-.201-.041.213.213 0 0 0-.109.102.211.211 0 0 0-.013.148.558.558 0 0 0 .167.254c.195.2 1.173 1.177 1.399.74.219-.426-.962-1.068-1.243-1.203ZM137.551 13.27a.299.299 0 0 0-.182-.094.208.208 0 0 0-.185.208.553.553 0 0 0 .093.29c.135.244.816 1.447 1.151 1.086.325-.352-.642-1.286-.877-1.49ZM136.576 18.485a.295.295 0 0 0-.147.142.21.21 0 0 0 .137.243c.098.03.203.031.303.006.275-.049 1.635-.302 1.402-.736-.227-.422-1.424.19-1.695.345Z" fill="#212021"/><path d="M141.454 16.768h-.014a.504.504 0 0 1-.487-.513l.654-24.768A.547.547 0 0 1 142.12-9a.5.5 0 0 1 .487.513l-.654 24.768a.499.499 0 0 1-.499.487Z" fill="#212021"/></svg>