<svg width="70" height="75" viewBox="0 0 70 75" fill="none" xmlns="http://www.w3.org/2000/svg"><path d="M33.218 73.878c15.975-.233 28.91-1.558 28.889-2.959-.02-1.4-12.988-2.347-28.963-2.114-15.975.233-28.909 1.557-28.888 2.958.02 1.401 12.987 2.348 28.962 2.115Z" fill="#A93003"/><path d="M12.447 39.485S-4.972 77.614 40.042 70.297c45.013-7.317 24.226-36.623 14.815-40.475l-23.334-2.887-19.076 12.55Z" fill="#351004"/><path d="m11.77 38.494.672.99s9.035-9.176 42.41-9.663l-.023-1.56a3.082 3.082 0 0 0-2.949-3.015c-6.818-.332-24.388-.144-39.2 8.938a3.034 3.034 0 0 0-.91 4.31Z" fill="#441C0E"/><path d="M67.538 36.103c1.653-2.533 1.418-5.946-.236-8.423a7.333 7.333 0 0 0-7.71-3.115c-2.642.56-5.282 2.635-5.223 5.85a1.331 1.331 0 0 0 2.631.364c.98-3.588 6.148-3.615 7.781-.598.734 1.353.739 3.08-.317 4.225-.862.928-2.119.769-3.135 1.385-.715.434-.918 1.752-.24 2.35a3.006 3.006 0 0 0 2.34.774c.078.357.22.698.417 1.006.508.771 1.727 1.697 2.633 1.244 1.097-.552.831-2.15.146-2.943a2.334 2.334 0 0 0-.576-.467 6.93 6.93 0 0 0 1.49-1.652ZM13.16 49.512c-.125-1.051-1.15-1.577-1.9-.832-.983.97-2.488 2.86-4.035 2.48-1.38-.34-2.565-2.722-2.947-4.028-.692-2.362.489-4.368 2.434-5.437 1.785-.978 3.073-.045 4.48 1.064.842.674 1.874-.475 1.638-1.427-.793-3.24-4.493-3.807-6.962-2.698C2.875 39.98.491 43.335 1.13 46.993c.511 2.953 2.614 6.638 5.462 7.427a3.295 3.295 0 0 0 .726 3.023 2.63 2.63 0 0 0 3.345.355 1.35 1.35 0 0 0 .596-1.179 7.99 7.99 0 0 0-.85-2.904c1.63-.895 2.962-2.443 2.751-4.203Z" fill="#351004"/><path d="M62.959 40.089c-.672-.713-1.989.287-1.372 1.08a14.045 14.045 0 0 1 3.087 8.064c.138 2.87-1.112 5.131-1.572 7.837-.074.453.438 1.014.9.664 5.411-4.109 2.862-13.511-1.043-17.645ZM60.537 59.451l-1.6 1.016c-.532.26-.96.693-1.216 1.228-.147.373.236.698.572.717.589.036 1.096-.326 1.568-.632l1.51-.982c.843-.553.037-1.892-.834-1.347ZM57.881 34.55a35.528 35.528 0 0 0-2.864-2.781c-.731-.61-2.086.252-1.412 1.106a33.527 33.527 0 0 0 2.591 2.87c.79.796 1.663 1.969 2.855 2.157.328.052.777-.16.726-.563-.182-1.163-1.126-1.98-1.896-2.788Z" fill="#fff"/><path d="M31.417 67.837c-6.774-.91-16.57-2.078-17.964-10.287-.066-.402-.613-.237-.644.098-.732 8.753 11.701 11.798 18.505 11.114.491-.051.685-.849.103-.925Z" fill="#441C0E"/><path d="M31.878 65.203c-3.89-.863-7.582-1.22-11.296-2.832-.528-.23-.981.51-.453.789 3.48 1.829 7.766 3.336 11.758 2.652.326-.037.298-.54-.01-.609ZM17.33 59.998a5.51 5.51 0 0 1-.976-1.692c-.16-.477-.1-1.039-.424-1.43a.29.29 0 0 0-.447.063c-.396.523 0 1.432.238 1.957a3.743 3.743 0 0 0 1.277 1.547c.274.21.518-.221.333-.445ZM42.59 27.533S48.807 1.063 54.424.595c5.617-.47 9.695 2.843 6.467 3.379-3.227.535-3.003-.675-6.388 2.033s-8.377 22.511-8.377 22.511l-3.536-.985Z" fill="#441C0E"/><path d="M12.68 34.2s1.949 6.708 7.445 6.265c4.758-.388-.159-10.857 9.07-10.62 6.615.161 3.224 13.043 7.812 10.063 4.587-2.98 8.429-.43 7.554 6.498-.876 6.927.904 11.976 6.242 8.997 5.338-2.978-6.097-15.615-2.247-19.911 3.85-4.296-1.282-4.963.135-7.622 1.418-2.659 4.406 3.635 5.581-1.255 0 0 .717-6.147-21.37-1.81C10.815 29.14 12.679 34.2 12.679 34.2Z" fill="#9FCE20"/><path d="M49.017 54.295a16.686 16.686 0 0 1-.588-2.698c-.1-.696-.376-1.7-1.32-1.4-.943.3-.834 1.702-.678 2.474.2.903.658 1.729 1.318 2.377a.77.77 0 0 0 1.268-.753ZM37.304 37.68a28.844 28.844 0 0 1-.856-3.396c-.203-.953-.18-2.135-.957-2.81a.653.653 0 0 0-.911.014c-.794.858-.521 2.157-.272 3.203.35 1.28.95 2.481 1.762 3.532.42.583 1.5.216 1.234-.542ZM39.11 35.008c-.349-.713-1.621-.537-1.755.252a2.876 2.876 0 0 0 .404 1.934.85.85 0 0 0 1.525-.22 2.877 2.877 0 0 0-.174-1.966ZM19.76 38.48c-1.678-.564-3.168-1.744-3.77-3.43a.836.836 0 0 0-1.607.455c.564 2.368 2.412 4.382 4.875 4.827a.96.96 0 0 0 1.202-1.048.961.961 0 0 0-.7-.803ZM46.914 46.548a.633.633 0 0 0-.875.013c-.505.52-.338 1.408-.329 2.07.015 1.012 1.608.993 1.593-.023-.01-.666.131-1.555-.389-2.06ZM46.983 30.796a.444.444 0 0 0-.433.442c.015.367.133.721.342 1.023a2.626 2.626 0 0 1 .22 2.127c-.351 1.046-1.109 1.662-1.04 2.84.038.644 1.098.85 1.213.143.13-.809.75-1.463 1.069-2.214.252-.58.362-1.21.32-1.84-.08-1.036-.512-2.446-1.69-2.521ZM48.447 24.782c-.9-.6-2.011.38-2.428 1.113-.417.732-.605 1.957.107 2.62a.807.807 0 0 0 1.285-.353c.15-.45.108-.925.408-1.337.3-.412.798-.62 1.004-1.173a.783.783 0 0 0-.376-.87Z" fill="#8DAF14"/><path d="M32 24.962c-5.467-.852-11.447 1.78-15.721 4.97a.477.477 0 0 0 .495.799 41.789 41.789 0 0 1 7.787-3.24c2.442-.721 4.985-.928 7.432-1.597.421-.131.468-.846.006-.932ZM38.959 24.32c-.174-.832-1.572-.727-2.177-.678-1.112.085-1.919.625-2.88 1.107-.236.12-.054.444.18.4 1.114-.222 2.42-.01 3.557-.003.537.004 1.476-.074 1.32-.826Z" fill="#fff"/><path d="M29.15 18.495a2.36 2.36 0 0 0-1.265-3.717 2.492 2.492 0 0 0-3.03 2.727 2.15 2.15 0 0 0 1.539 1.809.772.772 0 0 0 .1-.002c-.188.923.337 2.012 1.563 1.994 1.645-.015 1.984-1.94 1.092-2.811ZM22.342 21.608a2.42 2.42 0 0 0-3.51-1.434 2.073 2.073 0 0 0-.996 1.992 1.327 1.327 0 0 0-.05.404l-.053.029c-.229.196-.398.453-.489.741a1.723 1.723 0 0 0-.082 1.567 1.822 1.822 0 0 0 1.69 1.088 1.915 1.915 0 0 0 1.568-.918c.086-.155.15-.322.186-.495a2.42 2.42 0 0 0 1.736-2.974Z" fill="#9FCE20"/><path d="m21.971 14.77-.026-.112c-.237-1.034-1.915-1.01-2.117.03l-.023.114a1.121 1.121 0 1 0 2.166-.032Z" fill="#8DAF14"/><path d="M38.88 7.961a1.577 1.577 0 0 0-1.042.379c-.984-1.632-2.827-2.674-4.9-2.16-1.81.43-2.798 1.816-2.854 3.27-2.487 5.627 8.217 7.947 8.498 1.783.113.02.228.029.343.027 2.154-.01 2.106-3.33-.044-3.299Z" fill="#9FCE20"/><path d="M38.288 17.265c-1.71.024-1.676 2.65.038 2.625 1.714-.025 1.672-2.65-.038-2.625ZM43.329 10.934c-1.355.02-1.325 2.101.03 2.082 1.355-.02 1.32-2.101-.03-2.082Z" fill="#8DAF14"/><path d="M20.621 2.326c-1.453 1.07-1.998 2.978-1.01 4.548a3.703 3.703 0 0 0 1.568 1.37c1.798 1.244 4.933.198 5.274-2.405.414-3.169-3.158-5.48-5.832-3.513Z" fill="#9FCE20"/><path d="M19.31 8.706a1.803 1.803 0 0 0-1.957.492c-.896.82-.478 2.33.597 2.759a1.719 1.719 0 0 0 1.535-.107 1.782 1.782 0 0 0 .834-1.489 1.614 1.614 0 0 0-1.009-1.655Z" fill="#8DAF14"/><path d="M15.519 18.552c-.203-1.445-1.627-2.542-3.099-1.972-.41.16-.772.423-1.053.762-.06.041-.12.074-.18.124-.762.6-.664 1.796-.221 2.548A2.706 2.706 0 0 0 12.71 21.3a2.389 2.389 0 0 0 2.808-2.748Z" fill="#9FCE20"/><path d="M23.325 1.976c-.851-.573-2.276-.1-2.862.687-.178.232-.28.5-.437.744-.158.245-.378.385-.458.645-.074.3-.078.613-.011.915.077.306.305.48.454.74.15.26.753.179.711-.2a6.86 6.86 0 0 1 .174-1.112 4.155 4.155 0 0 0-.035-.451.776.776 0 0 1 .374-.627c.642-.534 1.262-.575 2.026-.796a.298.298 0 0 0 .064-.545ZM31.841 8.976c.14-.406 1.049-1.391.314-1.703a.605.605 0 0 0-.68.095 3.846 3.846 0 0 0-.324 5.49c.485.554 1.337-.176.99-.776a3.845 3.845 0 0 1-.3-3.106ZM27.526 14.876c-.583-.395-1.265.083-1.634.544a1.74 1.74 0 0 0-.41 1.761c.056.15.162.277.3.359a.36.36 0 0 0 .584-.057c.043-.086.195-.193.258-.29.08-.115.152-.235.216-.359.115-.244.276-.465.475-.648.378-.332.761-.919.21-1.31ZM12.873 19.497c-.352-.035-.41-.397-.498-.686a2.421 2.421 0 0 1 .07-.925c.044-.331-.156-.804-.587-.738-1.107.146-1.367 1.368-.971 2.257a2.016 2.016 0 0 0 2.138 1.095c.62-.11.381-.954-.152-1.003Z" fill="#fff"/></svg>