<svg width="492" height="297" viewBox="0 0 492 297" fill="none" xmlns="http://www.w3.org/2000/svg"><g filter="url(#a)"><path d="M463.72 82.5c11-29.5-23.5-41.5-78.5-45.5-25 0-38.5-2.5-61.5-11h-29.5c41.5 23.5 124 14.893 150 32.5 8.722 5.907 11.473 13.933 9.24 21l10.26 3Z" fill="url(#b)"/><path d="M439.236 218.5v-13c-46.141-8.161-88.931-6.076-141.236 7.493l2 6.835c52.398-10.89 101.88-12.344 139.236-1.328Z" fill="url(#c)"/><path d="M77.5 138c60-41.501 186.82-71.27 269.22-47.499 52.5 15.147 106 21.499 117-8L453.46 79.5c-2.759 8.732-13.127 16-29.24 16-16.182 0-29.163-4.03-43.821-8.581-27.916-8.667-61.912-19.222-135.68-7.419-65 10.4-106.093 19.938-170 51.5-44.72 22.083-81.983 104 0 135.5 11.712 4.5 62.017 11 120.017-13.5 34.584-14.609 70.563-25.96 105.264-33.172l-2-6.835c-31.015 8.045-65.376 20.128-105.764 36.507-30 12.166-87.961 17-117.516 5-50.491-20.5-31.195-93 2.78-116.5Z" fill="url(#d)"/></g><g filter="url(#e)"><path d="M463.72 82.5c11-29.5-23.5-41.5-78.5-45.5-25 0-38.5-2.5-61.5-11h-29.5c41.5 23.5 124 14.893 150 32.5 8.722 5.907 11.473 13.933 9.24 21l10.26 3Z" fill="url(#f)"/><path d="M439.236 218.5v-13c-46.141-8.161-88.931-6.076-141.236 7.493l2 6.835c52.398-10.89 101.88-12.344 139.236-1.328Z" fill="url(#g)"/><path d="M77.5 138c60-41.501 186.82-71.27 269.22-47.499 52.5 15.147 106 21.499 117-8L453.46 79.5c-2.759 8.732-13.127 16-29.24 16-16.182 0-29.163-4.03-43.821-8.581-27.916-8.667-61.912-19.222-135.68-7.419-65 10.4-106.093 19.938-170 51.5-44.72 22.083-81.983 104 0 135.5 11.712 4.5 62.017 11 120.017-13.5 34.584-14.609 70.563-25.96 105.264-33.172l-2-6.835c-31.015 8.045-65.376 20.128-105.764 36.507-30 12.166-87.961 17-117.516 5-50.491-20.5-31.195-93 2.78-116.5Z" fill="url(#h)"/></g><g filter="url(#i)"><path d="M463.72 82.5c11-29.5-23.5-41.5-78.5-45.5-25 0-38.5-2.5-61.5-11h-29.5c41.5 23.5 124 14.893 150 32.5 8.722 5.907 11.473 13.933 9.24 21l10.26 3Z" fill="url(#j)"/><path d="M439.236 218.5v-13c-46.141-8.161-88.931-6.076-141.236 7.493l2 6.835c52.398-10.89 101.88-12.344 139.236-1.328Z" fill="url(#k)"/><path d="M77.5 138c60-41.501 186.82-71.27 269.22-47.499 52.5 15.147 106 21.499 117-8L453.46 79.5c-2.759 8.732-13.127 16-29.24 16-16.182 0-29.163-4.03-43.821-8.581-27.916-8.667-61.912-19.222-135.68-7.419-65 10.4-106.093 19.938-170 51.5-44.72 22.083-81.983 104 0 135.5 11.712 4.5 62.017 11 120.017-13.5 34.584-14.609 70.563-25.96 105.264-33.172l-2-6.835c-31.015 8.045-65.376 20.128-105.764 36.507-30 12.166-87.961 17-117.516 5-50.491-20.5-31.195-93 2.78-116.5Z" fill="url(#l)"/></g><path d="M463.72 82.5c11-29.5-23.5-41.5-78.5-45.5-25 0-38.5-2.5-61.5-11h-29.5c41.5 23.5 124 14.893 150 32.5 8.722 5.907 11.473 13.933 9.24 21l10.26 3Z" fill="url(#m)"/><path d="M439.236 218.5v-13c-46.141-8.161-88.931-6.076-141.236 7.493l2 6.835c52.398-10.89 101.88-12.344 139.236-1.328Z" fill="url(#n)"/><path d="M77.5 138c60-41.501 186.82-71.27 269.22-47.499 52.5 15.147 106 21.499 117-8L453.46 79.5c-2.759 8.732-13.127 16-29.24 16-16.182 0-29.163-4.03-43.821-8.581-27.916-8.667-61.912-19.222-135.68-7.419-65 10.4-106.093 19.938-170 51.5-44.72 22.083-81.983 104 0 135.5 11.712 4.5 62.017 11 120.017-13.5 34.584-14.609 70.563-25.96 105.264-33.172l-2-6.835c-31.015 8.045-65.376 20.128-105.764 36.507-30 12.166-87.961 17-117.516 5-50.491-20.5-31.195-93 2.78-116.5Z" fill="url(#o)"/><defs><linearGradient id="b" x1="303" y1="32.5" x2="458" y2="82" gradientUnits="userSpaceOnUse"><stop stop-color="#DD93FF" stop-opacity="0"/><stop offset="1" stop-color="#7633FF"/></linearGradient><linearGradient id="c" x1="302.5" y1="214" x2="437.5" y2="210.5" gradientUnits="userSpaceOnUse"><stop stop-color="#8544FE"/><stop offset="1" stop-color="#DD93FF" stop-opacity="0"/></linearGradient><linearGradient id="d" x1="302.5" y1="92.5" x2="307" y2="213.5" gradientUnits="userSpaceOnUse"><stop stop-color="#7633FF"/><stop offset=".492" stop-color="#E5A3FF"/><stop offset="1" stop-color="#7734FF"/></linearGradient><linearGradient id="f" x1="303" y1="32.5" x2="458" y2="82" gradientUnits="userSpaceOnUse"><stop stop-color="#DD93FF" stop-opacity="0"/><stop offset="1" stop-color="#7633FF"/></linearGradient><linearGradient id="g" x1="302.5" y1="214" x2="437.5" y2="210.5" gradientUnits="userSpaceOnUse"><stop stop-color="#8544FE"/><stop offset="1" stop-color="#DD93FF" stop-opacity="0"/></linearGradient><linearGradient id="h" x1="302.5" y1="92.5" x2="307" y2="213.5" gradientUnits="userSpaceOnUse"><stop stop-color="#7633FF"/><stop offset=".492" stop-color="#E5A3FF"/><stop offset="1" stop-color="#7734FF"/></linearGradient><linearGradient id="j" x1="303" y1="32.5" x2="458" y2="82" gradientUnits="userSpaceOnUse"><stop stop-color="#DD93FF" stop-opacity="0"/><stop offset="1" stop-color="#7633FF"/></linearGradient><linearGradient id="k" x1="302.5" y1="214" x2="437.5" y2="210.5" gradientUnits="userSpaceOnUse"><stop stop-color="#8544FE"/><stop offset="1" stop-color="#DD93FF" stop-opacity="0"/></linearGradient><linearGradient id="l" x1="302.5" y1="92.5" x2="307" y2="213.5" gradientUnits="userSpaceOnUse"><stop stop-color="#7633FF"/><stop offset=".492" stop-color="#E5A3FF"/><stop offset="1" stop-color="#7734FF"/></linearGradient><linearGradient id="m" x1="303" y1="32.5" x2="458" y2="82" gradientUnits="userSpaceOnUse"><stop stop-color="#DD93FF" stop-opacity="0"/><stop offset="1" stop-color="#7633FF"/></linearGradient><linearGradient id="n" x1="302.5" y1="214" x2="437.5" y2="210.5" gradientUnits="userSpaceOnUse"><stop stop-color="#8544FE"/><stop offset="1" stop-color="#DD93FF" stop-opacity="0"/></linearGradient><linearGradient id="o" x1="302.5" y1="92.5" x2="307" y2="213.5" gradientUnits="userSpaceOnUse"><stop stop-color="#7633FF"/><stop offset=".492" stop-color="#E5A3FF"/><stop offset="1" stop-color="#7734FF"/></linearGradient><filter id="a" x=".219" y="0" width="491.543" height="296.791" filterUnits="userSpaceOnUse" color-interpolation-filters="sRGB"><feFlood flood-opacity="0" result="BackgroundImageFix"/><feBlend in="SourceGraphic" in2="BackgroundImageFix" result="shape"/><feGaussianBlur stdDeviation="13" result="effect1_foregroundBlur_2761_6872"/></filter><filter id="e" x="6.219" y="6" width="479.543" height="284.791" filterUnits="userSpaceOnUse" color-interpolation-filters="sRGB"><feFlood flood-opacity="0" result="BackgroundImageFix"/><feBlend in="SourceGraphic" in2="BackgroundImageFix" result="shape"/><feGaussianBlur stdDeviation="10" result="effect1_foregroundBlur_2761_6872"/></filter><filter id="i" x="16.219" y="16" width="459.543" height="264.791" filterUnits="userSpaceOnUse" color-interpolation-filters="sRGB"><feFlood flood-opacity="0" result="BackgroundImageFix"/><feBlend in="SourceGraphic" in2="BackgroundImageFix" result="shape"/><feGaussianBlur stdDeviation="5" result="effect1_foregroundBlur_2761_6872"/></filter></defs></svg>