<svg width="450" height="537" viewBox="0 0 450 537" fill="none" xmlns="http://www.w3.org/2000/svg"><g filter="url(#a)"><path d="M226.343 52.5c60.5 78.5 164.5 83.5 69 142l6.007 5.5c33.2-18.888 57.032-39.697 53.494-55.5-9.291-41.5-103.508-60.534-118.5-118.5l-10.001 26.5Z" fill="url(#b)"/><path d="M420.844 334.5c8.5-13.5 0-46-37.5-46-32 0-94-12-113.5-31.5l-23 11c28.249 13.669 62.329 18.65 92.33 23.035 35.846 5.239 65.869 9.627 73.17 26.965l8.5 16.5Z" fill="url(#c)"/><path d="M27.844 358.5c6.021 25.5 49 53.5 86.499 21 26.001-22.535 107.001-56.5 181-48C309 333.069 335 339.569 354.844 346c4.656 1.509 47.107 18.507 66-11.5l-8.5-16.5c4 9.5 0 31-85 9.5-49.192-12.443-130-7.5-229 54-36.5 22.674-103.5-38 1.5-104.5 29-18.367 43.272-23.648 80-30.5 35.395-6.604 84.325-25.347 121.506-46.5l-6.007-5.5c-1.24.76-2.821 1.807-4.749 3.083-12.837 8.502-41.04 27.179-86.251 38.917l-3.816.99-.198.052-.199.051C114.252 259.868 10.885 286.679 27.844 358.5Z" fill="#813FFE"/><path d="M82.656 502.5c83.844 37 187.188-72.5 321.844 0l7.844-13.5C281 430 189.5 528 84.156 489l-1.5 13.5Z" fill="url(#d)"/></g><g filter="url(#e)"><path d="M226.343 52.5c60.5 78.5 164.5 83.5 69 142l6.007 5.5c33.2-18.888 57.032-39.697 53.494-55.5-9.291-41.5-103.508-60.534-118.5-118.5l-10.001 26.5Z" fill="url(#f)"/><path d="M420.844 334.5c8.5-13.5 0-46-37.5-46-32 0-94-12-113.5-31.5l-23 11c28.249 13.669 62.329 18.65 92.33 23.035 35.846 5.239 65.869 9.627 73.17 26.965l8.5 16.5Z" fill="url(#g)"/><path d="M27.844 358.5c6.021 25.5 49 53.5 86.499 21 26.001-22.535 107.001-56.5 181-48C309 333.069 335 339.569 354.844 346c4.656 1.509 47.107 18.507 66-11.5l-8.5-16.5c4 9.5 0 31-85 9.5-49.192-12.443-130-7.5-229 54-36.5 22.674-103.5-38 1.5-104.5 29-18.367 43.272-23.648 80-30.5 35.395-6.604 84.325-25.347 121.506-46.5l-6.007-5.5c-1.24.76-2.821 1.807-4.749 3.083-12.837 8.502-41.04 27.179-86.251 38.917l-3.816.99-.198.052-.199.051C114.252 259.868 10.885 286.679 27.844 358.5Z" fill="#813FFE"/><path d="M82.656 502.5c83.844 37 187.188-72.5 321.844 0l7.844-13.5C281 430 189.5 528 84.156 489l-1.5 13.5Z" fill="url(#h)"/></g><g filter="url(#i)"><path d="M226.343 52.5c60.5 78.5 164.5 83.5 69 142l6.007 5.5c33.2-18.888 57.032-39.697 53.494-55.5-9.291-41.5-103.508-60.534-118.5-118.5l-10.001 26.5Z" fill="url(#j)"/><path d="M420.844 334.5c8.5-13.5 0-46-37.5-46-32 0-94-12-113.5-31.5l-23 11c28.249 13.669 62.329 18.65 92.33 23.035 35.846 5.239 65.869 9.627 73.17 26.965l8.5 16.5Z" fill="url(#k)"/><path d="M27.844 358.5c6.021 25.5 49 53.5 86.499 21 26.001-22.535 107.001-56.5 181-48C309 333.069 335 339.569 354.844 346c4.656 1.509 47.107 18.507 66-11.5l-8.5-16.5c4 9.5 0 31-85 9.5-49.192-12.443-130-7.5-229 54-36.5 22.674-103.5-38 1.5-104.5 29-18.367 43.272-23.648 80-30.5 35.395-6.604 84.325-25.347 121.506-46.5l-6.007-5.5c-1.24.76-2.821 1.807-4.749 3.083-12.837 8.502-41.04 27.179-86.251 38.917l-3.816.99-.198.052-.199.051C114.252 259.868 10.885 286.679 27.844 358.5Z" fill="#813FFE"/><path d="M82.656 502.5c83.844 37 187.188-72.5 321.844 0l7.844-13.5C281 430 189.5 528 84.156 489l-1.5 13.5Z" fill="url(#l)"/></g><path d="M226.343 52.5c60.5 78.5 164.5 83.5 69 142l6.007 5.5c33.2-18.888 57.032-39.697 53.494-55.5-9.291-41.5-103.508-60.534-118.5-118.5l-10.001 26.5Z" fill="url(#m)"/><path d="M420.844 334.5c8.5-13.5 0-46-37.5-46-32 0-94-12-113.5-31.5l-23 11c28.249 13.669 62.329 18.65 92.33 23.035 35.846 5.239 65.869 9.627 73.17 26.965l8.5 16.5Z" fill="url(#n)"/><path d="M27.844 358.5c6.021 25.5 49 53.5 86.499 21 26.001-22.535 107.001-56.5 181-48C309 333.069 335 339.569 354.844 346c4.656 1.509 47.107 18.507 66-11.5l-8.5-16.5c4 9.5 0 31-85 9.5-49.192-12.443-130-7.5-229 54-36.5 22.674-103.5-38 1.5-104.5 29-18.367 43.272-23.648 80-30.5 35.395-6.604 84.325-25.347 121.506-46.5l-6.007-5.5c-1.24.76-2.821 1.807-4.749 3.083-12.837 8.502-41.04 27.179-86.251 38.917l-3.816.99-.198.052-.199.051C114.252 259.868 10.885 286.679 27.844 358.5Z" fill="#813FFE"/><path d="M82.656 502.5c83.844 37 187.188-72.5 321.844 0l7.844-13.5C281 430 189.5 528 84.156 489l-1.5 13.5Z" fill="url(#o)"/><g filter="url(#p)"><path d="M296.496 91c57.596 38.492 93.325 59.827 4 109-87.194 48-238.976 51.5-271 125.5C13.906 361.5 54 418 111.52 374c25.888-19.803 90.644-45.277 155.478-44 81.502 1.605 85.502 23.5 113.502 22 60-3.214 56.5-59-28-65" stroke="url(#q)"/></g><g filter="url(#r)"><path d="M296.496 91c57.596 38.492 93.325 59.827 4 109-87.194 48-238.976 51.5-271 125.5C13.906 361.5 54 418 111.52 374c25.888-19.803 90.644-45.277 155.478-44 81.502 1.605 85.502 23.5 113.502 22 60-3.214 56.5-59-28-65" stroke="url(#s)"/></g><g filter="url(#t)"><path d="M138.001 500c55.002 12.499 132.002-53.5 219.501-18.5" stroke="url(#u)"/></g><g filter="url(#v)"><path d="M138.001 500c55.002 12.499 132.002-53.5 219.501-18.5" stroke="url(#w)"/></g><defs><linearGradient id="b" x1="224.932" y1="26" x2="327.745" y2="164.422" gradientUnits="userSpaceOnUse"><stop offset=".165" stop-color="#DB9CFF" stop-opacity="0"/><stop offset="1" stop-color="#7E3BFE"/></linearGradient><linearGradient id="c" x1="267" y1="260.806" x2="418.466" y2="332.589" gradientUnits="userSpaceOnUse"><stop offset=".041" stop-color="#DD93FF" stop-opacity="0"/><stop offset=".835" stop-color="#8241FE"/></linearGradient><linearGradient id="d" x1="401.5" y1="474.5" x2="105" y2="515.5" gradientUnits="userSpaceOnUse"><stop offset=".045" stop-color="#B67FFF" stop-opacity="0"/><stop offset=".195" stop-color="#813FFE"/><stop offset=".78" stop-color="#813FFE"/><stop offset="1" stop-color="#EBBFFF" stop-opacity="0"/></linearGradient><linearGradient id="f" x1="224.932" y1="26" x2="327.745" y2="164.422" gradientUnits="userSpaceOnUse"><stop offset=".165" stop-color="#DB9CFF" stop-opacity="0"/><stop offset="1" stop-color="#7E3BFE"/></linearGradient><linearGradient id="g" x1="267" y1="260.806" x2="418.466" y2="332.589" gradientUnits="userSpaceOnUse"><stop offset=".041" stop-color="#DD93FF" stop-opacity="0"/><stop offset=".835" stop-color="#8241FE"/></linearGradient><linearGradient id="h" x1="401.5" y1="474.5" x2="105" y2="515.5" gradientUnits="userSpaceOnUse"><stop offset=".045" stop-color="#B67FFF" stop-opacity="0"/><stop offset=".195" stop-color="#813FFE"/><stop offset=".78" stop-color="#813FFE"/><stop offset="1" stop-color="#EBBFFF" stop-opacity="0"/></linearGradient><linearGradient id="j" x1="224.932" y1="26" x2="327.745" y2="164.422" gradientUnits="userSpaceOnUse"><stop offset=".165" stop-color="#DB9CFF" stop-opacity="0"/><stop offset="1" stop-color="#7E3BFE"/></linearGradient><linearGradient id="k" x1="267" y1="260.806" x2="418.466" y2="332.589" gradientUnits="userSpaceOnUse"><stop offset=".041" stop-color="#DD93FF" stop-opacity="0"/><stop offset=".835" stop-color="#8241FE"/></linearGradient><linearGradient id="l" x1="401.5" y1="474.5" x2="105" y2="515.5" gradientUnits="userSpaceOnUse"><stop offset=".045" stop-color="#B67FFF" stop-opacity="0"/><stop offset=".195" stop-color="#813FFE"/><stop offset=".78" stop-color="#813FFE"/><stop offset="1" stop-color="#EBBFFF" stop-opacity="0"/></linearGradient><linearGradient id="m" x1="224.932" y1="26" x2="327.745" y2="164.422" gradientUnits="userSpaceOnUse"><stop offset=".165" stop-color="#DB9CFF" stop-opacity="0"/><stop offset="1" stop-color="#7E3BFE"/></linearGradient><linearGradient id="n" x1="267" y1="260.806" x2="418.466" y2="332.589" gradientUnits="userSpaceOnUse"><stop offset=".041" stop-color="#DD93FF" stop-opacity="0"/><stop offset=".835" stop-color="#8241FE"/></linearGradient><linearGradient id="o" x1="401.5" y1="474.5" x2="105" y2="515.5" gradientUnits="userSpaceOnUse"><stop offset=".045" stop-color="#B67FFF" stop-opacity="0"/><stop offset=".195" stop-color="#813FFE"/><stop offset=".78" stop-color="#813FFE"/><stop offset="1" stop-color="#EBBFFF" stop-opacity="0"/></linearGradient><linearGradient id="q" x1="223.722" y1="91" x2="443.5" y2="319.5" gradientUnits="userSpaceOnUse"><stop stop-color="#DD93FF"/><stop offset=".689" stop-color="#F9B7FF"/><stop offset="1" stop-color="#DD93FF"/></linearGradient><linearGradient id="s" x1="223.722" y1="91" x2="443.5" y2="319.5" gradientUnits="userSpaceOnUse"><stop stop-color="#DD93FF"/><stop offset=".689" stop-color="#F9B7FF"/><stop offset="1" stop-color="#DD93FF"/></linearGradient><linearGradient id="u" x1="106.479" y1="465.354" x2="377.571" y2="515.948" gradientUnits="userSpaceOnUse"><stop stop-color="#DD93FF"/><stop offset=".5" stop-color="#E5A3FF"/><stop offset="1" stop-color="#DD93FF"/></linearGradient><linearGradient id="w" x1="106.479" y1="465.354" x2="377.571" y2="515.948" gradientUnits="userSpaceOnUse"><stop stop-color="#DD93FF"/><stop offset=".5" stop-color="#E5A3FF"/><stop offset="1" stop-color="#DD93FF"/></linearGradient><filter id="a" x="0" y="0" width="449.863" height="536.371" filterUnits="userSpaceOnUse" color-interpolation-filters="sRGB"><feFlood flood-opacity="0" result="BackgroundImageFix"/><feBlend in="SourceGraphic" in2="BackgroundImageFix" result="shape"/><feGaussianBlur stdDeviation="13" result="effect1_foregroundBlur_2759_881"/></filter><filter id="e" x="6" y="6" width="437.863" height="524.371" filterUnits="userSpaceOnUse" color-interpolation-filters="sRGB"><feFlood flood-opacity="0" result="BackgroundImageFix"/><feBlend in="SourceGraphic" in2="BackgroundImageFix" result="shape"/><feGaussianBlur stdDeviation="10" result="effect1_foregroundBlur_2759_881"/></filter><filter id="i" x="16" y="16" width="417.863" height="504.371" filterUnits="userSpaceOnUse" color-interpolation-filters="sRGB"><feFlood flood-opacity="0" result="BackgroundImageFix"/><feBlend in="SourceGraphic" in2="BackgroundImageFix" result="shape"/><feGaussianBlur stdDeviation="5" result="effect1_foregroundBlur_2759_881"/></filter><filter id="p" x="19.609" y="84.584" width="408.227" height="311.98" filterUnits="userSpaceOnUse" color-interpolation-filters="sRGB"><feFlood flood-opacity="0" result="BackgroundImageFix"/><feBlend in="SourceGraphic" in2="BackgroundImageFix" result="shape"/><feGaussianBlur stdDeviation="3" result="effect1_foregroundBlur_2759_881"/></filter><filter id="r" x="21.609" y="86.584" width="404.227" height="307.98" filterUnits="userSpaceOnUse" color-interpolation-filters="sRGB"><feFlood flood-opacity="0" result="BackgroundImageFix"/><feBlend in="SourceGraphic" in2="BackgroundImageFix" result="shape"/><feGaussianBlur stdDeviation="2" result="effect1_foregroundBlur_2759_881"/></filter><filter id="t" x="131.883" y="464.648" width="231.812" height="43.447" filterUnits="userSpaceOnUse" color-interpolation-filters="sRGB"><feFlood flood-opacity="0" result="BackgroundImageFix"/><feBlend in="SourceGraphic" in2="BackgroundImageFix" result="shape"/><feGaussianBlur stdDeviation="3" result="effect1_foregroundBlur_2759_881"/></filter><filter id="v" x="133.883" y="466.648" width="227.812" height="39.447" filterUnits="userSpaceOnUse" color-interpolation-filters="sRGB"><feFlood flood-opacity="0" result="BackgroundImageFix"/><feBlend in="SourceGraphic" in2="BackgroundImageFix" result="shape"/><feGaussianBlur stdDeviation="2" result="effect1_foregroundBlur_2759_881"/></filter></defs></svg>