<svg width="22" height="49" viewBox="0 0 22 49" fill="none" xmlns="http://www.w3.org/2000/svg"><g filter="url(#a)"><path d="M13.594 32.555c-1.647.441-2.794-.292-3.44-2.2L1.77 6.672c-.545-1.529-.541-2.865.012-4.009C2.325 1.477 3.377.675 4.939.257c1.52-.408 2.79-.228 3.81.54 1.052.714 1.723 1.869 2.015 3.465l4.582 24.701c.394 1.976-.19 3.174-1.752 3.592Zm3.53 13.173c-1.436.385-2.716.253-3.84-.397-1.082-.66-1.81-1.687-2.183-3.08-.362-1.351-.234-2.562.384-3.633.65-1.124 1.691-1.878 3.127-2.263 1.478-.396 2.736-.258 3.776.414 1.07.618 1.787 1.602 2.15 2.954.372 1.393.256 2.646-.351 3.759-.565 1.101-1.586 1.85-3.064 2.246Z" fill="url(#b)"/></g><defs><linearGradient id="b" x1="4.908" y1=".265" x2="17.092" y2="45.737" gradientUnits="userSpaceOnUse"><stop offset=".214" stop-color="#DCF096"/><stop offset=".478" stop-color="#C7FF00"/><stop offset="1" stop-color="#790"/></linearGradient><filter id="a" x=".165" y=".045" width="21.785" height="48.298" filterUnits="userSpaceOnUse" color-interpolation-filters="sRGB"><feFlood flood-opacity="0" result="BackgroundImageFix"/><feColorMatrix in="SourceAlpha" values="0 0 0 0 0 0 0 0 0 0 0 0 0 0 0 0 0 0 127 0" result="hardAlpha"/><feOffset dy="1.2"/><feGaussianBlur stdDeviation=".6"/><feComposite in2="hardAlpha" operator="out"/><feColorMatrix values="0 0 0 0 0.266667 0 0 0 0 0.109804 0 0 0 0 0.054902 0 0 0 1 0"/><feBlend in2="BackgroundImageFix" result="effect1_dropShadow_1850_1141"/><feBlend in="SourceGraphic" in2="effect1_dropShadow_1850_1141" result="shape"/></filter></defs></svg>