<svg width="76" height="74" viewBox="0 0 76 74" fill="none" xmlns="http://www.w3.org/2000/svg"><g filter="url(#a)"><path style="transform-origin:center" d="M35.23 24.66c1.025-2.464 4.515-2.464 5.54 0l1.552 3.731a3 3 0 0 0 2.53 1.838l4.028.323c2.66.213 3.739 3.533 1.712 5.27l-3.069 2.628a3 3 0 0 0-.966 2.974l.937 3.931c.62 2.596-2.204 4.648-4.481 3.257l-3.45-2.107a3 3 0 0 0-3.127 0l-3.449 2.107c-2.277 1.39-5.1-.661-4.481-3.257l.937-3.93a3 3 0 0 0-.966-2.975l-3.07-2.629c-2.026-1.736-.947-5.055 1.713-5.269l4.028-.323a3 3 0 0 0 2.53-1.838l1.552-3.731Z" fill="#fff"><animateTransform attributeName="transform" begin=".4s" dur="10s" type="rotate" from="0" to="360" repeatCount="indefinite"/></path></g><path style="transform-origin:center" d="M34.951 17.428c1.339-2.375 4.76-2.375 6.098 0l3.869 6.864a4.5 4.5 0 0 0 3.03 2.202l7.724 1.558c2.673.54 3.73 3.792 1.885 5.8l-5.333 5.8a4.5 4.5 0 0 0-1.158 3.563l.905 7.827c.313 2.709-2.454 4.72-4.933 3.584l-7.165-3.279a4.5 4.5 0 0 0-3.746 0l-7.165 3.28c-2.479 1.134-5.246-.876-4.933-3.585l.905-7.827a4.5 4.5 0 0 0-1.158-3.563l-5.332-5.8c-1.846-2.008-.789-5.26 1.884-5.8l7.724-1.558a4.5 4.5 0 0 0 3.03-2.202l3.869-6.864Z" stroke="#fff" stroke-opacity=".16"><animateTransform attributeName="transform" begin=".4s" dur="10s" type="rotate" from="0" to="360" repeatCount="indefinite"/></path><path style="transform-origin:center" d="M34.367 2.815c1.798-2.458 5.468-2.458 7.266 0l9.591 13.119a5.5 5.5 0 0 0 2.725 1.979l15.44 5.069c2.894.95 4.028 4.44 2.245 6.91l-9.512 13.175a5.5 5.5 0 0 0-1.04 3.203l-.05 16.25c-.01 3.047-2.978 5.204-5.877 4.271l-15.471-4.975a5.5 5.5 0 0 0-3.368 0l-15.47 4.975c-2.9.933-5.869-1.224-5.878-4.27l-.05-16.251a5.5 5.5 0 0 0-1.04-3.203L4.366 29.891c-1.783-2.47-.649-5.96 2.245-6.91l15.44-5.068a5.5 5.5 0 0 0 2.725-1.98l9.591-13.118Z" stroke="#fff" stroke-opacity=".1"><animateTransform attributeName="transform" begin=".4s" dur="10s" type="rotate" from="0" to="360" repeatCount="indefinite"/></path><defs><filter id="a" x=".555" y=".012" width="74.889" height="73.849" filterUnits="userSpaceOnUse" color-interpolation-filters="sRGB"><feFlood flood-opacity="0" result="BackgroundImageFix"/><feColorMatrix in="SourceAlpha" values="0 0 0 0 0 0 0 0 0 0 0 0 0 0 0 0 0 0 127 0" result="hardAlpha"/><feOffset dy="1"/><feGaussianBlur stdDeviation="11.9"/><feComposite in2="hardAlpha" operator="out"/><feColorMatrix values="0 0 0 0 1 0 0 0 0 1 0 0 0 0 1 0 0 0 1 0"/><feBlend in2="BackgroundImageFix" result="effect1_dropShadow_8_2"/><feBlend in="SourceGraphic" in2="effect1_dropShadow_8_2" result="shape"/></filter></defs></svg>