<svg width="28" height="28" viewBox="0 0 28 28" fill="none" xmlns="http://www.w3.org/2000/svg"><path d="M11.23 2.66c1.025-2.464 4.515-2.464 5.54 0l1.552 3.731a3 3 0 0 0 2.53 1.838l4.028.323c2.66.214 3.739 3.533 1.712 5.27l-3.069 2.628a3 3 0 0 0-.966 2.974l.937 3.931c.62 2.596-2.204 4.648-4.482 3.257l-3.448-2.107a3 3 0 0 0-3.128 0l-3.448 2.107c-2.278 1.39-5.101-.661-4.482-3.257l.937-3.93a3 3 0 0 0-.966-2.975l-3.07-2.629C-.618 12.085.46 8.766 3.12 8.552l4.028-.323a3 3 0 0 0 2.53-1.838L11.23 2.66Z" fill="#fff"/></svg>